<?xml version="1.0" encoding="UTF-8"?><svg id="Livello_1" xmlns="http://www.w3.org/2000/svg" xmlns:xlink="http://www.w3.org/1999/xlink" viewBox="0 0 500 728"><defs><style>.cls-1,.cls-2{fill:none;}.cls-3{clip-path:url(#clippath);}.cls-4{fill:#6a6bff;}.cls-5{fill:#026bfc;}.cls-6{fill:#026afd;}.cls-7{fill:#0266ff;}.cls-8{fill:#0470fa;}.cls-9{fill:#046efb;}.cls-10{fill:#046ffa;}.cls-11{fill:#0466ff;}.cls-12{fill:#0169fd;}.cls-13{fill:#0067fe;}.cls-14{fill:#06f;}.cls-15{fill:#0366ff;}.cls-16{fill:#036dfb;}.cls-17{fill:#036cfc;}.cls-18{fill:#696bff;}.cls-19{fill:#686bff;}.cls-20{fill:#676bff;}.cls-21{fill:#926eff;}.cls-22{fill:#6b6cff;}.cls-23{fill:#746cff;}.cls-24{fill:#816dff;}.cls-25{fill:#826dff;}.cls-26{fill:#7f6dff;}.cls-27{fill:#736cff;}.cls-28{fill:#656bff;}.cls-29{fill:#996eff;}.cls-30{fill:#976eff;}.cls-31{fill:#9a6eff;}.cls-32{fill:#7e6dff;}.cls-33{fill:#986eff;}.cls-34{fill:#6c6cff;}.cls-35{fill:#806dff;}.cls-36{fill:#7d6cff;}.cls-37{fill:#0168fe;}.cls-38{fill:#0166ff;}.cls-39{fill:#8b6dff;}.cls-40{fill:#a26eff;}.cls-41{fill:#a06eff;}.cls-42{fill:#a16eff;}.cls-43{fill:#9f6eff;}.cls-44{fill:#856dff;}.cls-45{fill:#946eff;}.cls-46{fill:#866dff;}.cls-47{fill:#c270ff;}.cls-48{fill:#b56fff;}.cls-49{fill:#b66fff;}.cls-50{fill:#b870ff;}.cls-51{fill:#b970ff;}.cls-52{fill:#9e6eff;}.cls-53{fill:#9d6eff;}.cls-54{fill:#8c6dff;}.cls-55{fill:#ba70ff;}.cls-56{fill:#8d6dff;}.cls-57{fill:#906dff;}.cls-58{fill:#c370ff;}.cls-59{fill:#b46fff;}.cls-60{fill:#916dff;}.cls-61{fill:#b76fff;}.cls-62{fill:#666bff;}.cls-63{fill:#30d1c4;}.cls-64{fill:#3269ff;}.cls-65{fill:#bb70ff;}.cls-66{fill:#30d2c3;}.cls-67{fill:#2fcfc5;}.cls-68{fill:#2fd0c4;}.cls-69{fill:#3068ff;}.cls-70{fill:#8e6dff;}.cls-71{fill:#3369ff;}.cls-72{fill:#31d4c2;}.cls-73{fill:#31d3c3;}.cls-74{fill:#2eccc6;}.cls-75{fill:#2ecdc6;}.cls-76{fill:#8f6dff;}.cls-77{fill:#936eff;}.cls-78{fill:#b26fff;}.cls-79{fill:#ac6fff;}.cls-80{fill:#a96fff;}.cls-81{fill:#a56fff;}.cls-82{fill:#aa6fff;}.cls-83{fill:#b16fff;}.cls-84{fill:#ae6fff;}.cls-85{fill:#b36fff;}.cls-86{fill:#a66fff;}.cls-87{fill:#af6fff;}.cls-88{fill:#bc70ff;}.cls-89{fill:#bd70ff;}.cls-90{fill:#a76fff;}.cls-91{fill:#bf70ff;}.cls-92{fill:#be70ff;}.cls-93{fill:#c070ff;}.cls-94{fill:#ab6fff;}.cls-95{fill:#c170ff;}.cls-96{fill:#c470ff;}.cls-97{fill:#c670ff;}.cls-98{fill:#ca70ff;}.cls-99{fill:#c570ff;}.cls-100{fill:#c770ff;}.cls-101{fill:#b06fff;}.cls-102{fill:#ad6fff;}.cls-103{fill:#c870ff;}.cls-104{fill:#c970ff;}.cls-105{fill:#a86fff;}.cls-106{fill:#23b5d3;}.cls-107{fill:#23b4d4;}.cls-108{fill:#1267ff;}.cls-109{fill:#1391e7;}.cls-110{fill:#1390e8;}.cls-111{fill:#1392e7;}.cls-112{fill:#1167ff;}.cls-113{fill:#118cea;}.cls-114{fill:#128fe8;}.cls-115{fill:#128ee9;}.cls-116{fill:#1067ff;}.cls-117{fill:#108aeb;}.cls-118{fill:#118dea;}.cls-119{fill:#1595e5;}.cls-120{fill:#0f67ff;}.cls-121{fill:#1596e5;}.cls-122{fill:#1667ff;}.cls-123{fill:#1494e6;}.cls-124{fill:#1567ff;}.cls-125{fill:#2468ff;}.cls-126{fill:#2368ff;}.cls-127{fill:#23b3d4;}.cls-128{fill:#1da6db;}.cls-129{fill:#1da7db;}.cls-130{fill:#1e68ff;}.cls-131{fill:#1ca5dc;}.cls-132{fill:#1ca4dc;}.cls-133{fill:#1d67ff;}.cls-134{fill:#21afd6;}.cls-135{fill:#21b0d6;}.cls-136{fill:#2168ff;}.cls-137{fill:#22b1d5;}.cls-138{fill:#22b2d5;}.cls-139{fill:#20aed7;}.cls-140{fill:#20add7;}.cls-141{fill:#2068ff;}.cls-142{fill:#1facd8;}.cls-143{fill:#1faad9;}.cls-144{fill:#1fabd9;}.cls-145{fill:#1ea9da;}.cls-146{fill:#1f68ff;}.cls-147{fill:#1ea8da;}.cls-148{fill:#0877f6;}.cls-149{fill:#0879f5;}.cls-150{fill:#0a7df2;}.cls-151{fill:#0a7cf3;}.cls-152{fill:#0878f5;}.cls-153{fill:#0866ff;}.cls-154{fill:#0776f6;}.cls-155{fill:#0775f7;}.cls-156{fill:#097bf3;}.cls-157{fill:#0766ff;}.cls-158{fill:#2268ff;}.cls-159{fill:#4169ff;}.cls-160{fill:#4269ff;}.cls-161{fill:#3f69ff;}.cls-162{fill:#108beb;}.cls-163{fill:#0674f7;}.cls-164{fill:#1467ff;}.cls-165{fill:#0571f9;}.cls-166{fill:#0572f8;}.cls-167{fill:#0566ff;}.cls-168{fill:#1367ff;}.cls-169{fill:#0673f8;}.cls-170{fill:#0666ff;}.cls-171{fill:#1a67ff;}.cls-172{fill:#1493e6;}.cls-173{fill:#0a67ff;}.cls-174{fill:#0b7ff1;}.cls-175{fill:#0b7ef2;}.cls-176{fill:#097af4;}.cls-177{fill:#0966ff;}.cls-178{fill:#0e67ff;}.cls-179{fill:#0f89ec;}.cls-180{fill:#0f88ec;}.cls-181{fill:#0f87ed;}.cls-182{fill:#0d67ff;}.cls-183{fill:#0e86ed;}.cls-184{fill:#0e85ee;}.cls-185{fill:#1ba3de;}.cls-186{fill:#1ba3dd;}.cls-187{fill:#1ba2de;}.cls-188{fill:#0d83ef;}.cls-189{fill:#0d84ef;}.cls-190{fill:#1c67ff;}.cls-191{fill:#1aa0df;}.cls-192{fill:#1b67ff;}.cls-193{fill:#1aa1df;}.cls-194{fill:#4069ff;}.cls-195{fill:#3669ff;}.cls-196{fill:#33d8c0;}.cls-197{fill:#33d9bf;}.cls-198{fill:#35ddbd;}.cls-199{fill:#35dcbe;}.cls-200{fill:#3769ff;}.cls-201{fill:#34dbbe;}.cls-202{fill:#4369ff;}.cls-203{fill:#3569ff;}.cls-204{fill:#34dabf;}.cls-205{fill:#446aff;}.cls-206{fill:#179ae2;}.cls-207{fill:#1799e3;}.cls-208{fill:#1867ff;}.cls-209{fill:#179be2;}.cls-210{fill:#1698e4;}.cls-211{fill:#1767ff;}.cls-212{fill:#3e69ff;}.cls-213{fill:#1697e4;}.cls-214{fill:#0c67ff;}.cls-215{fill:#3d69ff;}.cls-216{fill:#0b67ff;}.cls-217{fill:#0c82f0;}.cls-218{fill:#0c80f1;}.cls-219{fill:#0c81f0;}.cls-220{fill:#199fe0;}.cls-221{fill:#199ee0;}.cls-222{fill:#1967ff;}.cls-223{fill:#189ce1;}.cls-224{fill:#189de1;}.cls-225{fill:#956eff;}.cls-226{fill:#a46eff;}.cls-227{fill:#9c6eff;}.cls-228{fill:#6e6cff;}.cls-229{fill:#6f6cff;}.cls-230{fill:#726cff;}.cls-231{fill:#a36eff;}.cls-232{fill:#966eff;}.cls-233{fill:#466aff;}.cls-234{fill:#536aff;}.cls-235{fill:#876dff;}.cls-236{fill:#8a6dff;}.cls-237{fill:#896dff;}.cls-238{fill:#6d6cff;}.cls-239{fill:#886dff;}.cls-240{fill:#9b6eff;}.cls-241{fill:#706cff;}.cls-242{fill:#556aff;}.cls-243{fill:#646bff;}.cls-244{fill:#636bff;}.cls-245{fill:#626bff;}.cls-246{fill:#5a6bff;}.cls-247{fill:#2868ff;}.cls-248{fill:#586bff;}.cls-249{fill:#2a68ff;}.cls-250{fill:#28c0cd;}.cls-251{fill:#28bfce;}.cls-252{fill:#2b68ff;}.cls-253{fill:#29c2cc;}.cls-254{fill:#29c1cc;}.cls-255{fill:#566aff;}.cls-256{fill:#2bc6ca;}.cls-257{fill:#2bc7c9;}.cls-258{fill:#5c6bff;}.cls-259{fill:#4a6aff;}.cls-260{fill:#27bdcf;}.cls-261{fill:#2968ff;}.cls-262{fill:#27bece;}.cls-263{fill:#27bccf;}.cls-264{fill:#486aff;}.cls-265{fill:#476aff;}.cls-266{fill:#2c68ff;}.cls-267{fill:#2ac3cb;}.cls-268{fill:#2ac4cb;}.cls-269{fill:#2ac5ca;}.cls-270{fill:#24b7d2;}.cls-271{fill:#32d6c1;}.cls-272{fill:#32d7c0;}.cls-273{fill:#32d5c1;}.cls-274{fill:#24b6d3;}.cls-275{fill:#5b6bff;}.cls-276{fill:#3969ff;}.cls-277{fill:#2f68ff;}.cls-278{fill:#2dcbc7;}.cls-279{fill:#2dcac8;}.cls-280{fill:#36dfbc;}.cls-281{fill:#36debd;}.cls-282{fill:#3869ff;}.cls-283{fill:#3169ff;}.cls-284{fill:#2568ff;}.cls-285{fill:#2ecec5;}.cls-286{fill:#3a69ff;}.cls-287{fill:#3b69ff;}.cls-288{fill:#3469ff;}.cls-289{fill:#25b9d1;}.cls-290{fill:#25b8d1;}.cls-291{fill:#596bff;}.cls-292{fill:#2e68ff;}.cls-293{fill:#576aff;}.cls-294{fill:#2d68ff;}.cls-295{fill:#3c69ff;}.cls-296{fill:#846dff;}.cls-297{fill:#2cc9c8;}.cls-298{fill:#2cc8c9;}.cls-299{fill:#4c6aff;}.cls-300{fill:#616bff;}.cls-301{fill:#496aff;}.cls-302{fill:#5f6bff;}.cls-303{fill:#5e6bff;}.cls-304{fill:#546aff;}.cls-305{fill:#456aff;}.cls-306{fill:#756cff;}.cls-307{fill:#776cff;}.cls-308{fill:#606bff;}.cls-309{fill:#796cff;}.cls-310{fill:#7a6cff;}.cls-311{fill:#4b6aff;}.cls-312{fill:#5d6bff;}.cls-313{fill:#716cff;}.cls-314{fill:#526aff;}.cls-315{fill:#786cff;}.cls-316{fill:#506aff;}.cls-317{fill:#4f6aff;}.cls-318{fill:#766cff;}.cls-319{fill:#836dff;}.cls-320{fill:#4d6aff;}.cls-321{fill:#7c6cff;}.cls-322{fill:#2668ff;}.cls-323{fill:#2768ff;}.cls-324{fill:#26bbd0;}.cls-325{fill:#26bad0;}.cls-326{fill:#516aff;}.cls-327{fill:#7b6cff;}.cls-328{fill:#4e6aff;}.cls-329{fill:url(#Sfumatura_senza_nome_2);}.cls-330{fill:url(#Sfumatura_senza_nome_854);}.cls-2{stroke:#caddfa;stroke-miterlimit:10;}</style><clipPath id="clippath"><rect class="cls-1" width="500" height="728"/></clipPath><radialGradient id="Sfumatura_senza_nome_854" cx="-388.8" cy="128.2" fx="-388.8" fy="128.2" r="1" gradientTransform="translate(58563.07 -448852.34) rotate(-90) scale(1156.34 -454.85)" gradientUnits="userSpaceOnUse"><stop offset="0" stop-color="#fff" stop-opacity="0"/><stop offset="1" stop-color="#bbd6ff"/></radialGradient><linearGradient id="Sfumatura_senza_nome_2" x1="249.75" y1="-614.7" x2="249.75" y2="112.7" gradientTransform="translate(0 113) scale(1 -1)" gradientUnits="userSpaceOnUse"><stop offset="0" stop-color="#fff"/><stop offset="1" stop-color="#fff" stop-opacity="0"/></linearGradient></defs><g class="cls-3"><g><path class="cls-2" d="M499.8,727.7L499.5,.3H.1L.4,727.7H499.8Z"/><path class="cls-2" d="M.5,712.6v15.1H15.2L14.8,.3h14.7l.3,727.4h14.7L44.2,.3h14.7l.3,727.4h14.7L73.6,.3h14.7l.3,727.4h14.7L102.9,.3h14.7l.3,727.4"/><path class="cls-2" d="M499.5,725.9v-15.1H.1v-15.1H499.4v-15.1H.1v-15.1H499.4v-15.1H.1v-105.8H499.4v15.1H.1v15.1H499.4v15.1H.1v15.1H499.4v15.1H.1v15.1H499.4v-105.8H.1v-15.1H499.4v-15.1H.1v-15.1H499.4v-15.1H.1v-15.1H499.4v-15.1H.1v-15.1H499.4V106.1H.1v-15.1H499.4v-15.1H.1v-15.1H499.4v-15.1H.1v-15.1H499.4V15.4H.1V121.2H499.4v15.1H.1v15.1H499.4v15.1H.1v15.1H499.4v15.1H.1v15.3H499.4v105.8H.1v-15.1H499.4v-15.1H.1v-15.1H499.4v-15.1H.1v-15.1H499.4v-15.1H.1v105.8H499.4v15H.1v15.1H499.4v15.1H.1v15.1H499.4v15.1H.1"/><path class="cls-2" d="M132.3,.3l.3,727.4h14.7L147,.3h14.7l.3,727.4h14.7L176.4,.3h14.7l.3,727.4h14.7L205.7,.3h14.7l.3,727.4h14.7L235.1,.3h14.7l.3,727.4h14.7L264.5,.3h14.7l.3,727.4h14.7L293.9,.3h14.7l.3,727.4h14.7L323.2,.3h14.7l.3,727.4h14.7L352.6,.3h14.7l.3,727.4h14.7L382,.3h14.7l.3,727.4h14.7L411.3,.3h14.7l.3,727.4h14.7L440.7,.3h14.7l.3,727.4h14.7L470.1,.3h14.7l.3,727.4h14.7"/></g><g><circle class="cls-98" cx="-22.11" cy="532.12" r="22.61"/><circle class="cls-104" cx="-19.57" cy="525.95" r="22.65"/><circle class="cls-103" cx="-17.07" cy="519.98" r="22.7"/><circle class="cls-100" cx="-14.58" cy="514.21" r="22.75"/><circle class="cls-97" cx="-12.12" cy="508.62" r="22.8"/><circle class="cls-99" cx="-9.69" cy="503.23" r="22.85"/><circle class="cls-96" cx="-7.28" cy="498.02" r="22.9"/><circle class="cls-58" cx="-4.9" cy="492.99" r="22.95"/><circle class="cls-47" cx="-2.54" cy="488.15" r="23"/><circle class="cls-95" cx="-.21" cy="483.48" r="23.05"/><circle class="cls-93" cx="2.09" cy="478.99" r="23.1"/><circle class="cls-91" cx="4.36" cy="474.67" r="23.15"/><circle class="cls-92" cx="6.61" cy="470.52" r="23.2"/><circle class="cls-89" cx="8.82" cy="466.54" r="23.24"/><circle class="cls-88" cx="11.01" cy="462.73" r="23.29"/><circle class="cls-65" cx="13.17" cy="459.08" r="23.34"/><circle class="cls-55" cx="15.3" cy="455.59" r="23.39"/><circle class="cls-51" cx="17.4" cy="452.25" r="23.44"/><circle class="cls-50" cx="19.46" cy="449.07" r="23.49"/><circle class="cls-61" cx="21.5" cy="446.05" r="23.54"/><circle class="cls-49" cx="23.51" cy="443.17" r="23.59"/><circle class="cls-48" cx="25.49" cy="440.44" r="23.64"/><circle class="cls-59" cx="27.43" cy="437.86" r="23.69"/><circle class="cls-85" cx="29.34" cy="435.42" r="23.74"/><circle class="cls-78" cx="31.22" cy="433.11" r="23.79"/><circle class="cls-83" cx="33.07" cy="430.95" r="23.83"/><circle class="cls-101" cx="34.88" cy="428.92" r="23.88"/><circle class="cls-87" cx="36.66" cy="427.02" r="23.93"/><circle class="cls-84" cx="38.41" cy="425.25" r="23.98"/><circle class="cls-102" cx="40.12" cy="423.6" r="24.03"/><circle class="cls-79" cx="41.8" cy="422.08" r="24.08"/><circle class="cls-94" cx="43.44" cy="420.69" r="24.13"/><circle class="cls-82" cx="45.05" cy="419.41" r="24.18"/><circle class="cls-80" cx="46.62" cy="418.24" r="24.23"/><circle class="cls-105" cx="48.16" cy="417.19" r="24.28"/><circle class="cls-90" cx="49.66" cy="416.25" r="24.33"/><circle class="cls-86" cx="51.12" cy="415.42" r="24.38"/><circle class="cls-81" cx="52.55" cy="414.7" r="24.42"/><circle class="cls-226" cx="53.94" cy="414.08" r="24.47"/><circle class="cls-231" cx="55.29" cy="413.56" r="24.52"/><circle class="cls-40" cx="56.6" cy="413.14" r="24.57"/><circle class="cls-42" cx="57.88" cy="412.81" r="24.62"/><circle class="cls-41" cx="59.11" cy="412.58" r="24.67"/><circle class="cls-43" cx="60.31" cy="412.43" r="24.72"/><circle class="cls-52" cx="61.46" cy="412.38" r="24.77"/><circle class="cls-53" cx="62.58" cy="412.41" r="24.82"/><circle class="cls-227" cx="63.66" cy="412.52" r="24.87"/><circle class="cls-240" cx="64.69" cy="412.71" r="24.92"/><circle class="cls-31" cx="65.69" cy="412.98" r="24.97"/><circle class="cls-29" cx="66.64" cy="413.33" r="25.01"/><circle class="cls-33" cx="67.55" cy="413.74" r="25.06"/><circle class="cls-30" cx="68.42" cy="414.23" r="25.11"/><circle class="cls-232" cx="69.25" cy="414.78" r="25.16"/><circle class="cls-225" cx="70.03" cy="415.4" r="25.21"/><circle class="cls-45" cx="70.77" cy="416.08" r="25.26"/><circle class="cls-77" cx="71.47" cy="416.82" r="25.31"/><circle class="cls-21" cx="72.12" cy="417.62" r="25.36"/><circle class="cls-60" cx="72.73" cy="418.47" r="25.41"/><circle class="cls-57" cx="73.3" cy="419.37" r="25.46"/><circle class="cls-76" cx="73.82" cy="420.32" r="25.51"/><circle class="cls-70" cx="74.29" cy="421.31" r="25.55"/><circle class="cls-56" cx="74.72" cy="422.35" r="25.6"/><circle class="cls-54" cx="75.1" cy="423.44" r="25.65"/><circle class="cls-39" cx="75.44" cy="424.56" r="25.7"/><circle class="cls-236" cx="75.73" cy="425.71" r="25.75"/><circle class="cls-237" cx="75.97" cy="426.9" r="25.8"/><circle class="cls-239" cx="76.16" cy="428.12" r="25.85"/><circle class="cls-235" cx="76.31" cy="429.37" r="25.9"/><circle class="cls-46" cx="76.41" cy="430.64" r="25.95"/><circle class="cls-44" cx="76.46" cy="431.94" r="26"/><circle class="cls-296" cx="76.47" cy="432.99" r="26.05"/><circle class="cls-319" cx="76.46" cy="433.93" r="26.1"/><circle class="cls-25" cx="76.45" cy="435.12" r="26.14"/><circle class="cls-24" cx="76.43" cy="436.55" r="26.19"/><circle class="cls-35" cx="76.41" cy="438.21" r="26.24"/><circle class="cls-26" cx="76.39" cy="440.08" r="26.29"/><circle class="cls-32" cx="76.36" cy="442.18" r="26.34"/><circle class="cls-36" cx="76.34" cy="444.47" r="26.39"/><circle class="cls-321" cx="76.31" cy="446.97" r="26.44"/><circle class="cls-327" cx="76.28" cy="449.65" r="26.49"/><circle class="cls-310" cx="76.26" cy="452.51" r="26.54"/><circle class="cls-309" cx="76.24" cy="455.55" r="26.59"/><circle class="cls-315" cx="76.22" cy="458.75" r="26.64"/><circle class="cls-307" cx="76.2" cy="462.1" r="26.69"/><circle class="cls-318" cx="76.19" cy="465.6" r="26.73"/><circle class="cls-306" cx="76.19" cy="469.25" r="26.78"/><circle class="cls-23" cx="76.19" cy="473.02" r="26.83"/><circle class="cls-27" cx="76.2" cy="476.92" r="26.88"/><circle class="cls-230" cx="76.21" cy="480.93" r="26.93"/><circle class="cls-313" cx="76.24" cy="485.05" r="26.98"/><circle class="cls-241" cx="76.27" cy="489.27" r="27.03"/><circle class="cls-229" cx="76.32" cy="493.58" r="27.08"/><circle class="cls-228" cx="76.38" cy="497.97" r="27.13"/><circle class="cls-238" cx="76.45" cy="502.43" r="27.18"/><circle class="cls-34" cx="76.53" cy="506.96" r="27.23"/><circle class="cls-22" cx="76.63" cy="511.55" r="27.28"/><circle class="cls-4" cx="76.74" cy="516.19" r="27.32"/><circle class="cls-18" cx="76.87" cy="520.87" r="27.37"/><circle class="cls-19" cx="77.01" cy="525.58" r="27.42"/><circle class="cls-20" cx="77.18" cy="530.32" r="27.47"/><circle class="cls-62" cx="77.36" cy="535.07" r="27.52"/><circle class="cls-28" cx="77.56" cy="539.83" r="27.57"/><circle class="cls-243" cx="77.78" cy="544.59" r="27.62"/><circle class="cls-244" cx="78.02" cy="549.35" r="27.67"/><circle class="cls-245" cx="78.28" cy="554.09" r="27.72"/><circle class="cls-300" cx="78.57" cy="558.8" r="27.77"/><circle class="cls-308" cx="78.88" cy="563.48" r="27.82"/><circle class="cls-302" cx="79.21" cy="568.13" r="27.86"/><circle class="cls-303" cx="79.57" cy="572.72" r="27.91"/><circle class="cls-312" cx="79.95" cy="577.25" r="27.96"/><circle class="cls-258" cx="80.36" cy="581.72" r="28.01"/><circle class="cls-275" cx="80.8" cy="586.12" r="28.06"/><circle class="cls-246" cx="81.27" cy="590.44" r="28.11"/><circle class="cls-291" cx="81.77" cy="594.66" r="28.16"/><circle class="cls-248" cx="82.29" cy="598.79" r="28.21"/><circle class="cls-293" cx="82.85" cy="602.81" r="28.26"/><circle class="cls-255" cx="83.44" cy="606.72" r="28.31"/><circle class="cls-242" cx="84.07" cy="610.5" r="28.36"/><circle class="cls-304" cx="84.72" cy="614.16" r="28.41"/><circle class="cls-234" cx="85.42" cy="617.67" r="28.45"/><circle class="cls-314" cx="86.14" cy="621.04" r="28.5"/><circle class="cls-326" cx="86.91" cy="624.25" r="28.55"/><circle class="cls-316" cx="87.71" cy="627.3" r="28.6"/><circle class="cls-317" cx="88.55" cy="630.18" r="28.65"/><circle class="cls-328" cx="89.42" cy="632.87" r="28.7"/><circle class="cls-320" cx="90.34" cy="635.38" r="28.75"/><circle class="cls-299" cx="91.3" cy="637.7" r="28.8"/><circle class="cls-311" cx="92.3" cy="639.8" r="28.85"/><circle class="cls-259" cx="93.34" cy="641.7" r="28.9"/><circle class="cls-301" cx="94.42" cy="643.38" r="28.95"/><circle class="cls-264" cx="95.55" cy="644.82" r="29"/><circle class="cls-265" cx="96.72" cy="646.03" r="29.04"/><circle class="cls-233" cx="97.94" cy="646.99" r="29.09"/><circle class="cls-305" cx="99.21" cy="647.7" r="29.14"/><circle class="cls-205" cx="100.52" cy="648.15" r="29.19"/><circle class="cls-202" cx="101.88" cy="648.33" r="29.24"/><circle class="cls-160" cx="103.29" cy="648.23" r="29.29"/><circle class="cls-159" cx="104.75" cy="647.84" r="29.34"/><circle class="cls-194" cx="106.26" cy="647.16" r="29.39"/><circle class="cls-161" cx="107.82" cy="646.18" r="29.44"/><circle class="cls-212" cx="109.43" cy="644.88" r="29.49"/><circle class="cls-215" cx="111.1" cy="643.27" r="29.54"/><circle class="cls-295" cx="112.82" cy="641.33" r="29.59"/><circle class="cls-287" cx="114.6" cy="639.05" r="29.63"/><circle class="cls-286" cx="116.43" cy="636.43" r="29.68"/><circle class="cls-276" cx="118.32" cy="633.46" r="29.73"/><circle class="cls-282" cx="120.27" cy="630.12" r="29.78"/><circle class="cls-200" cx="122.27" cy="626.42" r="29.83"/><circle class="cls-195" cx="124.34" cy="622.35" r="29.88"/><circle class="cls-203" cx="127.28" cy="616.21" r="29.93"/><circle class="cls-288" cx="131.08" cy="608.45" r="29.98"/><circle class="cls-71" cx="134.82" cy="601.01" r="30.03"/><circle class="cls-64" cx="138.52" cy="593.89" r="30.08"/><circle class="cls-283" cx="142.16" cy="587.09" r="30.13"/><circle class="cls-69" cx="145.76" cy="580.59" r="30.18"/><circle class="cls-277" cx="149.3" cy="574.4" r="30.22"/><circle class="cls-292" cx="152.8" cy="568.5" r="30.27"/><circle class="cls-294" cx="156.25" cy="562.9" r="30.32"/><circle class="cls-266" cx="159.65" cy="557.59" r="30.37"/><circle class="cls-252" cx="163.01" cy="552.56" r="30.42"/><circle class="cls-249" cx="166.32" cy="547.81" r="30.47"/><circle class="cls-261" cx="169.58" cy="543.33" r="30.52"/><circle class="cls-247" cx="172.8" cy="539.12" r="30.57"/><circle class="cls-323" cx="175.97" cy="535.17" r="30.62"/><circle class="cls-322" cx="179.09" cy="531.48" r="30.67"/><circle class="cls-284" cx="182.17" cy="528.04" r="30.72"/><circle class="cls-125" cx="185.21" cy="524.86" r="30.76"/><circle class="cls-126" cx="188.2" cy="521.91" r="30.81"/><circle class="cls-158" cx="191.15" cy="519.2" r="30.86"/><circle class="cls-136" cx="194.06" cy="516.73" r="30.91"/><circle class="cls-141" cx="196.93" cy="514.48" r="30.96"/><circle class="cls-146" cx="199.75" cy="512.46" r="31.01"/><circle class="cls-130" cx="202.53" cy="510.65" r="31.06"/><circle class="cls-133" cx="205.27" cy="509.06" r="31.11"/><circle class="cls-190" cx="207.97" cy="507.68" r="31.16"/><circle class="cls-192" cx="210.64" cy="506.49" r="31.21"/><circle class="cls-171" cx="213.26" cy="505.51" r="31.26"/><circle class="cls-222" cx="215.84" cy="504.72" r="31.31"/><circle class="cls-208" cx="218.38" cy="504.11" r="31.35"/><circle class="cls-211" cx="220.89" cy="503.69" r="31.4"/><circle class="cls-122" cx="223.35" cy="503.45" r="31.45"/><circle class="cls-124" cx="225.78" cy="503.37" r="31.5"/><circle class="cls-164" cx="228.17" cy="503.47" r="31.55"/><circle class="cls-168" cx="230.53" cy="503.73" r="31.6"/><circle class="cls-108" cx="232.85" cy="504.14" r="31.65"/><circle class="cls-112" cx="235.13" cy="504.71" r="31.7"/><circle class="cls-116" cx="237.38" cy="505.43" r="31.75"/><circle class="cls-120" cx="239.6" cy="506.28" r="31.8"/><circle class="cls-178" cx="241.78" cy="507.28" r="31.85"/><circle class="cls-182" cx="243.92" cy="508.4" r="31.9"/><circle class="cls-214" cx="246.04" cy="509.66" r="31.94"/><circle class="cls-216" cx="248.12" cy="511.03" r="31.99"/><circle class="cls-173" cx="250.16" cy="512.53" r="32.04"/><circle class="cls-177" cx="252.18" cy="514.13" r="32.09"/><circle class="cls-153" cx="254.16" cy="515.85" r="32.14"/><circle class="cls-157" cx="256.11" cy="517.66" r="32.19"/><circle class="cls-170" cx="258.03" cy="519.57" r="32.24"/><circle class="cls-167" cx="259.92" cy="521.57" r="32.29"/><circle class="cls-11" cx="261.79" cy="523.66" r="32.34"/><circle class="cls-15" cx="263.62" cy="525.84" r="32.39"/><circle class="cls-7" cx="265.42" cy="528.08" r="32.44"/><circle class="cls-38" cx="267.19" cy="530.41" r="32.49"/><circle class="cls-14" cx="241.46" cy="507.12" r="32.53"/><circle class="cls-13" cx="270.69" cy="535.28" r="32.74"/><circle class="cls-37" cx="272.4" cy="537.83" r="32.94"/><circle class="cls-12" cx="274.09" cy="540.43" r="33.15"/><circle class="cls-6" cx="275.76" cy="543.08" r="33.35"/><circle class="cls-5" cx="277.39" cy="545.77" r="33.56"/><circle class="cls-17" cx="279" cy="548.5" r="33.76"/><circle class="cls-16" cx="280.59" cy="551.26" r="33.97"/><circle class="cls-9" cx="282.15" cy="554.05" r="34.17"/><circle class="cls-10" cx="283.68" cy="556.85" r="34.38"/><circle class="cls-8" cx="285.19" cy="559.68" r="34.58"/><circle class="cls-165" cx="286.67" cy="562.51" r="34.79"/><circle class="cls-166" cx="288.14" cy="565.36" r="34.99"/><circle class="cls-169" cx="289.58" cy="568.2" r="35.19"/><circle class="cls-163" cx="290.99" cy="571.03" r="35.4"/><circle class="cls-155" cx="292.39" cy="573.86" r="35.6"/><circle class="cls-154" cx="293.76" cy="576.67" r="35.81"/><circle class="cls-148" cx="295.11" cy="579.46" r="36.01"/><circle class="cls-152" cx="296.44" cy="582.22" r="36.22"/><circle class="cls-149" cx="297.75" cy="584.96" r="36.42"/><circle class="cls-176" cx="299.05" cy="587.65" r="36.63"/><circle class="cls-156" cx="300.32" cy="590.31" r="36.83"/><circle class="cls-151" cx="301.57" cy="592.91" r="37.04"/><circle class="cls-150" cx="302.81" cy="595.47" r="37.24"/><circle class="cls-175" cx="304.02" cy="597.97" r="37.45"/><circle class="cls-174" cx="305.22" cy="600.4" r="37.65"/><circle class="cls-218" cx="306.4" cy="602.76" r="37.86"/><circle class="cls-219" cx="307.57" cy="605.06" r="38.06"/><circle class="cls-217" cx="308.72" cy="607.27" r="38.26"/><circle class="cls-188" cx="309.86" cy="609.4" r="38.47"/><circle class="cls-189" cx="310.98" cy="611.44" r="38.67"/><circle class="cls-184" cx="312.08" cy="613.38" r="38.88"/><circle class="cls-183" cx="313.17" cy="615.23" r="39.08"/><circle class="cls-181" cx="314.25" cy="616.96" r="39.29"/><circle class="cls-180" cx="315.31" cy="618.59" r="39.49"/><circle class="cls-179" cx="316.36" cy="620.11" r="39.7"/><circle class="cls-117" cx="317.4" cy="621.5" r="39.9"/><circle class="cls-162" cx="318.43" cy="622.76" r="40.11"/><circle class="cls-113" cx="319.45" cy="623.9" r="40.31"/><circle class="cls-118" cx="320.45" cy="624.89" r="40.52"/><circle class="cls-115" cx="321.44" cy="625.75" r="40.72"/><circle class="cls-114" cx="322.43" cy="626.45" r="40.92"/><circle class="cls-110" cx="323.4" cy="627.01" r="41.13"/><circle class="cls-109" cx="324.37" cy="627.4" r="41.33"/><circle class="cls-111" cx="325.33" cy="627.64" r="41.54"/><circle class="cls-172" cx="326.29" cy="627.7" r="41.74"/><circle class="cls-123" cx="327.35" cy="627.62" r="41.95"/><circle class="cls-119" cx="328.44" cy="627.43" r="42.15"/><circle class="cls-121" cx="329.56" cy="627.11" r="42.36"/><circle class="cls-213" cx="330.72" cy="626.68" r="42.56"/><circle class="cls-210" cx="331.9" cy="626.14" r="42.77"/><circle class="cls-207" cx="333.12" cy="625.49" r="42.97"/><circle class="cls-206" cx="334.37" cy="624.73" r="43.18"/><circle class="cls-209" cx="335.65" cy="623.86" r="43.38"/><circle class="cls-223" cx="336.96" cy="622.89" r="43.59"/><circle class="cls-224" cx="338.31" cy="621.82" r="43.79"/><circle class="cls-221" cx="339.69" cy="620.64" r="43.99"/><circle class="cls-220" cx="341.1" cy="619.38" r="44.2"/><circle class="cls-191" cx="342.54" cy="618.01" r="44.4"/><circle class="cls-193" cx="344.01" cy="616.56" r="44.61"/><circle class="cls-187" cx="345.51" cy="615.01" r="44.81"/><circle class="cls-185" cx="347.05" cy="613.38" r="45.02"/><circle class="cls-186" cx="348.61" cy="611.66" r="45.22"/><circle class="cls-132" cx="350.21" cy="609.86" r="45.43"/><circle class="cls-131" cx="351.84" cy="607.97" r="45.63"/><circle class="cls-128" cx="353.5" cy="606.01" r="45.84"/><circle class="cls-129" cx="355.19" cy="603.97" r="46.04"/><circle class="cls-147" cx="356.92" cy="601.86" r="46.25"/><circle class="cls-145" cx="358.67" cy="599.68" r="46.45"/><circle class="cls-143" cx="360.46" cy="597.42" r="46.66"/><circle class="cls-144" cx="362.28" cy="595.1" r="46.86"/><circle class="cls-142" cx="364.13" cy="592.72" r="47.06"/><circle class="cls-140" cx="366.01" cy="590.27" r="47.27"/><circle class="cls-139" cx="367.92" cy="587.76" r="47.47"/><circle class="cls-134" cx="369.86" cy="585.2" r="47.68"/><circle class="cls-135" cx="371.84" cy="582.58" r="47.88"/><circle class="cls-137" cx="373.84" cy="579.9" r="48.09"/><circle class="cls-138" cx="375.88" cy="577.18" r="48.29"/><circle class="cls-127" cx="377.95" cy="574.4" r="48.5"/><circle class="cls-107" cx="380.04" cy="571.58" r="48.7"/><circle class="cls-106" cx="382.17" cy="568.71" r="48.91"/><circle class="cls-274" cx="384.34" cy="565.81" r="49.11"/><circle class="cls-270" cx="386.53" cy="562.86" r="49.32"/><circle class="cls-290" cx="388.75" cy="559.88" r="49.52"/><circle class="cls-289" cx="391.01" cy="556.86" r="49.72"/><circle class="cls-325" cx="393.29" cy="553.8" r="49.93"/><circle class="cls-324" cx="395.61" cy="550.72" r="50.13"/><circle class="cls-263" cx="397.95" cy="547.61" r="50.34"/><circle class="cls-260" cx="400.33" cy="544.47" r="50.54"/><circle class="cls-262" cx="402.74" cy="541.31" r="50.75"/><circle class="cls-251" cx="405.18" cy="538.13" r="50.95"/><circle class="cls-250" cx="407.65" cy="534.93" r="51.16"/><circle class="cls-254" cx="410.15" cy="531.72" r="51.36"/><circle class="cls-253" cx="412.68" cy="528.48" r="51.57"/><circle class="cls-267" cx="415.25" cy="525.24" r="51.77"/><circle class="cls-268" cx="417.84" cy="521.99" r="51.98"/><circle class="cls-269" cx="420.47" cy="518.73" r="52.18"/><circle class="cls-256" cx="423.12" cy="515.46" r="52.39"/><circle class="cls-257" cx="425.81" cy="512.19" r="52.59"/><circle class="cls-298" cx="428.52" cy="508.92" r="52.79"/><circle class="cls-297" cx="431.27" cy="505.65" r="53"/><circle class="cls-279" cx="434.05" cy="502.39" r="53.2"/><circle class="cls-278" cx="436.86" cy="499.13" r="53.41"/><circle class="cls-74" cx="439.69" cy="495.88" r="53.61"/><circle class="cls-75" cx="442.56" cy="492.64" r="53.82"/><circle class="cls-285" cx="445.46" cy="489.42" r="54.02"/><circle class="cls-67" cx="448.39" cy="486.2" r="54.23"/><circle class="cls-68" cx="451.35" cy="483.01" r="54.43"/><circle class="cls-63" cx="454.35" cy="479.84" r="54.64"/><circle class="cls-66" cx="457.37" cy="476.69" r="54.84"/><circle class="cls-73" cx="460.42" cy="473.56" r="55.05"/><circle class="cls-72" cx="463.5" cy="470.46" r="55.25"/><circle class="cls-273" cx="466.61" cy="467.39" r="55.45"/><circle class="cls-271" cx="469.76" cy="464.36" r="55.66"/><circle class="cls-272" cx="472.93" cy="461.35" r="55.86"/><circle class="cls-196" cx="476.13" cy="458.38" r="56.07"/><circle class="cls-197" cx="479.37" cy="455.45" r="56.27"/><circle class="cls-204" cx="482.63" cy="452.56" r="56.48"/><circle class="cls-201" cx="485.92" cy="449.71" r="56.68"/><circle class="cls-199" cx="489.25" cy="446.91" r="56.89"/><circle class="cls-198" cx="492.6" cy="444.16" r="57.09"/><circle class="cls-281" cx="495.99" cy="441.45" r="57.3"/><circle class="cls-280" cx="499.4" cy="438.8" r="57.5"/></g><rect class="cls-330" x=".1" y=".3" width="499.3" height="727.4"/><rect class="cls-329" x=".1" y=".3" width="499.3" height="727.4"/></g></svg>