<?xml version="1.0" encoding="UTF-8"?><svg id="Livello_1" xmlns="http://www.w3.org/2000/svg" xmlns:xlink="http://www.w3.org/1999/xlink" viewBox="0 0 1280 846.76"><defs><style>.cls-1,.cls-2{fill:none;}.cls-3{clip-path:url(#clippath);}.cls-4{fill:url(#Sfumatura_senza_nome);}.cls-5{fill:#6a6bff;}.cls-6{fill:#026bfc;}.cls-7{fill:#026afd;}.cls-8{fill:#0266ff;}.cls-9{fill:#0470fa;}.cls-10{fill:#046efb;}.cls-11{fill:#046ffa;}.cls-12{fill:#0466ff;}.cls-13{fill:#0169fd;}.cls-14{fill:#0067fe;}.cls-15{fill:#06f;}.cls-16{fill:#0366ff;}.cls-17{fill:#036dfb;}.cls-18{fill:#036cfc;}.cls-19{fill:#696bff;}.cls-20{fill:#686bff;}.cls-21{fill:#676bff;}.cls-22{fill:#926eff;}.cls-23{fill:#6b6cff;}.cls-24{fill:#746cff;}.cls-25{fill:#816dff;}.cls-26{fill:#826dff;}.cls-27{fill:#7f6dff;}.cls-28{fill:#736cff;}.cls-29{fill:#656bff;}.cls-30{fill:#996eff;}.cls-31{fill:#976eff;}.cls-32{fill:#9a6eff;}.cls-33{fill:#7e6dff;}.cls-34{fill:#986eff;}.cls-35{fill:#6c6cff;}.cls-36{fill:#806dff;}.cls-37{fill:#7d6cff;}.cls-38{fill:#0168fe;}.cls-39{fill:#0166ff;}.cls-40{fill:#8b6dff;}.cls-41{fill:#a26eff;}.cls-42{fill:#a06eff;}.cls-43{fill:#a16eff;}.cls-44{fill:#9f6eff;}.cls-45{fill:#856dff;}.cls-46{fill:#946eff;}.cls-47{fill:#866dff;}.cls-48{fill:#c270ff;}.cls-49{fill:#b56fff;}.cls-50{fill:#b66fff;}.cls-51{fill:#b870ff;}.cls-52{fill:#b970ff;}.cls-53{fill:#9e6eff;}.cls-54{fill:#9d6eff;}.cls-55{fill:#8c6dff;}.cls-56{fill:#ba70ff;}.cls-57{fill:#8d6dff;}.cls-58{fill:#906dff;}.cls-59{fill:#c370ff;}.cls-60{fill:#b46fff;}.cls-61{fill:#916dff;}.cls-62{fill:#b76fff;}.cls-63{fill:#666bff;}.cls-64{fill:#30d1c4;}.cls-65{fill:#3269ff;}.cls-66{fill:#bb70ff;}.cls-67{fill:#30d2c3;}.cls-68{fill:#2fcfc5;}.cls-69{fill:#2fd0c4;}.cls-70{fill:#3068ff;}.cls-71{fill:#8e6dff;}.cls-72{fill:#3369ff;}.cls-73{fill:#31d4c2;}.cls-74{fill:#31d3c3;}.cls-75{fill:#2eccc6;}.cls-76{fill:#2ecdc6;}.cls-77{fill:#8f6dff;}.cls-78{fill:#936eff;}.cls-79{fill:#ce71ff;}.cls-80{fill:#cf71ff;}.cls-81{fill:#d071ff;}.cls-82{fill:#b26fff;}.cls-83{fill:#ac6fff;}.cls-84{fill:#a96fff;}.cls-85{fill:#a56fff;}.cls-86{fill:#aa6fff;}.cls-87{fill:#b16fff;}.cls-88{fill:#ae6fff;}.cls-89{fill:#b36fff;}.cls-90{fill:#a66fff;}.cls-91{fill:#af6fff;}.cls-92{fill:#bc70ff;}.cls-93{fill:#bd70ff;}.cls-94{fill:#a76fff;}.cls-95{fill:#bf70ff;}.cls-96{fill:#be70ff;}.cls-97{fill:#c070ff;}.cls-98{fill:#ab6fff;}.cls-99{fill:#c170ff;}.cls-100{fill:#cd71ff;}.cls-101{fill:#c470ff;}.cls-102{fill:#cb70ff;}.cls-103{fill:#c670ff;}.cls-104{fill:#ca70ff;}.cls-105{fill:#d171ff;}.cls-106{fill:#cc71ff;}.cls-107{fill:#d371ff;}.cls-108{fill:#d271ff;}.cls-109{fill:#c570ff;}.cls-110{fill:#c770ff;}.cls-111{fill:#d471ff;}.cls-112{fill:#b06fff;}.cls-113{fill:#ad6fff;}.cls-114{fill:#c870ff;}.cls-115{fill:#d571ff;}.cls-116{fill:#c970ff;}.cls-117{fill:#a86fff;}.cls-118{fill:#23b5d3;}.cls-119{fill:#23b4d4;}.cls-120{fill:#1267ff;}.cls-121{fill:#1391e7;}.cls-122{fill:#1390e8;}.cls-123{fill:#1392e7;}.cls-124{fill:#1167ff;}.cls-125{fill:#118cea;}.cls-126{fill:#128fe8;}.cls-127{fill:#128ee9;}.cls-128{fill:#1067ff;}.cls-129{fill:#108aeb;}.cls-130{fill:#118dea;}.cls-131{fill:#1595e5;}.cls-132{fill:#0f67ff;}.cls-133{fill:#1596e5;}.cls-134{fill:#1667ff;}.cls-135{fill:#1494e6;}.cls-136{fill:#1567ff;}.cls-137{fill:#2468ff;}.cls-138{fill:#2368ff;}.cls-139{fill:#23b3d4;}.cls-140{fill:#1da6db;}.cls-141{fill:#1da7db;}.cls-142{fill:#1e68ff;}.cls-143{fill:#1ca5dc;}.cls-144{fill:#1ca4dc;}.cls-145{fill:#1d67ff;}.cls-146{fill:#21afd6;}.cls-147{fill:#21b0d6;}.cls-148{fill:#2168ff;}.cls-149{fill:#22b1d5;}.cls-150{fill:#22b2d5;}.cls-151{fill:#20aed7;}.cls-152{fill:#20add7;}.cls-153{fill:#2068ff;}.cls-154{fill:#1facd8;}.cls-155{fill:#1faad9;}.cls-156{fill:#1fabd9;}.cls-157{fill:#1ea9da;}.cls-158{fill:#1f68ff;}.cls-159{fill:#1ea8da;}.cls-160{fill:#0877f6;}.cls-161{fill:#0879f5;}.cls-162{fill:#0a7df2;}.cls-163{fill:#0a7cf3;}.cls-164{fill:#0878f5;}.cls-165{fill:#0866ff;}.cls-166{fill:#0776f6;}.cls-167{fill:#0775f7;}.cls-168{fill:#097bf3;}.cls-169{fill:#0766ff;}.cls-170{fill:#2268ff;}.cls-171{fill:#4169ff;}.cls-172{fill:#4269ff;}.cls-173{fill:#3f69ff;}.cls-174{fill:#108beb;}.cls-175{fill:#0674f7;}.cls-176{fill:#1467ff;}.cls-177{fill:#0571f9;}.cls-178{fill:#0572f8;}.cls-179{fill:#0566ff;}.cls-180{fill:#1367ff;}.cls-181{fill:#0673f8;}.cls-182{fill:#0666ff;}.cls-183{fill:#1a67ff;}.cls-184{fill:#1493e6;}.cls-185{fill:#0a67ff;}.cls-186{fill:#0b7ff1;}.cls-187{fill:#0b7ef2;}.cls-188{fill:#097af4;}.cls-189{fill:#0966ff;}.cls-190{fill:#0e67ff;}.cls-191{fill:#0f89ec;}.cls-192{fill:#0f88ec;}.cls-193{fill:#0f87ed;}.cls-194{fill:#0d67ff;}.cls-195{fill:#0e86ed;}.cls-196{fill:#0e85ee;}.cls-197{fill:#1ba3de;}.cls-198{fill:#1ba3dd;}.cls-199{fill:#1ba2de;}.cls-200{fill:#0d83ef;}.cls-201{fill:#0d84ef;}.cls-202{fill:#1c67ff;}.cls-203{fill:#1aa0df;}.cls-204{fill:#1b67ff;}.cls-205{fill:#1aa1df;}.cls-206{fill:#4069ff;}.cls-207{fill:#3669ff;}.cls-208{fill:#33d8c0;}.cls-209{fill:#33d9bf;}.cls-210{fill:#35ddbd;}.cls-211{fill:#35dcbe;}.cls-212{fill:#3769ff;}.cls-213{fill:#34dbbe;}.cls-214{fill:#4369ff;}.cls-215{fill:#3569ff;}.cls-216{fill:#34dabf;}.cls-217{fill:#446aff;}.cls-218{fill:#179ae2;}.cls-219{fill:#1799e3;}.cls-220{fill:#1867ff;}.cls-221{fill:#179be2;}.cls-222{fill:#1698e4;}.cls-223{fill:#1767ff;}.cls-224{fill:#3e69ff;}.cls-225{fill:#1697e4;}.cls-226{fill:#0c67ff;}.cls-227{fill:#3d69ff;}.cls-228{fill:#0b67ff;}.cls-229{fill:#0c82f0;}.cls-230{fill:#0c80f1;}.cls-231{fill:#0c81f0;}.cls-232{fill:#199fe0;}.cls-233{fill:#199ee0;}.cls-234{fill:#1967ff;}.cls-235{fill:#189ce1;}.cls-236{fill:#189de1;}.cls-237{fill:#956eff;}.cls-238{fill:#a46eff;}.cls-239{fill:#9c6eff;}.cls-240{fill:#6e6cff;}.cls-241{fill:#6f6cff;}.cls-242{fill:#726cff;}.cls-243{fill:#a36eff;}.cls-244{fill:#966eff;}.cls-245{fill:#466aff;}.cls-246{fill:#536aff;}.cls-247{fill:#876dff;}.cls-248{fill:#8a6dff;}.cls-249{fill:#896dff;}.cls-250{fill:#6d6cff;}.cls-251{fill:#886dff;}.cls-252{fill:#9b6eff;}.cls-253{fill:#706cff;}.cls-254{fill:#556aff;}.cls-255{fill:#646bff;}.cls-256{fill:#636bff;}.cls-257{fill:#626bff;}.cls-258{fill:#5a6bff;}.cls-259{fill:#2868ff;}.cls-260{fill:#586bff;}.cls-261{fill:#2a68ff;}.cls-262{fill:#28c0cd;}.cls-263{fill:#28bfce;}.cls-264{fill:#2b68ff;}.cls-265{fill:#29c2cc;}.cls-266{fill:#29c1cc;}.cls-267{fill:#566aff;}.cls-268{fill:#2bc6ca;}.cls-269{fill:#2bc7c9;}.cls-270{fill:#5c6bff;}.cls-271{fill:#4a6aff;}.cls-272{fill:#27bdcf;}.cls-273{fill:#2968ff;}.cls-274{fill:#27bece;}.cls-275{fill:#27bccf;}.cls-276{fill:#486aff;}.cls-277{fill:#476aff;}.cls-278{fill:#2c68ff;}.cls-279{fill:#2ac3cb;}.cls-280{fill:#2ac4cb;}.cls-281{fill:#2ac5ca;}.cls-282{fill:#24b7d2;}.cls-283{fill:#32d6c1;}.cls-284{fill:#32d7c0;}.cls-285{fill:#32d5c1;}.cls-286{fill:#24b6d3;}.cls-287{fill:#5b6bff;}.cls-288{fill:#3969ff;}.cls-289{fill:#2f68ff;}.cls-290{fill:#2dcbc7;}.cls-291{fill:#2dcac8;}.cls-292{fill:#36dfbc;}.cls-293{fill:#36debd;}.cls-294{fill:#3869ff;}.cls-295{fill:#3169ff;}.cls-296{fill:#2568ff;}.cls-297{fill:#2ecec5;}.cls-298{fill:#3a69ff;}.cls-299{fill:#3b69ff;}.cls-300{fill:#3469ff;}.cls-301{fill:#25b9d1;}.cls-302{fill:#25b8d1;}.cls-303{fill:#596bff;}.cls-304{fill:#2e68ff;}.cls-305{fill:#576aff;}.cls-306{fill:#2d68ff;}.cls-307{fill:#3c69ff;}.cls-308{fill:#846dff;}.cls-309{fill:#2cc9c8;}.cls-310{fill:#2cc8c9;}.cls-311{fill:#4c6aff;}.cls-312{fill:#616bff;}.cls-313{fill:#496aff;}.cls-314{fill:#5f6bff;}.cls-315{fill:#5e6bff;}.cls-316{fill:#546aff;}.cls-317{fill:#456aff;}.cls-318{fill:#756cff;}.cls-319{fill:#776cff;}.cls-320{fill:#606bff;}.cls-321{fill:#796cff;}.cls-322{fill:#7a6cff;}.cls-323{fill:#4b6aff;}.cls-324{fill:#5d6bff;}.cls-325{fill:#716cff;}.cls-326{fill:#526aff;}.cls-327{fill:#786cff;}.cls-328{fill:#506aff;}.cls-329{fill:#4f6aff;}.cls-330{fill:#766cff;}.cls-331{fill:#836dff;}.cls-332{fill:#4d6aff;}.cls-333{fill:#7c6cff;}.cls-334{fill:#2668ff;}.cls-335{fill:#2768ff;}.cls-336{fill:#26bbd0;}.cls-337{fill:#26bad0;}.cls-338{fill:#516aff;}.cls-339{fill:#7b6cff;}.cls-340{fill:#4e6aff;}.cls-341{fill:url(#Sfumatura_senza_nome_2);}.cls-342{clip-path:url(#clippath-1);}.cls-343{clip-path:url(#clippath-3);}.cls-344{clip-path:url(#clippath-2);}.cls-2{stroke:#caddfa;stroke-miterlimit:10;}</style><clipPath id="clippath"><rect class="cls-1" width="1280" height="846.76"/></clipPath><clipPath id="clippath-1"><rect class="cls-1" y="439.76" width="1280" height="407"/></clipPath><clipPath id="clippath-2"><rect class="cls-1" y="34.69" width="1280" height="407"/></clipPath><clipPath id="clippath-3"><rect class="cls-1" y="-370.51" width="1280" height="407"/></clipPath><radialGradient id="Sfumatura_senza_nome" cx=".45" cy="187.24" fx=".45" fy="187.24" r="1" gradientTransform="translate(218970.04 1464.05) rotate(-90) scale(1346.08 -1166.04)" gradientUnits="userSpaceOnUse"><stop offset="0" stop-color="#fff" stop-opacity="0"/><stop offset="1" stop-color="#bbd6ff"/></radialGradient><linearGradient id="Sfumatura_senza_nome_2" x1="640" y1="-615.76" x2="640" y2="231" gradientTransform="translate(0 231) scale(1 -1)" gradientUnits="userSpaceOnUse"><stop offset="0" stop-color="#fff"/><stop offset="1" stop-color="#fff" stop-opacity="0"/></linearGradient></defs><g class="cls-3"><g><g class="cls-342"><g><path class="cls-2" d="M1280,439.76H1v405H1280V439.76Z"/><path class="cls-2" d="M1142,438.76v406h22.8V438.76h22.8v406h22.8V438.76h22.8v406h22.8V438.76h22.8v203H0v-22.6H1279v-22.6H0v-22.6H1279v-22.6H0v-22.4H1279v-22.5H0v-22.6H1279v-22.5H0v-22.6H22.8v406h22.8V438.76h22.8v406h22.8V438.76h22.8v406h23V438.76h22.8v406h159.9V438.76h-22.8v406h-22.8V438.76h-22.8v406h-22.8V438.76h-22.8v406h-22.8V438.76h159.9v406h22.8V438.76h22.8v406h22.8V438.76h22.8v406h22.8V438.76h22.8v406h159.9V438.76h-22.8v406h-22.8V438.76h-22.9v406h-22.8V438.76h-22.8v406h-22.8V438.76h159.9v406h22.8V438.76h22.7v406h22.8V438.76h22.8v406h22.8V438.76h22.8v406h159.9V438.76h-22.8v406h-22.8V438.76h-22.8v406h-22.8V438.76h-22.9v406h-22.8V438.76h159.9v406h22.8V438.76h22.8v406h22.8V438.76h22.8v406h22.8V438.76h22.8v406H0v-22.6H1279v-22.6H0v-22.6H1279v-22.6H0v-22.6H1279v-22.6H0v-22.6H1279v-22.6H0v-225.2H1142Z"/></g></g><g class="cls-344"><g><path class="cls-2" d="M1280,34.69H1V439.69H1280V34.69Z"/><path class="cls-2" d="M1142,33.69V439.69h22.8V33.69h22.8V439.69h22.8V33.69h22.8V439.69h22.8V33.69h22.8V236.69H0v-22.6H1279v-22.6H0v-22.6H1279v-22.6H0v-22.4H1279v-22.5H0v-22.6H1279v-22.5H0v-22.6H22.8V439.69h22.8V33.69h22.8V439.69h22.8V33.69h22.8V439.69h23V33.69h22.8V439.69h159.9V33.69h-22.8V439.69h-22.8V33.69h-22.8V439.69h-22.8V33.69h-22.8V439.69h-22.8V33.69h159.9V439.69h22.8V33.69h22.8V439.69h22.8V33.69h22.8V439.69h22.8V33.69h22.8V439.69h159.9V33.69h-22.8V439.69h-22.8V33.69h-22.9V439.69h-22.8V33.69h-22.8V439.69h-22.8V33.69h159.9V439.69h22.8V33.69h22.7V439.69h22.8V33.69h22.8V439.69h22.8V33.69h22.8V439.69h159.9V33.69h-22.8V439.69h-22.8V33.69h-22.8V439.69h-22.8V33.69h-22.9V439.69h-22.8V33.69h159.9V439.69h22.8V33.69h22.8V439.69h22.8V33.69h22.8V439.69h22.8V33.69h22.8V439.69H0v-22.6H1279v-22.6H0v-22.6H1279v-22.6H0v-22.6H1279v-22.6H0v-22.6H1279v-22.6H0V33.69H1142Z"/></g></g><g class="cls-343"><g><path class="cls-2" d="M1280-370.51H1V34.49H1280V-370.51Z"/><path class="cls-2" d="M1142-371.51V34.49h22.8V-371.51h22.8V34.49h22.8V-371.51h22.8V34.49h22.8V-371.51h22.8V-168.51H0v-22.6H1279v-22.6H0v-22.6H1279v-22.6H0v-22.4H1279v-22.5H0v-22.6H1279v-22.5H0v-22.6H22.8V34.49h22.8V-371.51h22.8V34.49h22.8V-371.51h22.8V34.49h23V-371.51h22.8V34.49h159.9V-371.51h-22.8V34.49h-22.8V-371.51h-22.8V34.49h-22.8V-371.51h-22.8V34.49h-22.8V-371.51h159.9V34.49h22.8V-371.51h22.8V34.49h22.8V-371.51h22.8V34.49h22.8V-371.51h22.8V34.49h159.9V-371.51h-22.8V34.49h-22.8V-371.51h-22.9V34.49h-22.8V-371.51h-22.8V34.49h-22.8V-371.51h159.9V34.49h22.8V-371.51h22.7V34.49h22.8V-371.51h22.8V34.49h22.8V-371.51h22.8V34.49h159.9V-371.51h-22.8V34.49h-22.8V-371.51h-22.8V34.49h-22.8V-371.51h-22.9V34.49h-22.8V-371.51h159.9V34.49h22.8V-371.51h22.8V34.49h22.8V-371.51h22.8V34.49h22.8V-371.51h22.8V34.49H0V11.89H1279V-10.71H0v-22.6H1279v-22.6H0v-22.6H1279v-22.6H0v-22.6H1279v-22.6H0v-225.2H1142Z"/></g></g><g><circle class="cls-115" cx="-18.85" cy="396.03" r="22.07"/><circle class="cls-111" cx="-13.84" cy="385.42" r="22.24"/><circle class="cls-107" cx="-8.8" cy="374.95" r="22.42"/><circle class="cls-108" cx="-3.72" cy="364.62" r="22.6"/><circle class="cls-105" cx="1.38" cy="354.43" r="22.77"/><circle class="cls-81" cx="6.52" cy="344.39" r="22.95"/><circle class="cls-80" cx="11.67" cy="334.49" r="23.13"/><circle class="cls-79" cx="16.85" cy="324.75" r="23.31"/><circle class="cls-100" cx="22.03" cy="315.16" r="23.48"/><circle class="cls-106" cx="27.23" cy="305.74" r="23.66"/><circle class="cls-102" cx="32.43" cy="296.48" r="23.84"/><circle class="cls-104" cx="37.63" cy="287.38" r="24.01"/><circle class="cls-116" cx="42.83" cy="278.45" r="24.19"/><circle class="cls-114" cx="48.02" cy="269.7" r="24.37"/><circle class="cls-110" cx="53.19" cy="261.12" r="24.55"/><circle class="cls-103" cx="58.35" cy="252.72" r="24.72"/><circle class="cls-109" cx="63.49" cy="244.5" r="24.9"/><circle class="cls-101" cx="68.61" cy="236.47" r="25.08"/><circle class="cls-59" cx="73.69" cy="228.63" r="25.25"/><circle class="cls-48" cx="78.74" cy="220.98" r="25.43"/><circle class="cls-99" cx="83.75" cy="213.53" r="25.61"/><circle class="cls-97" cx="88.72" cy="206.28" r="25.79"/><circle class="cls-95" cx="93.64" cy="199.23" r="25.96"/><circle class="cls-96" cx="98.51" cy="192.38" r="26.14"/><circle class="cls-93" cx="103.33" cy="185.75" r="26.32"/><circle class="cls-92" cx="108.08" cy="179.33" r="26.49"/><circle class="cls-66" cx="112.77" cy="173.12" r="26.67"/><circle class="cls-56" cx="117.4" cy="167.14" r="26.85"/><circle class="cls-52" cx="121.95" cy="161.37" r="27.03"/><circle class="cls-51" cx="126.42" cy="155.83" r="27.2"/><circle class="cls-62" cx="130.81" cy="150.53" r="27.38"/><circle class="cls-50" cx="135.12" cy="145.45" r="27.56"/><circle class="cls-49" cx="139.33" cy="140.61" r="27.73"/><circle class="cls-60" cx="143.46" cy="136.01" r="27.91"/><circle class="cls-89" cx="147.48" cy="131.65" r="28.09"/><circle class="cls-82" cx="151.4" cy="127.54" r="28.27"/><circle class="cls-87" cx="155.21" cy="123.68" r="28.44"/><circle class="cls-112" cx="158.92" cy="120.07" r="28.62"/><circle class="cls-91" cx="162.5" cy="116.72" r="28.8"/><circle class="cls-88" cx="165.97" cy="113.63" r="28.97"/><circle class="cls-113" cx="169.31" cy="110.8" r="29.15"/><circle class="cls-83" cx="172.53" cy="108.23" r="29.33"/><circle class="cls-98" cx="175.61" cy="105.94" r="29.51"/><circle class="cls-86" cx="178.55" cy="103.91" r="29.68"/><circle class="cls-84" cx="181.36" cy="102.17" r="29.86"/><circle class="cls-117" cx="184.01" cy="100.7" r="30.04"/><circle class="cls-94" cx="186.52" cy="99.51" r="30.21"/><circle class="cls-90" cx="188.87" cy="98.62" r="30.39"/><circle class="cls-85" cx="191.06" cy="98.01" r="30.57"/><circle class="cls-238" cx="193.1" cy="97.69" r="30.75"/><circle class="cls-243" cx="194.96" cy="97.67" r="30.92"/><circle class="cls-41" cx="196.65" cy="97.95" r="31.1"/><circle class="cls-43" cx="198.12" cy="98.51" r="31.28"/><circle class="cls-42" cx="199.21" cy="99.29" r="31.45"/><circle class="cls-44" cx="200.28" cy="100.47" r="31.63"/><circle class="cls-53" cx="201.35" cy="102.05" r="31.81"/><circle class="cls-54" cx="202.4" cy="104" r="31.99"/><circle class="cls-239" cx="203.45" cy="106.34" r="32.16"/><circle class="cls-252" cx="204.49" cy="109.04" r="32.34"/><circle class="cls-32" cx="205.52" cy="112.1" r="32.52"/><circle class="cls-30" cx="206.54" cy="115.51" r="32.69"/><circle class="cls-34" cx="207.55" cy="119.26" r="32.87"/><circle class="cls-31" cx="208.55" cy="123.34" r="33.05"/><circle class="cls-244" cx="209.55" cy="127.75" r="33.23"/><circle class="cls-237" cx="210.54" cy="132.47" r="33.4"/><circle class="cls-46" cx="211.52" cy="137.49" r="33.58"/><circle class="cls-78" cx="212.5" cy="142.82" r="33.76"/><circle class="cls-22" cx="213.47" cy="148.43" r="33.93"/><circle class="cls-61" cx="214.44" cy="154.32" r="34.11"/><circle class="cls-58" cx="215.4" cy="160.49" r="34.29"/><circle class="cls-77" cx="216.35" cy="166.92" r="34.47"/><circle class="cls-71" cx="217.3" cy="173.6" r="34.64"/><circle class="cls-57" cx="218.25" cy="180.52" r="34.82"/><circle class="cls-55" cx="219.19" cy="187.69" r="35"/><circle class="cls-40" cx="220.13" cy="195.08" r="35.17"/><circle class="cls-248" cx="221.06" cy="202.69" r="35.35"/><circle class="cls-249" cx="221.99" cy="210.51" r="35.53"/><circle class="cls-251" cx="222.92" cy="218.53" r="35.71"/><circle class="cls-247" cx="223.85" cy="226.74" r="35.88"/><circle class="cls-47" cx="224.77" cy="235.14" r="36.06"/><circle class="cls-45" cx="225.69" cy="243.72" r="36.24"/><circle class="cls-308" cx="226.61" cy="252.46" r="36.41"/><circle class="cls-331" cx="227.53" cy="261.36" r="36.59"/><circle class="cls-26" cx="228.45" cy="270.41" r="36.77"/><circle class="cls-25" cx="229.37" cy="279.61" r="36.95"/><circle class="cls-36" cx="230.29" cy="288.93" r="37.12"/><circle class="cls-27" cx="231.21" cy="298.38" r="37.3"/><circle class="cls-33" cx="232.13" cy="307.94" r="37.48"/><circle class="cls-37" cx="233.05" cy="317.61" r="37.65"/><circle class="cls-333" cx="233.97" cy="327.37" r="37.83"/><circle class="cls-339" cx="234.89" cy="337.23" r="38.01"/><circle class="cls-322" cx="235.82" cy="347.16" r="38.19"/><circle class="cls-321" cx="236.74" cy="357.17" r="38.36"/><circle class="cls-327" cx="237.67" cy="367.24" r="38.54"/><circle class="cls-319" cx="238.6" cy="377.36" r="38.72"/><circle class="cls-330" cx="239.54" cy="387.53" r="38.89"/><circle class="cls-318" cx="240.48" cy="397.73" r="39.07"/><circle class="cls-24" cx="241.42" cy="407.96" r="39.25"/><circle class="cls-28" cx="242.36" cy="418.22" r="39.43"/><circle class="cls-242" cx="243.31" cy="428.48" r="39.6"/><circle class="cls-325" cx="244.27" cy="438.74" r="39.78"/><circle class="cls-253" cx="245.23" cy="449" r="39.96"/><circle class="cls-241" cx="246.19" cy="459.24" r="40.13"/><circle class="cls-240" cx="247.17" cy="469.46" r="40.31"/><circle class="cls-250" cx="248.14" cy="479.64" r="40.49"/><circle class="cls-35" cx="249.13" cy="489.79" r="40.67"/><circle class="cls-23" cx="250.12" cy="499.88" r="40.84"/><circle class="cls-5" cx="251.12" cy="509.91" r="41.02"/><circle class="cls-19" cx="252.12" cy="519.88" r="41.2"/><circle class="cls-20" cx="253.13" cy="529.77" r="41.37"/><circle class="cls-21" cx="254.15" cy="539.57" r="41.55"/><circle class="cls-63" cx="255.18" cy="549.28" r="41.73"/><circle class="cls-29" cx="256.22" cy="558.89" r="41.91"/><circle class="cls-255" cx="257.27" cy="568.38" r="42.08"/><circle class="cls-256" cx="258.32" cy="577.76" r="42.26"/><circle class="cls-257" cx="259.39" cy="587.01" r="42.44"/><circle class="cls-312" cx="260.46" cy="596.12" r="42.61"/><circle class="cls-320" cx="261.55" cy="605.08" r="42.79"/><circle class="cls-314" cx="262.65" cy="613.89" r="42.97"/><circle class="cls-315" cx="263.75" cy="622.54" r="43.15"/><circle class="cls-324" cx="264.87" cy="631.01" r="43.32"/><circle class="cls-270" cx="266" cy="639.31" r="43.5"/><circle class="cls-287" cx="267.15" cy="647.41" r="43.68"/><circle class="cls-258" cx="268.3" cy="655.32" r="43.85"/><circle class="cls-303" cx="269.47" cy="663.02" r="44.03"/><circle class="cls-260" cx="270.65" cy="670.5" r="44.21"/><circle class="cls-305" cx="271.84" cy="677.76" r="44.39"/><circle class="cls-267" cx="273.05" cy="684.79" r="44.56"/><circle class="cls-254" cx="274.27" cy="691.57" r="44.74"/><circle class="cls-316" cx="275.5" cy="698.11" r="44.92"/><circle class="cls-246" cx="276.75" cy="704.38" r="45.09"/><circle class="cls-326" cx="278.02" cy="710.39" r="45.27"/><circle class="cls-338" cx="279.3" cy="716.12" r="45.45"/><circle class="cls-328" cx="280.59" cy="721.57" r="45.63"/><circle class="cls-329" cx="281.9" cy="726.72" r="45.8"/><circle class="cls-340" cx="283.23" cy="731.57" r="45.98"/><circle class="cls-332" cx="284.57" cy="736.11" r="46.16"/><circle class="cls-311" cx="285.93" cy="740.33" r="46.33"/><circle class="cls-323" cx="287.31" cy="744.22" r="46.51"/><circle class="cls-271" cx="288.71" cy="747.77" r="46.69"/><circle class="cls-313" cx="290.12" cy="750.98" r="46.87"/><circle class="cls-276" cx="291.55" cy="753.83" r="47.04"/><circle class="cls-277" cx="293" cy="756.32" r="47.22"/><circle class="cls-245" cx="294.47" cy="758.44" r="47.4"/><circle class="cls-317" cx="295.96" cy="760.17" r="47.57"/><circle class="cls-217" cx="297.39" cy="761.45" r="47.75"/><circle class="cls-214" cx="298.65" cy="761.86" r="47.93"/><circle class="cls-172" cx="300.35" cy="761.72" r="48.11"/><circle class="cls-171" cx="302.48" cy="761.07" r="48.28"/><circle class="cls-206" cx="305.01" cy="759.91" r="48.46"/><circle class="cls-173" cx="307.94" cy="758.27" r="48.64"/><circle class="cls-224" cx="311.24" cy="756.18" r="48.81"/><circle class="cls-227" cx="314.91" cy="753.65" r="48.99"/><circle class="cls-307" cx="318.91" cy="750.71" r="49.17"/><circle class="cls-299" cx="323.25" cy="747.38" r="49.35"/><circle class="cls-298" cx="327.9" cy="743.68" r="49.52"/><circle class="cls-288" cx="332.85" cy="739.63" r="49.7"/><circle class="cls-294" cx="338.07" cy="735.26" r="49.88"/><circle class="cls-212" cx="343.57" cy="730.58" r="50.06"/><circle class="cls-207" cx="349.31" cy="725.63" r="50.23"/><circle class="cls-215" cx="355.28" cy="720.41" r="50.41"/><circle class="cls-300" cx="361.47" cy="714.96" r="50.59"/><circle class="cls-72" cx="367.87" cy="709.29" r="50.76"/><circle class="cls-65" cx="374.44" cy="703.43" r="50.94"/><circle class="cls-295" cx="381.19" cy="697.4" r="51.12"/><circle class="cls-70" cx="388.1" cy="691.21" r="51.3"/><circle class="cls-289" cx="395.14" cy="684.9" r="51.47"/><circle class="cls-304" cx="402.3" cy="678.49" r="51.65"/><circle class="cls-306" cx="409.57" cy="671.99" r="51.83"/><circle class="cls-278" cx="416.93" cy="665.43" r="52"/><circle class="cls-264" cx="424.36" cy="658.82" r="52.18"/><circle class="cls-261" cx="431.85" cy="652.21" r="52.36"/><circle class="cls-273" cx="439.38" cy="645.59" r="52.54"/><circle class="cls-259" cx="446.94" cy="639" r="52.71"/><circle class="cls-335" cx="454.52" cy="632.46" r="52.89"/><circle class="cls-334" cx="462.08" cy="625.99" r="53.07"/><circle class="cls-296" cx="469.63" cy="619.6" r="53.24"/><circle class="cls-137" cx="477.14" cy="613.34" r="53.42"/><circle class="cls-138" cx="484.59" cy="607.21" r="53.6"/><circle class="cls-170" cx="491.98" cy="601.23" r="53.78"/><circle class="cls-148" cx="499.28" cy="595.44" r="53.95"/><circle class="cls-153" cx="506.49" cy="589.84" r="54.13"/><circle class="cls-158" cx="513.57" cy="584.47" r="54.31"/><circle class="cls-142" cx="520.53" cy="579.35" r="54.48"/><circle class="cls-145" cx="527.33" cy="574.49" r="54.66"/><circle class="cls-202" cx="533.97" cy="569.92" r="54.84"/><circle class="cls-204" cx="540.44" cy="565.66" r="55.02"/><circle class="cls-183" cx="546.7" cy="561.74" r="55.19"/><circle class="cls-234" cx="552.76" cy="558.17" r="55.37"/><circle class="cls-220" cx="558.58" cy="554.97" r="55.55"/><circle class="cls-223" cx="564.17" cy="552.18" r="55.72"/><circle class="cls-134" cx="569.49" cy="549.8" r="55.9"/><circle class="cls-136" cx="574.54" cy="547.87" r="56.08"/><circle class="cls-176" cx="579.3" cy="546.4" r="56.26"/><circle class="cls-180" cx="583.75" cy="545.42" r="56.43"/><circle class="cls-120" cx="587.88" cy="544.95" r="56.61"/><circle class="cls-124" cx="591.71" cy="545.01" r="56.79"/><circle class="cls-128" cx="595.54" cy="545.63" r="56.96"/><circle class="cls-132" cx="599.44" cy="546.8" r="57.14"/><circle class="cls-190" cx="603.4" cy="548.49" r="57.32"/><circle class="cls-194" cx="607.41" cy="550.68" r="57.5"/><circle class="cls-226" cx="611.49" cy="553.35" r="57.67"/><circle class="cls-228" cx="615.63" cy="556.48" r="57.85"/><circle class="cls-185" cx="619.83" cy="560.03" r="58.03"/><circle class="cls-189" cx="624.08" cy="564" r="58.2"/><circle class="cls-165" cx="628.39" cy="568.35" r="58.38"/><circle class="cls-169" cx="632.76" cy="573.05" r="58.56"/><circle class="cls-182" cx="637.18" cy="578.1" r="58.74"/><circle class="cls-179" cx="641.65" cy="583.46" r="58.91"/><circle class="cls-12" cx="646.18" cy="589.12" r="59.09"/><circle class="cls-16" cx="650.76" cy="595.04" r="59.27"/><circle class="cls-8" cx="655.4" cy="601.2" r="59.44"/><circle class="cls-39" cx="660.09" cy="607.59" r="59.62"/><circle class="cls-15" cx="677.05" cy="631.61" r="59.8"/><circle class="cls-14" cx="670.6" cy="622.35" r="60.06"/><circle class="cls-38" cx="676.46" cy="630.74" r="60.32"/><circle class="cls-13" cx="682.38" cy="639.31" r="60.59"/><circle class="cls-7" cx="688.37" cy="648.01" r="60.85"/><circle class="cls-6" cx="694.43" cy="656.79" r="61.11"/><circle class="cls-18" cx="700.56" cy="665.63" r="61.38"/><circle class="cls-17" cx="706.75" cy="674.48" r="61.64"/><circle class="cls-10" cx="713" cy="683.29" r="61.9"/><circle class="cls-11" cx="719.32" cy="692.04" r="62.17"/><circle class="cls-9" cx="725.7" cy="700.67" r="62.43"/><circle class="cls-177" cx="732.13" cy="709.15" r="62.69"/><circle class="cls-178" cx="738.63" cy="717.43" r="62.95"/><circle class="cls-181" cx="745.18" cy="725.47" r="63.22"/><circle class="cls-175" cx="751.78" cy="733.24" r="63.48"/><circle class="cls-167" cx="758.44" cy="740.7" r="63.74"/><circle class="cls-166" cx="765.16" cy="747.79" r="64.01"/><circle class="cls-160" cx="771.92" cy="754.48" r="64.27"/><circle class="cls-164" cx="778.74" cy="760.74" r="64.53"/><circle class="cls-161" cx="785.6" cy="766.51" r="64.8"/><circle class="cls-188" cx="792.51" cy="771.76" r="65.06"/><circle class="cls-168" cx="799.47" cy="776.45" r="65.32"/><circle class="cls-163" cx="806.47" cy="780.53" r="65.58"/><circle class="cls-162" cx="813.52" cy="783.97" r="65.85"/><circle class="cls-187" cx="820.61" cy="786.73" r="66.11"/><circle class="cls-186" cx="827.74" cy="788.76" r="66.37"/><circle class="cls-230" cx="834.91" cy="790.02" r="66.64"/><circle class="cls-231" cx="842.11" cy="790.47" r="66.9"/><circle class="cls-229" cx="845.46" cy="790.29" r="67.16"/><circle class="cls-200" cx="848.69" cy="789.71" r="67.42"/><circle class="cls-201" cx="851.97" cy="788.74" r="67.69"/><circle class="cls-196" cx="855.31" cy="787.39" r="67.95"/><circle class="cls-195" cx="858.7" cy="785.67" r="68.21"/><circle class="cls-193" cx="862.14" cy="783.59" r="68.48"/><circle class="cls-192" cx="865.63" cy="781.14" r="68.74"/><circle class="cls-191" cx="869.17" cy="778.35" r="69"/><circle class="cls-129" cx="872.76" cy="775.21" r="69.27"/><circle class="cls-174" cx="876.39" cy="771.74" r="69.53"/><circle class="cls-125" cx="880.07" cy="767.94" r="69.79"/><circle class="cls-130" cx="883.79" cy="763.83" r="70.05"/><circle class="cls-127" cx="887.55" cy="759.4" r="70.32"/><circle class="cls-126" cx="891.35" cy="754.66" r="70.58"/><circle class="cls-122" cx="895.19" cy="749.63" r="70.84"/><circle class="cls-121" cx="899.07" cy="744.31" r="71.11"/><circle class="cls-123" cx="902.99" cy="738.71" r="71.37"/><circle class="cls-184" cx="906.94" cy="732.84" r="71.63"/><circle class="cls-135" cx="910.93" cy="726.7" r="71.9"/><circle class="cls-131" cx="914.95" cy="720.3" r="72.16"/><circle class="cls-133" cx="919.01" cy="713.65" r="72.42"/><circle class="cls-225" cx="923.09" cy="706.75" r="72.68"/><circle class="cls-222" cx="927.21" cy="699.63" r="72.95"/><circle class="cls-219" cx="931.35" cy="692.27" r="73.21"/><circle class="cls-218" cx="935.52" cy="684.69" r="73.47"/><circle class="cls-221" cx="939.71" cy="676.9" r="73.74"/><circle class="cls-235" cx="943.93" cy="668.91" r="74"/><circle class="cls-236" cx="948.17" cy="660.72" r="74.26"/><circle class="cls-233" cx="952.44" cy="652.33" r="74.53"/><circle class="cls-232" cx="956.72" cy="643.77" r="74.79"/><circle class="cls-203" cx="961.03" cy="635.03" r="75.05"/><circle class="cls-205" cx="965.35" cy="626.12" r="75.31"/><circle class="cls-199" cx="969.69" cy="617.06" r="75.58"/><circle class="cls-197" cx="974.05" cy="607.84" r="75.84"/><circle class="cls-198" cx="978.42" cy="598.48" r="76.1"/><circle class="cls-144" cx="982.8" cy="588.98" r="76.37"/><circle class="cls-143" cx="987.19" cy="579.36" r="76.63"/><circle class="cls-140" cx="991.6" cy="569.61" r="76.89"/><circle class="cls-141" cx="996.01" cy="559.75" r="77.16"/><circle class="cls-159" cx="1000.44" cy="549.78" r="77.42"/><circle class="cls-157" cx="1004.87" cy="539.72" r="77.68"/><circle class="cls-155" cx="1009.31" cy="529.56" r="77.94"/><circle class="cls-156" cx="1013.75" cy="519.32" r="78.21"/><circle class="cls-154" cx="1018.19" cy="509.01" r="78.47"/><circle class="cls-152" cx="1022.64" cy="498.63" r="78.73"/><circle class="cls-151" cx="1027.08" cy="488.19" r="79"/><circle class="cls-146" cx="1031.53" cy="477.69" r="79.26"/><circle class="cls-147" cx="1035.97" cy="467.15" r="79.52"/><circle class="cls-149" cx="1040.41" cy="456.57" r="79.79"/><circle class="cls-150" cx="1044.85" cy="445.97" r="80.05"/><circle class="cls-139" cx="1049.28" cy="435.34" r="80.31"/><circle class="cls-119" cx="1053.7" cy="424.7" r="80.57"/><circle class="cls-118" cx="1058.12" cy="414.05" r="80.84"/><circle class="cls-286" cx="1062.53" cy="403.4" r="81.1"/><circle class="cls-282" cx="1066.92" cy="392.76" r="81.36"/><circle class="cls-302" cx="1071.31" cy="382.13" r="81.63"/><circle class="cls-301" cx="1075.68" cy="371.53" r="81.89"/><circle class="cls-337" cx="1080.03" cy="360.96" r="82.15"/><circle class="cls-336" cx="1084.37" cy="350.43" r="82.42"/><circle class="cls-275" cx="1088.7" cy="339.95" r="82.68"/><circle class="cls-272" cx="1093" cy="329.52" r="82.94"/><circle class="cls-274" cx="1097.29" cy="319.15" r="83.2"/><circle class="cls-263" cx="1101.56" cy="308.86" r="83.47"/><circle class="cls-262" cx="1105.8" cy="298.64" r="83.73"/><circle class="cls-266" cx="1110.02" cy="288.5" r="83.99"/><circle class="cls-265" cx="1114.22" cy="278.46" r="84.26"/><circle class="cls-279" cx="1118.39" cy="268.51" r="84.52"/><circle class="cls-280" cx="1122.53" cy="258.68" r="84.78"/><circle class="cls-281" cx="1126.64" cy="248.96" r="85.04"/><circle class="cls-268" cx="1130.73" cy="239.36" r="85.31"/><circle class="cls-269" cx="1134.79" cy="229.89" r="85.57"/><circle class="cls-310" cx="1138.81" cy="220.56" r="85.83"/><circle class="cls-309" cx="1142.8" cy="211.38" r="86.1"/><circle class="cls-291" cx="1146.75" cy="202.35" r="86.36"/><circle class="cls-290" cx="1150.67" cy="193.48" r="86.62"/><circle class="cls-75" cx="1154.56" cy="184.78" r="86.89"/><circle class="cls-76" cx="1158.4" cy="176.26" r="87.15"/><circle class="cls-297" cx="1162.21" cy="167.92" r="87.41"/><circle class="cls-68" cx="1165.97" cy="159.77" r="87.67"/><circle class="cls-69" cx="1169.69" cy="151.82" r="87.94"/><circle class="cls-64" cx="1173.37" cy="144.08" r="88.2"/><circle class="cls-67" cx="1177.01" cy="136.55" r="88.46"/><circle class="cls-74" cx="1180.59" cy="129.24" r="88.73"/><circle class="cls-73" cx="1184.14" cy="122.17" r="88.99"/><circle class="cls-285" cx="1187.63" cy="115.33" r="89.25"/><circle class="cls-283" cx="1191.07" cy="108.73" r="89.52"/><circle class="cls-284" cx="1194.47" cy="102.39" r="89.78"/><circle class="cls-208" cx="1197.81" cy="96.31" r="90.04"/><circle class="cls-209" cx="1201.09" cy="90.5" r="90.3"/><circle class="cls-216" cx="1204.33" cy="84.96" r="90.57"/><circle class="cls-213" cx="1207.5" cy="79.7" r="90.83"/><circle class="cls-211" cx="1210.62" cy="74.74" r="91.09"/><circle class="cls-210" cx="1213.69" cy="70.07" r="91.36"/><circle class="cls-293" cx="1216.69" cy="65.72" r="91.62"/><circle class="cls-292" cx="1219.63" cy="61.67" r="91.88"/></g><rect class="cls-4" width="1280" height="846.76"/><rect class="cls-341" width="1280" height="846.76"/></g></g></svg>