<svg width="1280" height="760" viewBox="0 0 1280 760" fill="none" xmlns="http://www.w3.org/2000/svg">
<rect width="1280" height="760" fill="url(#paint0_linear_213_188)"/>
<g clip-path="url(#clip0_213_188)">
<path d="M1279.5 0.499512H0.499512V759.501H1279.5V0.499512Z" stroke="#CADDFA" stroke-miterlimit="10"/>
<path d="M0.499512 558.585H1279.5V536.265H0.499512V513.944H1279.5V491.613H0.499512V469.293H1279.5V446.972H0.499512V424.651H1279.5V402.321H0.499512V380H1279.5V357.68H0.499512V335.349H1279.5V313.028H0.499512V290.708H1279.5V268.387H0.499512V246.056H1279.5V223.736H0.499512V201.415H1279.5V179.085H0.499512V156.764H1279.5V134.443H0.499512V112.113H1279.5V89.792H0.499512V67.4714H1279.5V45.1508H0.499512V22.8201H1279.5V0.499512H1119.63V759.501H1096.78V0.499512H1073.95V759.501H1051.11V0.499512H1028.27V759.501H1005.42V0.499512H982.592V759.501H822.717V0.499512H845.549V759.501H868.391V0.499512H891.234V759.501H914.076V0.499512H936.908V759.501H959.75V0.499512H799.875V759.501H777.033V0.499512H754.201V759.501H731.358V0.499512H708.516V759.501H685.674V0.499512H662.842V759.501H640V0.499512H160.375V759.501H137.532V0.499512H114.7V759.501H91.8581V0.499512H69.016V759.501H46.1738V0.499512H23.3417V759.501H183.217V0.499512H206.049V759.501H228.891V0.499512H251.733V759.501H274.575V0.499512H297.408V759.501H320.25V0.499512H480.125V759.501H457.283V0.499512H434.45V759.501H411.608V0.499512H388.766V759.501H365.924V0.499512H343.092V759.501H502.967V0.499512H525.799V759.501H548.641V0.499512H571.483V759.501H594.326V0.499512H617.158V759.501H1142.47V0.499512H1165.3V759.501H1188.14V0.499512H1210.98V759.501H1233.83V0.499512H1256.66V759.501H1279.5V737.18H0.499512V714.85H1279.5V692.529H0.499512V670.208H1279.5V647.888H0.499512V625.557H1279.5V603.237H0.499512V580.916H1279.5" stroke="#CADDFA" stroke-miterlimit="10"/>
</g>
<rect width="1280" height="760" fill="url(#paint1_linear_213_188)"/>
<defs>
<linearGradient id="paint0_linear_213_188" x1="640" y1="528" x2="640" y2="760" gradientUnits="userSpaceOnUse">
<stop stop-color="white"/>
<stop offset="1" stop-color="#BBD6FF"/>
</linearGradient>
<linearGradient id="paint1_linear_213_188" x1="640" y1="-73" x2="640" y2="299.5" gradientUnits="userSpaceOnUse">
<stop stop-color="white"/>
<stop offset="1" stop-color="white" stop-opacity="0"/>
</linearGradient>
<clipPath id="clip0_213_188">
<rect width="1280" height="760" fill="white"/>
</clipPath>
</defs>
</svg>
