<?xml version="1.0" encoding="UTF-8"?><svg id="Livello_1" xmlns="http://www.w3.org/2000/svg" xmlns:xlink="http://www.w3.org/1999/xlink" viewBox="0 0 1280 846.76"><defs><style>.cls-1,.cls-2{fill:none;}.cls-3{clip-path:url(#clippath);}.cls-4{fill:url(#Sfumatura_senza_nome);}.cls-5{fill:#6a6bff;}.cls-6{fill:#026bfc;}.cls-7{fill:#026afd;}.cls-8{fill:#0266ff;}.cls-9{fill:#0470fa;}.cls-10{fill:#046efb;}.cls-11{fill:#046ffa;}.cls-12{fill:#0466ff;}.cls-13{fill:#0169fd;}.cls-14{fill:#0067fe;}.cls-15{fill:#06f;}.cls-16{fill:#0366ff;}.cls-17{fill:#036dfb;}.cls-18{fill:#036cfc;}.cls-19{fill:#696bff;}.cls-20{fill:#686bff;}.cls-21{fill:#676bff;}.cls-22{fill:#926eff;}.cls-23{fill:#6b6cff;}.cls-24{fill:#746cff;}.cls-25{fill:#816dff;}.cls-26{fill:#826dff;}.cls-27{fill:#7f6dff;}.cls-28{fill:#736cff;}.cls-29{fill:#656bff;}.cls-30{fill:#996eff;}.cls-31{fill:#976eff;}.cls-32{fill:#9a6eff;}.cls-33{fill:#7e6dff;}.cls-34{fill:#986eff;}.cls-35{fill:#6c6cff;}.cls-36{fill:#806dff;}.cls-37{fill:#7d6cff;}.cls-38{fill:#0168fe;}.cls-39{fill:#0166ff;}.cls-40{fill:#8b6dff;}.cls-41{fill:#a26eff;}.cls-42{fill:#a06eff;}.cls-43{fill:#a16eff;}.cls-44{fill:#9f6eff;}.cls-45{fill:#856dff;}.cls-46{fill:#946eff;}.cls-47{fill:#866dff;}.cls-48{fill:#c270ff;}.cls-49{fill:#b56fff;}.cls-50{fill:#b66fff;}.cls-51{fill:#b870ff;}.cls-52{fill:#b970ff;}.cls-53{fill:#9e6eff;}.cls-54{fill:#9d6eff;}.cls-55{fill:#8c6dff;}.cls-56{fill:#ba70ff;}.cls-57{fill:#8d6dff;}.cls-58{fill:#906dff;}.cls-59{fill:#c370ff;}.cls-60{fill:#b46fff;}.cls-61{fill:#916dff;}.cls-62{fill:#b76fff;}.cls-63{fill:#666bff;}.cls-64{fill:#30d1c4;}.cls-65{fill:#3269ff;}.cls-66{fill:#bb70ff;}.cls-67{fill:#30d2c3;}.cls-68{fill:#2fcfc5;}.cls-69{fill:#2fd0c4;}.cls-70{fill:#3068ff;}.cls-71{fill:#8e6dff;}.cls-72{fill:#3369ff;}.cls-73{fill:#31d4c2;}.cls-74{fill:#31d3c3;}.cls-75{fill:#2eccc6;}.cls-76{fill:#2ecdc6;}.cls-77{fill:#8f6dff;}.cls-78{fill:#936eff;}.cls-79{fill:#b26fff;}.cls-80{fill:#ac6fff;}.cls-81{fill:#a96fff;}.cls-82{fill:#a56fff;}.cls-83{fill:#aa6fff;}.cls-84{fill:#b16fff;}.cls-85{fill:#ae6fff;}.cls-86{fill:#b36fff;}.cls-87{fill:#a66fff;}.cls-88{fill:#af6fff;}.cls-89{fill:#bc70ff;}.cls-90{fill:#bd70ff;}.cls-91{fill:#a76fff;}.cls-92{fill:#bf70ff;}.cls-93{fill:#be70ff;}.cls-94{fill:#c070ff;}.cls-95{fill:#ab6fff;}.cls-96{fill:#c170ff;}.cls-97{fill:#cd71ff;}.cls-98{fill:#c470ff;}.cls-99{fill:#cb70ff;}.cls-100{fill:#c670ff;}.cls-101{fill:#ca70ff;}.cls-102{fill:#cc71ff;}.cls-103{fill:#c570ff;}.cls-104{fill:#c770ff;}.cls-105{fill:#b06fff;}.cls-106{fill:#ad6fff;}.cls-107{fill:#c870ff;}.cls-108{fill:#c970ff;}.cls-109{fill:#a86fff;}.cls-110{fill:#23b5d3;}.cls-111{fill:#23b4d4;}.cls-112{fill:#1267ff;}.cls-113{fill:#1391e7;}.cls-114{fill:#1390e8;}.cls-115{fill:#1392e7;}.cls-116{fill:#1167ff;}.cls-117{fill:#118cea;}.cls-118{fill:#128fe8;}.cls-119{fill:#128ee9;}.cls-120{fill:#1067ff;}.cls-121{fill:#108aeb;}.cls-122{fill:#118dea;}.cls-123{fill:#1595e5;}.cls-124{fill:#0f67ff;}.cls-125{fill:#1596e5;}.cls-126{fill:#1667ff;}.cls-127{fill:#1494e6;}.cls-128{fill:#1567ff;}.cls-129{fill:#2468ff;}.cls-130{fill:#2368ff;}.cls-131{fill:#23b3d4;}.cls-132{fill:#1da6db;}.cls-133{fill:#1da7db;}.cls-134{fill:#1e68ff;}.cls-135{fill:#1ca5dc;}.cls-136{fill:#1ca4dc;}.cls-137{fill:#1d67ff;}.cls-138{fill:#21afd6;}.cls-139{fill:#21b0d6;}.cls-140{fill:#2168ff;}.cls-141{fill:#22b1d5;}.cls-142{fill:#22b2d5;}.cls-143{fill:#20aed7;}.cls-144{fill:#20add7;}.cls-145{fill:#2068ff;}.cls-146{fill:#1facd8;}.cls-147{fill:#1faad9;}.cls-148{fill:#1fabd9;}.cls-149{fill:#1ea9da;}.cls-150{fill:#1f68ff;}.cls-151{fill:#1ea8da;}.cls-152{fill:#0877f6;}.cls-153{fill:#0879f5;}.cls-154{fill:#0a7df2;}.cls-155{fill:#0a7cf3;}.cls-156{fill:#0878f5;}.cls-157{fill:#0866ff;}.cls-158{fill:#0776f6;}.cls-159{fill:#0775f7;}.cls-160{fill:#097bf3;}.cls-161{fill:#0766ff;}.cls-162{fill:#2268ff;}.cls-163{fill:#4169ff;}.cls-164{fill:#4269ff;}.cls-165{fill:#3f69ff;}.cls-166{fill:#108beb;}.cls-167{fill:#0674f7;}.cls-168{fill:#1467ff;}.cls-169{fill:#0571f9;}.cls-170{fill:#0572f8;}.cls-171{fill:#0566ff;}.cls-172{fill:#1367ff;}.cls-173{fill:#0673f8;}.cls-174{fill:#0666ff;}.cls-175{fill:#1a67ff;}.cls-176{fill:#1493e6;}.cls-177{fill:#0a67ff;}.cls-178{fill:#0b7ff1;}.cls-179{fill:#0b7ef2;}.cls-180{fill:#097af4;}.cls-181{fill:#0966ff;}.cls-182{fill:#0e67ff;}.cls-183{fill:#0f89ec;}.cls-184{fill:#0f88ec;}.cls-185{fill:#0f87ed;}.cls-186{fill:#0d67ff;}.cls-187{fill:#0e86ed;}.cls-188{fill:#0e85ee;}.cls-189{fill:#1ba3de;}.cls-190{fill:#1ba3dd;}.cls-191{fill:#1ba2de;}.cls-192{fill:#0d83ef;}.cls-193{fill:#0d84ef;}.cls-194{fill:#1c67ff;}.cls-195{fill:#1aa0df;}.cls-196{fill:#1b67ff;}.cls-197{fill:#1aa1df;}.cls-198{fill:#4069ff;}.cls-199{fill:#3669ff;}.cls-200{fill:#33d8c0;}.cls-201{fill:#33d9bf;}.cls-202{fill:#35ddbd;}.cls-203{fill:#35dcbe;}.cls-204{fill:#3769ff;}.cls-205{fill:#34dbbe;}.cls-206{fill:#4369ff;}.cls-207{fill:#3569ff;}.cls-208{fill:#34dabf;}.cls-209{fill:#446aff;}.cls-210{fill:#179ae2;}.cls-211{fill:#1799e3;}.cls-212{fill:#1867ff;}.cls-213{fill:#179be2;}.cls-214{fill:#1698e4;}.cls-215{fill:#1767ff;}.cls-216{fill:#3e69ff;}.cls-217{fill:#1697e4;}.cls-218{fill:#0c67ff;}.cls-219{fill:#3d69ff;}.cls-220{fill:#0b67ff;}.cls-221{fill:#0c82f0;}.cls-222{fill:#0c80f1;}.cls-223{fill:#0c81f0;}.cls-224{fill:#199fe0;}.cls-225{fill:#199ee0;}.cls-226{fill:#1967ff;}.cls-227{fill:#189ce1;}.cls-228{fill:#189de1;}.cls-229{fill:#956eff;}.cls-230{fill:#a46eff;}.cls-231{fill:#9c6eff;}.cls-232{fill:#6e6cff;}.cls-233{fill:#6f6cff;}.cls-234{fill:#726cff;}.cls-235{fill:#a36eff;}.cls-236{fill:#966eff;}.cls-237{fill:#466aff;}.cls-238{fill:#536aff;}.cls-239{fill:#876dff;}.cls-240{fill:#8a6dff;}.cls-241{fill:#896dff;}.cls-242{fill:#6d6cff;}.cls-243{fill:#886dff;}.cls-244{fill:#9b6eff;}.cls-245{fill:#706cff;}.cls-246{fill:#556aff;}.cls-247{fill:#646bff;}.cls-248{fill:#636bff;}.cls-249{fill:#626bff;}.cls-250{fill:#5a6bff;}.cls-251{fill:#2868ff;}.cls-252{fill:#586bff;}.cls-253{fill:#2a68ff;}.cls-254{fill:#28c0cd;}.cls-255{fill:#28bfce;}.cls-256{fill:#2b68ff;}.cls-257{fill:#29c2cc;}.cls-258{fill:#29c1cc;}.cls-259{fill:#566aff;}.cls-260{fill:#2bc6ca;}.cls-261{fill:#2bc7c9;}.cls-262{fill:#5c6bff;}.cls-263{fill:#4a6aff;}.cls-264{fill:#27bdcf;}.cls-265{fill:#2968ff;}.cls-266{fill:#27bece;}.cls-267{fill:#27bccf;}.cls-268{fill:#486aff;}.cls-269{fill:#476aff;}.cls-270{fill:#2c68ff;}.cls-271{fill:#2ac3cb;}.cls-272{fill:#2ac4cb;}.cls-273{fill:#2ac5ca;}.cls-274{fill:#24b7d2;}.cls-275{fill:#32d6c1;}.cls-276{fill:#32d7c0;}.cls-277{fill:#32d5c1;}.cls-278{fill:#24b6d3;}.cls-279{fill:#5b6bff;}.cls-280{fill:#3969ff;}.cls-281{fill:#2f68ff;}.cls-282{fill:#2dcbc7;}.cls-283{fill:#2dcac8;}.cls-284{fill:#36dfbc;}.cls-285{fill:#36debd;}.cls-286{fill:#3869ff;}.cls-287{fill:#3169ff;}.cls-288{fill:#2568ff;}.cls-289{fill:#2ecec5;}.cls-290{fill:#3a69ff;}.cls-291{fill:#3b69ff;}.cls-292{fill:#3469ff;}.cls-293{fill:#25b9d1;}.cls-294{fill:#25b8d1;}.cls-295{fill:#596bff;}.cls-296{fill:#2e68ff;}.cls-297{fill:#576aff;}.cls-298{fill:#2d68ff;}.cls-299{fill:#3c69ff;}.cls-300{fill:#846dff;}.cls-301{fill:#2cc9c8;}.cls-302{fill:#2cc8c9;}.cls-303{fill:#4c6aff;}.cls-304{fill:#616bff;}.cls-305{fill:#496aff;}.cls-306{fill:#5f6bff;}.cls-307{fill:#5e6bff;}.cls-308{fill:#546aff;}.cls-309{fill:#456aff;}.cls-310{fill:#756cff;}.cls-311{fill:#776cff;}.cls-312{fill:#606bff;}.cls-313{fill:#796cff;}.cls-314{fill:#7a6cff;}.cls-315{fill:#4b6aff;}.cls-316{fill:#5d6bff;}.cls-317{fill:#716cff;}.cls-318{fill:#526aff;}.cls-319{fill:#786cff;}.cls-320{fill:#506aff;}.cls-321{fill:#4f6aff;}.cls-322{fill:#766cff;}.cls-323{fill:#836dff;}.cls-324{fill:#4d6aff;}.cls-325{fill:#7c6cff;}.cls-326{fill:#2668ff;}.cls-327{fill:#2768ff;}.cls-328{fill:#26bbd0;}.cls-329{fill:#26bad0;}.cls-330{fill:#516aff;}.cls-331{fill:#7b6cff;}.cls-332{fill:#4e6aff;}.cls-333{fill:url(#Sfumatura_senza_nome_2);}.cls-334{clip-path:url(#clippath-1);}.cls-335{clip-path:url(#clippath-3);}.cls-336{clip-path:url(#clippath-2);}.cls-2{stroke:#caddfa;stroke-miterlimit:10;}</style><clipPath id="clippath"><rect class="cls-1" width="1280" height="846.76"/></clipPath><clipPath id="clippath-1"><rect class="cls-1" y="439.76" width="1280" height="407"/></clipPath><clipPath id="clippath-2"><rect class="cls-1" y="34.69" width="1280" height="407"/></clipPath><clipPath id="clippath-3"><rect class="cls-1" x="0" y="-370.51" width="1280" height="407"/></clipPath><radialGradient id="Sfumatura_senza_nome" cx=".52" cy="748.76" fx=".52" fy="748.76" r="1" gradientTransform="translate(-872443.44 1552.05) rotate(-90) scale(1346.08 1166.04)" gradientUnits="userSpaceOnUse"><stop offset="0" stop-color="#fff" stop-opacity="0"/><stop offset="1" stop-color="#bbd6ff"/></radialGradient><linearGradient id="Sfumatura_senza_nome_2" x1="640" y1="1463.76" x2="640" y2="617" gradientTransform="translate(0 -617)" gradientUnits="userSpaceOnUse"><stop offset="0" stop-color="#fff"/><stop offset="1" stop-color="#fff" stop-opacity="0"/></linearGradient></defs><g class="cls-3"><g><g class="cls-334"><g><path class="cls-2" d="M1280,439.76H1v405H1280V439.76Z"/><path class="cls-2" d="M1142,438.76v406h22.8V438.76h22.8v406h22.8V438.76h22.8v406h22.8V438.76h22.8v203H0v-22.6H1279v-22.6H0v-22.6H1279v-22.6H0v-22.4H1279v-22.5H0v-22.6H1279v-22.5H0v-22.6H22.8v406h22.8V438.76h22.8v406h22.8V438.76h22.8v406h23V438.76h22.8v406h159.9V438.76h-22.8v406h-22.8V438.76h-22.8v406h-22.8V438.76h-22.8v406h-22.8V438.76h159.9v406h22.8V438.76h22.8v406h22.8V438.76h22.8v406h22.8V438.76h22.8v406h159.9V438.76h-22.8v406h-22.8V438.76h-22.9v406h-22.8V438.76h-22.8v406h-22.8V438.76h159.9v406h22.8V438.76h22.7v406h22.8V438.76h22.8v406h22.8V438.76h22.8v406h159.9V438.76h-22.8v406h-22.8V438.76h-22.8v406h-22.8V438.76h-22.9v406h-22.8V438.76h159.9v406h22.8V438.76h22.8v406h22.8V438.76h22.8v406h22.8V438.76h22.8v406H0v-22.6H1279v-22.6H0v-22.6H1279v-22.6H0v-22.6H1279v-22.6H0v-22.6H1279v-22.6H0v-225.2H1142Z"/></g></g><g class="cls-336"><g><path class="cls-2" d="M1280,34.69H1V439.69H1280V34.69Z"/><path class="cls-2" d="M1142,33.69V439.69h22.8V33.69h22.8V439.69h22.8V33.69h22.8V439.69h22.8V33.69h22.8V236.69H0v-22.6H1279v-22.6H0v-22.6H1279v-22.6H0v-22.4H1279v-22.5H0v-22.6H1279v-22.5H0v-22.6H22.8V439.69h22.8V33.69h22.8V439.69h22.8V33.69h22.8V439.69h23V33.69h22.8V439.69h159.9V33.69h-22.8V439.69h-22.8V33.69h-22.8V439.69h-22.8V33.69h-22.8V439.69h-22.8V33.69h159.9V439.69h22.8V33.69h22.8V439.69h22.8V33.69h22.8V439.69h22.8V33.69h22.8V439.69h159.9V33.69h-22.8V439.69h-22.8V33.69h-22.9V439.69h-22.8V33.69h-22.8V439.69h-22.8V33.69h159.9V439.69h22.8V33.69h22.7V439.69h22.8V33.69h22.8V439.69h22.8V33.69h22.8V439.69h159.9V33.69h-22.8V439.69h-22.8V33.69h-22.8V439.69h-22.8V33.69h-22.9V439.69h-22.8V33.69h159.9V439.69h22.8V33.69h22.8V439.69h22.8V33.69h22.8V439.69h22.8V33.69h22.8V439.69H0v-22.6H1279v-22.6H0v-22.6H1279v-22.6H0v-22.6H1279v-22.6H0v-22.6H1279v-22.6H0V33.69H1142Z"/></g></g><g class="cls-335"><g><path class="cls-2" d="M1280-370.51H1V34.49H1280V-370.51Z"/><path class="cls-2" d="M1142-371.51V34.49h22.8V-371.51h22.8V34.49h22.8V-371.51h22.8V34.49h22.8V-371.51h22.8V-168.51H0v-22.6H1279v-22.6H0v-22.6H1279v-22.6H0v-22.4H1279v-22.5H0v-22.6H1279v-22.5H0v-22.6H22.8V34.49h22.8V-371.51h22.8V34.49h22.8V-371.51h22.8V34.49h23V-371.51h22.8V34.49h159.9V-371.51h-22.8V34.49h-22.8V-371.51h-22.8V34.49h-22.8V-371.51h-22.8V34.49h-22.8V-371.51h159.9V34.49h22.8V-371.51h22.8V34.49h22.8V-371.51h22.8V34.49h22.8V-371.51h22.8V34.49h159.9V-371.51h-22.8V34.49h-22.8V-371.51h-22.9V34.49h-22.8V-371.51h-22.8V34.49h-22.8V-371.51h159.9V34.49h22.8V-371.51h22.7V34.49h22.8V-371.51h22.8V34.49h22.8V-371.51h22.8V34.49h159.9V-371.51h-22.8V34.49h-22.8V-371.51h-22.8V34.49h-22.8V-371.51h-22.9V34.49h-22.8V-371.51h159.9V34.49h22.8V-371.51h22.8V34.49h22.8V-371.51h22.8V34.49h22.8V-371.51h22.8V34.49H0V11.89H1279V-10.71H0v-22.6H1279v-22.6H0v-22.6H1279v-22.6H0v-22.6H1279v-22.6H0v-225.2H1142Z"/></g></g><g><circle class="cls-97" cx="-25.5" cy="484.83" r="27.26"/><circle class="cls-102" cx="-21.33" cy="477.24" r="27.49" transform="translate(-498.21 448.96) rotate(-89.17)"/><circle class="cls-99" cx="-17.17" cy="469.76" r="27.6" transform="translate(-486.62 445.76) rotate(-89.17)"/><circle class="cls-101" cx="-13" cy="462.28" r="27.84"/><circle class="cls-108" cx="-8.95" cy="454.91" r="28.07" transform="translate(-463.68 439.35) rotate(-89.17)"/><circle class="cls-107" cx="-4.78" cy="447.55" r="28.3"/><circle class="cls-104" cx="-.61" cy="440.42" r="28.42"/><circle class="cls-100" cx="3.55" cy="433.29" r="28.65" transform="translate(-429.74 430.53) rotate(-89.17)"/><circle class="cls-103" cx="7.71" cy="426.27" r="28.88"/><circle class="cls-98" cx="11.87" cy="419.26" r="29.11"/><circle class="cls-59" cx="16.03" cy="412.36" r="29.34" transform="translate(-396.51 422.39) rotate(-89.17)"/><circle class="cls-48" cx="20.19" cy="405.69" r="29.46"/><circle class="cls-96" cx="24.23" cy="399.02" r="29.69"/><circle class="cls-94" cx="28.39" cy="392.35" r="29.92" transform="translate(-364.34 415.03) rotate(-89.17)"/><circle class="cls-92" cx="32.54" cy="385.92" r="30.16"/><circle class="cls-93" cx="36.58" cy="379.48" r="30.27"/><circle class="cls-90" cx="40.73" cy="373.16" r="30.5"/><circle class="cls-89" cx="44.77" cy="366.96" r="30.74" transform="translate(-322.8 406.38) rotate(-89.17)"/><circle class="cls-66" cx="48.8" cy="360.87" r="30.97" transform="translate(-312.74 404.41) rotate(-89.17)"/><circle class="cls-56" cx="52.83" cy="354.89" r="31.08"/><circle class="cls-52" cx="56.86" cy="349.04" r="31.32" transform="translate(-292.97 400.81) rotate(-89.17)"/><circle class="cls-51" cx="60.89" cy="343.18" r="31.55"/><circle class="cls-62" cx="64.91" cy="337.44" r="31.78"/><circle class="cls-50" cx="68.82" cy="331.93" r="32.01"/><circle class="cls-49" cx="72.73" cy="326.42" r="32.13"/><circle class="cls-60" cx="76.64" cy="321.02" r="32.36"/><circle class="cls-86" cx="80.54" cy="315.74" r="32.59"/><circle class="cls-79" cx="84.33" cy="310.58" r="32.82"/><circle class="cls-84" cx="88.11" cy="305.53" r="32.94"/><circle class="cls-105" cx="91.9" cy="300.6" r="33.17"/><circle class="cls-88" cx="95.68" cy="295.78" r="33.4"/><circle class="cls-85" cx="99.34" cy="291.08" r="33.64"/><circle class="cls-106" cx="103.01" cy="286.37" r="33.87"/><circle class="cls-80" cx="106.67" cy="281.9" r="33.98"/><circle class="cls-95" cx="110.21" cy="277.55" r="34.22" transform="translate(-182.31 337.63) rotate(-79.95)"/><circle class="cls-83" cx="113.76" cy="273.31" r="34.45"/><circle class="cls-81" cx="117.29" cy="269.18" r="34.68" transform="translate(-168.23 337.7) rotate(-79.95)"/><circle class="cls-109" cx="120.72" cy="265.17" r="34.8" transform="translate(-161.45 337.76) rotate(-79.95)"/><circle class="cls-91" cx="124.14" cy="261.28" r="35.03" transform="translate(-154.8 337.91) rotate(-79.95)"/><circle class="cls-87" cx="127.56" cy="257.5" r="35.26"/><circle class="cls-82" cx="130.86" cy="253.84" r="35.49" transform="translate(-144.29 330.33) rotate(-78.27)"/><circle class="cls-230" cx="134.04" cy="250.29" r="35.61" transform="translate(-135.8 338.59) rotate(-79.95)"/><circle class="cls-235" cx="137.34" cy="246.85" r="35.84" transform="translate(-132.29 331.12) rotate(-78.27)"/><circle class="cls-41" cx="140.4" cy="243.65" r="36.07"/><circle class="cls-43" cx="143.58" cy="240.45" r="36.3" transform="translate(-118.24 339.86) rotate(-79.95)"/><circle class="cls-42" cx="146.52" cy="237.48" r="36.54"/><circle class="cls-44" cx="149.58" cy="234.62" r="36.65"/><circle class="cls-53" cx="152.41" cy="231.88" r="36.88" transform="translate(-102.51 341.47) rotate(-79.95)"/><circle class="cls-54" cx="155.34" cy="229.25" r="37.12"/><circle class="cls-231" cx="158.05" cy="226.74" r="37.35" transform="translate(-92.8 342.79) rotate(-79.95)"/><circle class="cls-244" cx="160.87" cy="224.35" r="37.46"/><circle class="cls-32" cx="163.45" cy="222.18" r="37.7"/><circle class="cls-30" cx="166.03" cy="220.13" r="37.93" transform="translate(-79.7 345.19) rotate(-79.95)"/><circle class="cls-34" cx="168.61" cy="218.19" r="38.16"/><circle class="cls-31" cx="171.07" cy="216.37" r="38.28"/><circle class="cls-236" cx="173.42" cy="214.67" r="38.51"/><circle class="cls-229" cx="175.76" cy="213.19" r="38.74" transform="translate(-39.97 385.83) rotate(-89.17)"/><circle class="cls-46" cx="177.98" cy="211.83" r="38.97" transform="translate(-36.42 386.72) rotate(-89.17)"/><circle class="cls-78" cx="180.09" cy="210.59" r="39.2" transform="translate(-58.7 351.16) rotate(-79.95)"/><circle class="cls-22" cx="182.19" cy="209.58" r="39.32" transform="translate(-30.01 388.7) rotate(-89.17)"/><circle class="cls-61" cx="184.18" cy="208.56" r="39.55"/><circle class="cls-58" cx="186.05" cy="207.78" r="39.78" transform="translate(-24.41 390.78) rotate(-89.17)"/><circle class="cls-77" cx="187.91" cy="207.22" r="40.01"/><circle class="cls-71" cx="189.66" cy="206.67" r="40.13" transform="translate(-19.75 393.3) rotate(-89.17)"/><circle class="cls-57" cx="191.29" cy="206.34" r="40.36" transform="translate(-17.82 394.61) rotate(-89.17)"/><circle class="cls-55" cx="192.8" cy="206.13" r="40.59"/><circle class="cls-40" cx="194.31" cy="206.16" r="40.83" transform="translate(-14.66 397.44) rotate(-89.17)"/><circle class="cls-240" cx="195.7" cy="206.29" r="41.06" transform="translate(-13.42 398.97) rotate(-89.17)"/><circle class="cls-241" cx="196.97" cy="206.54" r="41.17"/><circle class="cls-243" cx="198.12" cy="206.91" r="41.41" transform="translate(-11.65 402) rotate(-89.17)"/><circle class="cls-239" cx="199.62" cy="207.74" r="41.64" transform="translate(-11.01 404.32) rotate(-89.17)"/><circle class="cls-47" cx="201.34" cy="209.04" r="41.87" transform="translate(-10.61 407.32) rotate(-89.17)"/><circle class="cls-45" cx="202.94" cy="210.57" r="41.99" transform="translate(-10.56 410.43) rotate(-89.17)"/><circle class="cls-300" cx="204.66" cy="212.34" r="42.22"/><circle class="cls-323" cx="206.37" cy="214.45" r="42.45" transform="translate(-11.07 417.67) rotate(-89.17)"/><circle class="cls-26" cx="208.19" cy="216.91" r="42.68"/><circle class="cls-25" cx="209.89" cy="219.61" r="42.8" transform="translate(-12.75 426.28) rotate(-89.17)"/><circle class="cls-36" cx="211.7" cy="222.65" r="43.03" transform="translate(-14.01 431.08) rotate(-89.17)"/><circle class="cls-27" cx="213.51" cy="225.92" r="43.26"/><circle class="cls-33" cx="215.43" cy="229.43" r="43.49"/><circle class="cls-37" cx="217.23" cy="233.17" r="43.73" transform="translate(-19.08 446.98) rotate(-89.17)"/><circle class="cls-325" cx="219.14" cy="237.26" r="43.84" transform="translate(-21.28 452.92) rotate(-89.17)"/><circle class="cls-331" cx="221.05" cy="241.46" r="44.07"/><circle class="cls-314" cx="222.96" cy="245.9" r="44.31" transform="translate(-26.16 465.25) rotate(-89.17)"/><circle class="cls-313" cx="224.98" cy="250.57" r="44.54" transform="translate(-28.83 471.88) rotate(-89.17)"/><circle class="cls-319" cx="226.88" cy="255.47" r="44.65"/><circle class="cls-311" cx="228.89" cy="260.48" r="44.89" transform="translate(-34.89 485.56) rotate(-89.17)"/><circle class="cls-322" cx="230.91" cy="265.73" r="45.12" transform="translate(-38.16 492.75) rotate(-89.17)"/><circle class="cls-310" cx="232.91" cy="271.21" r="45.35"/><circle class="cls-24" cx="234.92" cy="276.81" r="45.47" transform="translate(-45.28 507.68) rotate(-89.17)"/><circle class="cls-28" cx="237.04" cy="282.52" r="45.7"/><circle class="cls-234" cx="239.04" cy="288.47" r="45.93" transform="translate(-52.87 523.29) rotate(-89.17)"/><circle class="cls-317" cx="241.16" cy="294.53" r="46.16" transform="translate(-56.85 531.38) rotate(-89.17)"/><circle class="cls-245" cx="243.27" cy="300.71" r="46.39"/><circle class="cls-233" cx="245.39" cy="307.01" r="46.51"/><circle class="cls-232" cx="247.5" cy="313.42" r="46.74" transform="translate(-69.49 556.33) rotate(-89.17)"/><circle class="cls-242" cx="249.61" cy="319.94" r="46.97"/><circle class="cls-35" cx="251.83" cy="326.59" r="47.21" transform="translate(-78.39 573.64) rotate(-89.17)"/><circle class="cls-23" cx="253.93" cy="333.35" r="47.32" transform="translate(-83.07 582.4) rotate(-89.17)"/><circle class="cls-5" cx="256.16" cy="340.11" r="47.55"/><circle class="cls-19" cx="258.38" cy="346.98" r="47.79"/><circle class="cls-20" cx="260.48" cy="353.86" r="48.02" transform="translate(-97.13 609.16) rotate(-89.17)"/><circle class="cls-21" cx="262.7" cy="360.85" r="48.25" transform="translate(-101.94 618.27) rotate(-89.17)"/><circle class="cls-63" cx="264.92" cy="367.84" r="48.37" transform="translate(-106.74 627.38) rotate(-89.17)"/><circle class="cls-29" cx="267.25" cy="374.95" r="48.6"/><circle class="cls-247" cx="269.46" cy="382.06" r="48.83"/><circle class="cls-248" cx="271.68" cy="389.17" r="49.06"/><circle class="cls-249" cx="273.9" cy="396.27" r="49.18"/><circle class="cls-304" cx="276.23" cy="403.38" r="49.41"/><circle class="cls-312" cx="278.45" cy="410.49" r="49.64"/><circle class="cls-306" cx="280.78" cy="417.49" r="49.87"/><circle class="cls-307" cx="283.11" cy="424.6" r="49.99"/><circle class="cls-316" cx="285.33" cy="431.59" r="50.22"/><circle class="cls-262" cx="287.67" cy="438.58" r="50.45"/><circle class="cls-279" cx="290" cy="445.46" r="50.69"/><circle class="cls-250" cx="292.22" cy="452.34" r="50.92"/><circle class="cls-295" cx="294.56" cy="459.1" r="51.03"/><circle class="cls-252" cx="296.9" cy="465.86" r="51.27"/><circle class="cls-297" cx="299.24" cy="472.51" r="51.5"/><circle class="cls-259" cx="301.58" cy="478.92" r="51.73"/><circle class="cls-246" cx="303.8" cy="485.33" r="51.85"/><circle class="cls-308" cx="306.15" cy="491.63" r="52.08"/><circle class="cls-238" cx="308.5" cy="497.81" r="52.31"/><circle class="cls-318" cx="310.84" cy="503.88" r="52.54"/><circle class="cls-330" cx="313.19" cy="509.71" r="52.66"/><circle class="cls-320" cx="315.43" cy="515.54" r="52.89"/><circle class="cls-321" cx="317.78" cy="521.03" r="53.12"/><circle class="cls-332" cx="320.14" cy="526.52" r="53.35"/><circle class="cls-324" cx="322.38" cy="531.77" r="53.59"/><circle class="cls-303" cx="324.75" cy="536.79" r="53.7"/><circle class="cls-315" cx="327.11" cy="541.58" r="53.93"/><circle class="cls-263" cx="329.37" cy="546.25" r="54.17"/><circle class="cls-305" cx="331.62" cy="550.7" r="54.4"/><circle class="cls-268" cx="334" cy="554.91" r="54.51"/><circle class="cls-269" cx="336.26" cy="558.88" r="54.74"/><circle class="cls-237" cx="338.52" cy="562.63" r="54.98"/><circle class="cls-309" cx="340.79" cy="566.02" r="55.21"/><circle class="cls-209" cx="343.07" cy="569.31" r="55.44"/><circle class="cls-206" cx="345.34" cy="572.24" r="55.56"/><circle class="cls-164" cx="347.62" cy="574.94" r="55.79"/><circle class="cls-163" cx="349.91" cy="577.29" r="56.02"/><circle class="cls-198" cx="352.2" cy="579.41" r="56.25"/><circle class="cls-165" cx="353.8" cy="580.71" r="56.37"/><circle class="cls-216" cx="355.3" cy="581.2" r="56.6"/><circle class="cls-219" cx="357.16" cy="581.34" r="56.83"/><circle class="cls-299" cx="359.25" cy="581.14" r="57.06"/><circle class="cls-291" cx="361.69" cy="580.48" r="57.18"/><circle class="cls-290" cx="364.38" cy="579.59" r="57.41"/><circle class="cls-280" cx="367.41" cy="578.48" r="57.64"/><circle class="cls-286" cx="370.56" cy="576.9" r="57.88"/><circle class="cls-204" cx="374.07" cy="575.21" r="58.11"/><circle class="cls-199" cx="377.81" cy="573.06" r="58.22"/><circle class="cls-207" cx="381.79" cy="570.8" r="58.46"/><circle class="cls-292" cx="385.88" cy="568.3" r="58.69"/><circle class="cls-72" cx="390.21" cy="565.58" r="58.92"/><circle class="cls-65" cx="394.78" cy="562.63" r="59.04" transform="translate(-228.12 853.16) rotate(-79.95)"/><circle class="cls-287" cx="399.58" cy="559.46" r="59.27" transform="translate(-221.02 855.27) rotate(-79.95)"/><circle class="cls-70" cx="404.5" cy="556.16" r="59.5"/><circle class="cls-281" cx="409.54" cy="552.76" r="59.73"/><circle class="cls-296" cx="414.81" cy="549.12" r="59.85" transform="translate(-198.28 861.73) rotate(-79.95)"/><circle class="cls-298" cx="420.09" cy="545.49" r="60.08"/><circle class="cls-270" cx="425.59" cy="541.62" r="60.31"/><circle class="cls-256" cx="431.22" cy="537.76" r="60.54"/><circle class="cls-253" cx="436.96" cy="533.78" r="60.78" transform="translate(-164.89 870.88) rotate(-79.95)"/><circle class="cls-265" cx="442.82" cy="529.69" r="60.89"/><circle class="cls-251" cx="448.68" cy="525.72" r="61.12"/><circle class="cls-327" cx="454.65" cy="521.51" r="61.36" transform="translate(-235.6 474.24) rotate(-45)"/><circle class="cls-326" cx="460.75" cy="517.43" r="61.59" transform="translate(-230.93 477.35) rotate(-45)"/><circle class="cls-288" cx="466.84" cy="513.34" r="61.7"/><circle class="cls-129" cx="473.04" cy="509.25" r="61.94" transform="translate(-221.55 483.65) rotate(-45)"/><circle class="cls-130" cx="479.14" cy="505.17" r="62.17" transform="translate(-216.87 486.76) rotate(-45)"/><circle class="cls-162" cx="485.34" cy="501.2" r="62.4"/><circle class="cls-140" cx="491.66" cy="497.35" r="62.63"/><circle class="cls-145" cx="497.87" cy="493.49" r="62.75" transform="translate(-2.82 984.12) rotate(-89.17)"/><circle class="cls-150" cx="504.07" cy="489.75" r="62.98"/><circle class="cls-134" cx="510.27" cy="486.13" r="63.21"/><circle class="cls-137" cx="516.35" cy="482.63" r="63.44"/><circle class="cls-194" cx="522.55" cy="479.24" r="63.56"/><circle class="cls-196" cx="528.63" cy="476.08" r="63.79"/><circle class="cls-175" cx="534.58" cy="473.15" r="64.02"/><circle class="cls-226" cx="540.54" cy="470.33" r="64.26" transform="translate(62.39 1003.97) rotate(-89.17)"/><circle class="cls-212" cx="546.38" cy="467.75" r="64.37"/><circle class="cls-215" cx="552.1" cy="465.28" r="64.6"/><circle class="cls-126" cx="557.81" cy="463.16" r="64.84" transform="translate(86.58 1014.18) rotate(-89.17)"/><circle class="cls-128" cx="563.29" cy="461.38" r="65.07" transform="translate(93.76 1017.9) rotate(-89.17)"/><circle class="cls-168" cx="568.77" cy="459.72" r="65.3"/><circle class="cls-172" cx="574.01" cy="458.41" r="65.42" transform="translate(107.29 1025.68) rotate(-89.17)"/><circle class="cls-112" cx="579.12" cy="457.44" r="65.65" transform="translate(113.31 1029.85) rotate(-89.17)"/><circle class="cls-116" cx="584.12" cy="456.82" r="65.88"/><circle class="cls-120" cx="588.88" cy="456.42" r="66.11"/><circle class="cls-124" cx="593.52" cy="456.49" r="66.23" transform="translate(128.44 1043.31) rotate(-89.17)"/><circle class="cls-182" cx="598.39" cy="456.91" r="66.46"/><circle class="cls-186" cx="603.25" cy="457.79" r="66.69"/><circle class="cls-218" cx="607.75" cy="459.02" r="66.92"/><circle class="cls-220" cx="612.14" cy="460.47" r="67.04"/><circle class="cls-177" cx="616.29" cy="462.39" r="67.27"/><circle class="cls-181" cx="620.31" cy="464.65" r="67.5"/><circle class="cls-157" cx="624.22" cy="467.14" r="67.74"/><circle class="cls-161" cx="628.01" cy="469.87" r="67.97"/><circle class="cls-174" cx="631.56" cy="472.93" r="68.08"/><circle class="cls-171" cx="635.11" cy="476.12" r="68.32"/><circle class="cls-12" cx="638.42" cy="479.65" r="68.55"/><circle class="cls-16" cx="641.73" cy="483.29" r="68.78"/><circle class="cls-8" cx="645.04" cy="487.17" r="68.9"/><circle class="cls-39" cx="648.11" cy="491.27" r="69.13"/><circle class="cls-15" cx="658.35" cy="505.34" r="69.36"/><circle class="cls-14" cx="654.71" cy="500.07" r="69.71"/><circle class="cls-38" cx="658.01" cy="504.87" r="69.94"/><circle class="cls-13" cx="661.42" cy="509.68" r="70.29"/><circle class="cls-7" cx="664.82" cy="514.71" r="70.63"/><circle class="cls-6" cx="668.23" cy="519.63" r="70.87"/><circle class="cls-18" cx="671.76" cy="524.67" r="71.21"/><circle class="cls-17" cx="675.39" cy="529.71" r="71.45"/><circle class="cls-10" cx="679.03" cy="534.76" r="71.79"/><circle class="cls-11" cx="682.79" cy="539.68" r="72.14"/><circle class="cls-9" cx="686.66" cy="544.61" r="72.37"/><circle class="cls-169" cx="690.77" cy="549.31" r="72.72"/><circle class="cls-170" cx="694.99" cy="554.01" r="73.07"/><circle class="cls-173" cx="699.45" cy="558.48" r="73.3"/><circle class="cls-167" cx="704.14" cy="562.84" r="73.65"/><circle class="cls-159" cx="708.96" cy="566.97" r="73.88"/><circle class="cls-158" cx="714.12" cy="570.88" r="74.23"/><circle class="cls-152" cx="719.4" cy="574.55" r="74.58"/><circle class="cls-156" cx="725.03" cy="578" r="74.81"/><circle class="cls-153" cx="731.02" cy="581.1" r="75.16"/><circle class="cls-180" cx="737.24" cy="583.86" r="75.51"/><circle class="cls-160" cx="743.82" cy="586.27" r="75.74"/><circle class="cls-155" cx="750.75" cy="588.35" r="76.09"/><circle class="cls-154" cx="758.15" cy="590.08" r="76.32"/><circle class="cls-179" cx="765.79" cy="591.35" r="76.67"/><circle class="cls-178" cx="773.9" cy="592.16" r="77.01"/><circle class="cls-222" cx="782.36" cy="592.52" r="77.25"/><circle class="cls-223" cx="786.07" cy="592.46" r="77.59"/><circle class="cls-221" cx="789.79" cy="592.28" r="77.94"/><circle class="cls-192" cx="793.5" cy="591.98" r="78.17"/><circle class="cls-193" cx="797.34" cy="591.58" r="78.52"/><circle class="cls-188" cx="801.29" cy="590.94" r="78.87"/><circle class="cls-187" cx="805.13" cy="590.18" r="79.1"/><circle class="cls-185" cx="809.2" cy="589.2" r="79.45"/><circle class="cls-184" cx="813.28" cy="588.21" r="79.68"/><circle class="cls-183" cx="817.35" cy="587" r="80.03"/><circle class="cls-121" cx="821.55" cy="585.66" r="80.38"/><circle class="cls-166" cx="825.75" cy="584.22" r="80.61"/><circle class="cls-117" cx="830.06" cy="582.66" r="80.96"/><circle class="cls-122" cx="834.38" cy="580.98" r="81.31"/><circle class="cls-119" cx="838.69" cy="579.19" r="81.54"/><circle class="cls-118" cx="843.13" cy="577.28" r="81.89"/><circle class="cls-114" cx="847.57" cy="575.14" r="82.12"/><circle class="cls-113" cx="852.01" cy="573" r="82.47"/><circle class="cls-115" cx="856.56" cy="570.75" r="82.81"/><circle class="cls-176" cx="861.12" cy="568.26" r="83.05"/><circle class="cls-127" cx="865.8" cy="565.78" r="83.39"/><circle class="cls-123" cx="870.36" cy="563.18" r="83.74"/><circle class="cls-125" cx="875.04" cy="560.34" r="83.97"/><circle class="cls-217" cx="879.84" cy="557.51" r="84.32"/><circle class="cls-214" cx="884.52" cy="554.57" r="84.55"/><circle class="cls-211" cx="889.32" cy="551.5" r="84.9"/><circle class="cls-210" cx="894.12" cy="548.44" r="85.25"/><circle class="cls-213" cx="898.93" cy="545.15" r="85.48"/><circle class="cls-227" cx="903.85" cy="541.86" r="85.83"/><circle class="cls-228" cx="908.77" cy="538.45" r="86.18"/><circle class="cls-225" cx="913.69" cy="534.92" r="86.41"/><circle class="cls-224" cx="918.62" cy="531.28" r="86.76"/><circle class="cls-195" cx="923.54" cy="527.64" r="87.1"/><circle class="cls-197" cx="928.59" cy="523.89" r="87.34"/><circle class="cls-191" cx="933.51" cy="520.02" r="87.68"/><circle class="cls-189" cx="938.56" cy="516.03" r="87.92"/><circle class="cls-190" cx="943.61" cy="512.04" r="88.26" transform="translate(-85.69 817.2) rotate(-45)"/><circle class="cls-136" cx="948.65" cy="508.06" r="88.61"/><circle class="cls-135" cx="953.7" cy="503.84" r="88.84" transform="translate(-76.93 821.94) rotate(-45)"/><circle class="cls-132" cx="958.75" cy="499.62" r="89.19"/><circle class="cls-133" cx="963.91" cy="495.4" r="89.54" transform="translate(-67.98 826.69) rotate(-45)"/><circle class="cls-151" cx="968.97" cy="491.07" r="89.77" transform="translate(-63.43 828.99) rotate(-45)"/><circle class="cls-149" cx="974.02" cy="486.62" r="90.12" transform="translate(-58.81 831.26) rotate(-45)"/><circle class="cls-147" cx="979.19" cy="482.17" r="90.35"/><circle class="cls-148" cx="984.24" cy="477.6" r="90.7"/><circle class="cls-146" cx="989.41" cy="473.04" r="91.05" transform="translate(-44.7 838.17) rotate(-45)"/><circle class="cls-144" cx="994.47" cy="468.47" r="91.28" transform="translate(-39.99 840.41) rotate(-45)"/><circle class="cls-143" cx="999.64" cy="463.79" r="91.63"/><circle class="cls-138" cx="1004.81" cy="458.99" r="91.98"/><circle class="cls-139" cx="1009.87" cy="454.2" r="92.21"/><circle class="cls-141" cx="1014.93" cy="449.4" r="92.56" transform="translate(-20.51 849.29) rotate(-45)"/><circle class="cls-142" cx="1020.1" cy="444.6" r="92.79" transform="translate(-15.6 851.54) rotate(-45)"/><circle class="cls-131" cx="1025.16" cy="439.69" r="93.14" transform="translate(-10.64 853.68) rotate(-45)"/><circle class="cls-111" cx="1030.34" cy="434.66" r="93.48"/><circle class="cls-110" cx="1035.4" cy="429.74" r="93.72" transform="translate(-.61 858.01) rotate(-45)"/><circle class="cls-278" cx="1040.46" cy="424.71" r="94.06"/><circle class="cls-274" cx="1045.52" cy="419.68" r="94.41"/><circle class="cls-294" cx="1050.58" cy="414.65" r="94.64"/><circle class="cls-293" cx="1055.53" cy="409.51" r="94.99"/><circle class="cls-329" cx="1060.59" cy="404.36" r="95.34" transform="translate(24.71 868.38) rotate(-45)"/><circle class="cls-328" cx="1065.65" cy="399.21" r="95.57"/><circle class="cls-267" cx="1070.6" cy="394.07" r="95.92" transform="translate(34.92 872.45) rotate(-45)"/><circle class="cls-264" cx="1075.55" cy="388.92" r="96.15"/><circle class="cls-266" cx="1080.49" cy="383.77" r="96.5" transform="translate(45.1 876.43) rotate(-45)"/><circle class="cls-255" cx="1085.44" cy="378.51" r="96.85"/><circle class="cls-254" cx="1090.27" cy="373.24" r="97.08" transform="translate(55.41 880.26) rotate(-45)"/><circle class="cls-258" cx="1095.1" cy="368.09" r="97.43"/><circle class="cls-257" cx="1099.94" cy="362.83" r="97.78" transform="translate(65.61 884.04) rotate(-45)"/><circle class="cls-271" cx="1104.77" cy="357.56" r="98.01"/><circle class="cls-272" cx="1109.6" cy="352.41" r="98.36" transform="translate(75.8 887.82) rotate(-45)"/><circle class="cls-273" cx="1114.32" cy="347.14" r="98.59"/><circle class="cls-260" cx="1119.03" cy="341.88" r="98.94" transform="translate(86.01 891.41) rotate(-45)"/><circle class="cls-261" cx="1123.75" cy="336.72" r="99.28"/><circle class="cls-302" cx="1128.35" cy="331.46" r="99.52" transform="translate(96.11 894.94) rotate(-45)"/><circle class="cls-301" cx="1132.95" cy="326.19" r="99.86"/><circle class="cls-283" cx="1137.55" cy="321.03" r="100.21"/><circle class="cls-282" cx="1142.03" cy="315.88" r="100.44"/><circle class="cls-75" cx="1146.51" cy="310.72" r="100.79"/><circle class="cls-76" cx="1151" cy="305.57" r="101.02"/><circle class="cls-289" cx="1155.36" cy="300.41" r="101.37"/><circle class="cls-68" cx="1159.73" cy="295.26" r="101.72"/><circle class="cls-69" cx="1164.1" cy="290.22" r="101.95"/><circle class="cls-64" cx="1168.35" cy="285.17" r="102.3"/><circle class="cls-67" cx="1172.48" cy="280.13" r="102.65"/><circle class="cls-74" cx="1176.73" cy="275.09" r="102.88"/><circle class="cls-73" cx="1180.74" cy="270.16" r="103.23"/><circle class="cls-277" cx="1184.88" cy="265.23" r="103.57"/><circle class="cls-275" cx="1188.89" cy="260.3" r="103.81"/><circle class="cls-276" cx="1192.79" cy="255.49" r="104.15"/><circle class="cls-200" cx="1196.69" cy="250.67" r="104.39"/><circle class="cls-201" cx="1200.47" cy="245.97" r="104.73"/><circle class="cls-208" cx="1204.25" cy="241.27" r="105.08"/><circle class="cls-205" cx="1207.91" cy="236.57" r="105.31"/><circle class="cls-203" cx="1211.58" cy="231.98" r="105.66"/><circle class="cls-202" cx="1215.12" cy="227.39" r="106.01"/><circle class="cls-285" cx="1218.67" cy="222.92" r="106.24"/><circle class="cls-284" cx="1222.1" cy="218.45" r="106.59"/></g><rect class="cls-4" width="1280" height="846.76"/><rect class="cls-333" width="1280" height="846.76"/></g></g></svg>