<?xml version="1.0" encoding="utf-8"?>
<!-- Generator: Adobe Illustrator 27.0.0, SVG Export Plug-In . SVG Version: 6.00 Build 0)  -->
<svg version="1.1" id="Livello_1" xmlns="http://www.w3.org/2000/svg" xmlns:xlink="http://www.w3.org/1999/xlink" x="0px" y="0px"
	 viewBox="0 0 1280 846.8" style="enable-background:new 0 0 1280 846.8;" xml:space="preserve">
<style type="text/css">
	.st0{clip-path:url(#SVGID_00000081627273696592694380000014656289005085249702_);}
	.st1{clip-path:url(#SVGID_00000015313051239894607350000002096731223463723919_);}
	.st2{fill:none;stroke:#CADDFA;stroke-miterlimit:10;}
	.st3{clip-path:url(#SVGID_00000179637658802759759250000009819798492899703181_);}
	.st4{clip-path:url(#SVGID_00000039826484132429324160000003623422064459324297_);}
	.st5{fill:#D571FF;}
	.st6{fill:#D471FF;}
	.st7{fill:#D371FF;}
	.st8{fill:#D271FF;}
	.st9{fill:#D171FF;}
	.st10{fill:#D071FF;}
	.st11{fill:#CF71FF;}
	.st12{fill:#CE71FF;}
	.st13{fill:#CD71FF;}
	.st14{fill:#CC71FF;}
	.st15{fill:#CB70FF;}
	.st16{fill:#CA70FF;}
	.st17{fill:#C970FF;}
	.st18{fill:#C870FF;}
	.st19{fill:#C770FF;}
	.st20{fill:#C670FF;}
	.st21{fill:#C570FF;}
	.st22{fill:#C470FF;}
	.st23{fill:#C370FF;}
	.st24{fill:#C270FF;}
	.st25{fill:#C170FF;}
	.st26{fill:#C070FF;}
	.st27{fill:#BF70FF;}
	.st28{fill:#BE70FF;}
	.st29{fill:#BD70FF;}
	.st30{fill:#BC70FF;}
	.st31{fill:#BB70FF;}
	.st32{fill:#BA70FF;}
	.st33{fill:#B970FF;}
	.st34{fill:#B870FF;}
	.st35{fill:#B76FFF;}
	.st36{fill:#B66FFF;}
	.st37{fill:#B56FFF;}
	.st38{fill:#B46FFF;}
	.st39{fill:#B36FFF;}
	.st40{fill:#B26FFF;}
	.st41{fill:#B16FFF;}
	.st42{fill:#B06FFF;}
	.st43{fill:#AF6FFF;}
	.st44{fill:#AE6FFF;}
	.st45{fill:#AD6FFF;}
	.st46{fill:#AC6FFF;}
	.st47{fill:#AB6FFF;}
	.st48{fill:#AA6FFF;}
	.st49{fill:#A96FFF;}
	.st50{fill:#A86FFF;}
	.st51{fill:#A76FFF;}
	.st52{fill:#A66FFF;}
	.st53{fill:#A56FFF;}
	.st54{fill:#A46EFF;}
	.st55{fill:#A36EFF;}
	.st56{fill:#A26EFF;}
	.st57{fill:#A16EFF;}
	.st58{fill:#A06EFF;}
	.st59{fill:#9F6EFF;}
	.st60{fill:#9E6EFF;}
	.st61{fill:#9D6EFF;}
	.st62{fill:#9C6EFF;}
	.st63{fill:#9B6EFF;}
	.st64{fill:#9A6EFF;}
	.st65{fill:#996EFF;}
	.st66{fill:#986EFF;}
	.st67{fill:#976EFF;}
	.st68{fill:#966EFF;}
	.st69{fill:#956EFF;}
	.st70{fill:#946EFF;}
	.st71{fill:#936EFF;}
	.st72{fill:#926EFF;}
	.st73{fill:#916DFF;}
	.st74{fill:#906DFF;}
	.st75{fill:#8F6DFF;}
	.st76{fill:#8E6DFF;}
	.st77{fill:#8D6DFF;}
	.st78{fill:#8C6DFF;}
	.st79{fill:#8B6DFF;}
	.st80{fill:#8A6DFF;}
	.st81{fill:#896DFF;}
	.st82{fill:#886DFF;}
	.st83{fill:#876DFF;}
	.st84{fill:#866DFF;}
	.st85{fill:#856DFF;}
	.st86{fill:#846DFF;}
	.st87{fill:#836DFF;}
	.st88{fill:#826DFF;}
	.st89{fill:#816DFF;}
	.st90{fill:#806DFF;}
	.st91{fill:#7F6DFF;}
	.st92{fill:#7E6DFF;}
	.st93{fill:#7D6CFF;}
	.st94{fill:#7C6CFF;}
	.st95{fill:#7B6CFF;}
	.st96{fill:#7A6CFF;}
	.st97{fill:#796CFF;}
	.st98{fill:#786CFF;}
	.st99{fill:#776CFF;}
	.st100{fill:#766CFF;}
	.st101{fill:#756CFF;}
	.st102{fill:#746CFF;}
	.st103{fill:#736CFF;}
	.st104{fill:#726CFF;}
	.st105{fill:#716CFF;}
	.st106{fill:#706CFF;}
	.st107{fill:#6F6CFF;}
	.st108{fill:#6E6CFF;}
	.st109{fill:#6D6CFF;}
	.st110{fill:#6C6CFF;}
	.st111{fill:#6B6CFF;}
	.st112{fill:#6A6BFF;}
	.st113{fill:#696BFF;}
	.st114{fill:#686BFF;}
	.st115{fill:#676BFF;}
	.st116{fill:#666BFF;}
	.st117{fill:#656BFF;}
	.st118{fill:#646BFF;}
	.st119{fill:#636BFF;}
	.st120{fill:#626BFF;}
	.st121{fill:#616BFF;}
	.st122{fill:#606BFF;}
	.st123{fill:#5F6BFF;}
	.st124{fill:#5E6BFF;}
	.st125{fill:#5D6BFF;}
	.st126{fill:#5C6BFF;}
	.st127{fill:#5B6BFF;}
	.st128{fill:#5A6BFF;}
	.st129{fill:#596BFF;}
	.st130{fill:#586BFF;}
	.st131{fill:#576AFF;}
	.st132{fill:#566AFF;}
	.st133{fill:#556AFF;}
	.st134{fill:#546AFF;}
	.st135{fill:#536AFF;}
	.st136{fill:#526AFF;}
	.st137{fill:#516AFF;}
	.st138{fill:#506AFF;}
	.st139{fill:#4F6AFF;}
	.st140{fill:#4E6AFF;}
	.st141{fill:#4D6AFF;}
	.st142{fill:#4C6AFF;}
	.st143{fill:#4B6AFF;}
	.st144{fill:#4A6AFF;}
	.st145{fill:#496AFF;}
	.st146{fill:#486AFF;}
	.st147{fill:#476AFF;}
	.st148{fill:#466AFF;}
	.st149{fill:#456AFF;}
	.st150{fill:#446AFF;}
	.st151{fill:#4369FF;}
	.st152{fill:#4269FF;}
	.st153{fill:#4169FF;}
	.st154{fill:#4069FF;}
	.st155{fill:#3F69FF;}
	.st156{fill:#3E69FF;}
	.st157{fill:#3D69FF;}
	.st158{fill:#3C69FF;}
	.st159{fill:#3B69FF;}
	.st160{fill:#3A69FF;}
	.st161{fill:#3969FF;}
	.st162{fill:#3869FF;}
	.st163{fill:#3769FF;}
	.st164{fill:#3669FF;}
	.st165{fill:#3569FF;}
	.st166{fill:#3469FF;}
	.st167{fill:#3369FF;}
	.st168{fill:#3269FF;}
	.st169{fill:#3169FF;}
	.st170{fill:#3068FF;}
	.st171{fill:#2F68FF;}
	.st172{fill:#2E68FF;}
	.st173{fill:#2D68FF;}
	.st174{fill:#2C68FF;}
	.st175{fill:#2B68FF;}
	.st176{fill:#2A68FF;}
	.st177{fill:#2968FF;}
	.st178{fill:#2868FF;}
	.st179{fill:#2768FF;}
	.st180{fill:#2668FF;}
	.st181{fill:#2568FF;}
	.st182{fill:#2468FF;}
	.st183{fill:#2368FF;}
	.st184{fill:#2268FF;}
	.st185{fill:#2168FF;}
	.st186{fill:#2068FF;}
	.st187{fill:#1F68FF;}
	.st188{fill:#1E68FF;}
	.st189{fill:#1D67FF;}
	.st190{fill:#1C67FF;}
	.st191{fill:#1B67FF;}
	.st192{fill:#1A67FF;}
	.st193{fill:#1967FF;}
	.st194{fill:#1867FF;}
	.st195{fill:#1767FF;}
	.st196{fill:#1667FF;}
	.st197{fill:#1567FF;}
	.st198{fill:#1467FF;}
	.st199{fill:#1367FF;}
	.st200{fill:#1267FF;}
	.st201{fill:#1167FF;}
	.st202{fill:#1067FF;}
	.st203{fill:#0F67FF;}
	.st204{fill:#0E67FF;}
	.st205{fill:#0D67FF;}
	.st206{fill:#0C67FF;}
	.st207{fill:#0B67FF;}
	.st208{fill:#0A67FF;}
	.st209{fill:#0966FF;}
	.st210{fill:#0866FF;}
	.st211{fill:#0766FF;}
	.st212{fill:#0666FF;}
	.st213{fill:#0566FF;}
	.st214{fill:#0466FF;}
	.st215{fill:#0366FF;}
	.st216{fill:#0266FF;}
	.st217{fill:#0166FF;}
	.st218{fill:#0066FF;}
	.st219{fill:#0067FE;}
	.st220{fill:#0168FE;}
	.st221{fill:#0169FD;}
	.st222{fill:#026AFD;}
	.st223{fill:#026BFC;}
	.st224{fill:#036CFC;}
	.st225{fill:#036DFB;}
	.st226{fill:#046EFB;}
	.st227{fill:#046FFA;}
	.st228{fill:#0470FA;}
	.st229{fill:#0571F9;}
	.st230{fill:#0572F8;}
	.st231{fill:#0673F8;}
	.st232{fill:#0674F7;}
	.st233{fill:#0775F7;}
	.st234{fill:#0776F6;}
	.st235{fill:#0877F6;}
	.st236{fill:#0878F5;}
	.st237{fill:#0879F5;}
	.st238{fill:#097AF4;}
	.st239{fill:#097BF3;}
	.st240{fill:#0A7CF3;}
	.st241{fill:#0A7DF2;}
	.st242{fill:#0B7EF2;}
	.st243{fill:#0B7FF1;}
	.st244{fill:#0C80F1;}
	.st245{fill:#0C81F0;}
	.st246{fill:#0C82F0;}
	.st247{fill:#0D83EF;}
	.st248{fill:#0D84EF;}
	.st249{fill:#0E85EE;}
	.st250{fill:#0E86ED;}
	.st251{fill:#0F87ED;}
	.st252{fill:#0F88EC;}
	.st253{fill:#0F89EC;}
	.st254{fill:#108AEB;}
	.st255{fill:#108BEB;}
	.st256{fill:#118CEA;}
	.st257{fill:#118DEA;}
	.st258{fill:#128EE9;}
	.st259{fill:#128FE8;}
	.st260{fill:#1390E8;}
	.st261{fill:#1391E7;}
	.st262{fill:#1392E7;}
	.st263{fill:#1493E6;}
	.st264{fill:#1494E6;}
	.st265{fill:#1595E5;}
	.st266{fill:#1596E5;}
	.st267{fill:#1697E4;}
	.st268{fill:#1698E4;}
	.st269{fill:#1799E3;}
	.st270{fill:#179AE2;}
	.st271{fill:#179BE2;}
	.st272{fill:#189CE1;}
	.st273{fill:#189DE1;}
	.st274{fill:#199EE0;}
	.st275{fill:#199FE0;}
	.st276{fill:#1AA0DF;}
	.st277{fill:#1AA1DF;}
	.st278{fill:#1BA2DE;}
	.st279{fill:#1BA3DE;}
	.st280{fill:#1BA3DD;}
	.st281{fill:#1CA4DC;}
	.st282{fill:#1CA5DC;}
	.st283{fill:#1DA6DB;}
	.st284{fill:#1DA7DB;}
	.st285{fill:#1EA8DA;}
	.st286{fill:#1EA9DA;}
	.st287{fill:#1FAAD9;}
	.st288{fill:#1FABD9;}
	.st289{fill:#1FACD8;}
	.st290{fill:#20ADD7;}
	.st291{fill:#20AED7;}
	.st292{fill:#21AFD6;}
	.st293{fill:#21B0D6;}
	.st294{fill:#22B1D5;}
	.st295{fill:#22B2D5;}
	.st296{fill:#23B3D4;}
	.st297{fill:#23B4D4;}
	.st298{fill:#23B5D3;}
	.st299{fill:#24B6D3;}
	.st300{fill:#24B7D2;}
	.st301{fill:#25B8D1;}
	.st302{fill:#25B9D1;}
	.st303{fill:#26BAD0;}
	.st304{fill:#26BBD0;}
	.st305{fill:#27BCCF;}
	.st306{fill:#27BDCF;}
	.st307{fill:#27BECE;}
	.st308{fill:#28BFCE;}
	.st309{fill:#28C0CD;}
	.st310{fill:#29C1CC;}
	.st311{fill:#29C2CC;}
	.st312{fill:#2AC3CB;}
	.st313{fill:#2AC4CB;}
	.st314{fill:#2AC5CA;}
	.st315{fill:#2BC6CA;}
	.st316{fill:#2BC7C9;}
	.st317{fill:#2CC8C9;}
	.st318{fill:#2CC9C8;}
	.st319{fill:#2DCAC8;}
	.st320{fill:#2DCBC7;}
	.st321{fill:#2ECCC6;}
	.st322{fill:#2ECDC6;}
	.st323{fill:#2ECEC5;}
	.st324{fill:#2FCFC5;}
	.st325{fill:#2FD0C4;}
	.st326{fill:#30D1C4;}
	.st327{fill:#30D2C3;}
	.st328{fill:#31D3C3;}
	.st329{fill:#31D4C2;}
	.st330{fill:#32D5C1;}
	.st331{fill:#32D6C1;}
	.st332{fill:#32D7C0;}
	.st333{fill:#33D8C0;}
	.st334{fill:#33D9BF;}
	.st335{fill:#34DABF;}
	.st336{fill:#34DBBE;}
	.st337{fill:#35DCBE;}
	.st338{fill:#35DDBD;}
	.st339{fill:#36DEBD;}
	.st340{fill:#36DFBC;}
	.st341{fill:url(#SVGID_00000158741317439091938870000012552728746827946127_);}
	.st342{fill:url(#SVGID_00000058558089060387918690000000795498968738820233_);}
</style>
<g>
	<g>
		<defs>
			<rect id="SVGID_1_" width="1280" height="846.8"/>
		</defs>
		<clipPath id="SVGID_00000133525963704124619380000006817342755308448913_">
			<use xlink:href="#SVGID_1_"  style="overflow:visible;"/>
		</clipPath>
		<g style="clip-path:url(#SVGID_00000133525963704124619380000006817342755308448913_);">
			<g>
				<g>
					<defs>
						<rect id="SVGID_00000183236666328990828650000006529367636488619672_" y="439.8" width="1280" height="407"/>
					</defs>
					<clipPath id="SVGID_00000055670147112061596250000016525566144591626650_">
						<use xlink:href="#SVGID_00000183236666328990828650000006529367636488619672_"  style="overflow:visible;"/>
					</clipPath>
					<g style="clip-path:url(#SVGID_00000055670147112061596250000016525566144591626650_);">
						<path class="st2" d="M1280,439.8H1v405h1279V439.8z"/>
						<path class="st2" d="M1142,438.8v406h22.8v-406h22.8v406h22.8v-406h22.8v406h22.8v-406h22.8v203H0v-22.6h1279v-22.6H0V574
							h1279v-22.6H0V529h1279v-22.5H0v-22.6h1279v-22.5H0v-22.6h22.8v406h22.8v-406h22.8v406h22.8v-406H114v406h23v-406h22.8v406
							h159.9v-406h-22.8v406h-22.8v-406h-22.8v406h-22.8v-406h-22.8v406h-22.8v-406h159.9v406h22.8v-406h22.8v406h22.8v-406H434v406
							h22.8v-406h22.8v406h159.9v-406h-22.8v406h-22.8v-406H571v406h-22.8v-406h-22.8v406h-22.8v-406h159.9v406h22.8v-406H708v406
							h22.8v-406h22.8v406h22.8v-406h22.8v406h159.9v-406h-22.8v406h-22.8v-406h-22.8v406h-22.8v-406H845v406h-22.8v-406h159.9v406
							h22.8v-406h22.8v406h22.8v-406h22.8v406h22.8v-406h22.8v406H0v-22.6h1279v-22.6H0V777h1279v-22.6H0v-22.6h1279v-22.6H0v-22.6
							h1279V664H0V438.8H1142z"/>
					</g>
				</g>
			</g>
			<g>
				<g>
					<defs>
						<rect id="SVGID_00000118394734933668653990000002147329283542815664_" y="34.7" width="1280" height="407"/>
					</defs>
					<clipPath id="SVGID_00000101094254591344582920000011471927061531989425_">
						<use xlink:href="#SVGID_00000118394734933668653990000002147329283542815664_"  style="overflow:visible;"/>
					</clipPath>
					<g style="clip-path:url(#SVGID_00000101094254591344582920000011471927061531989425_);">
						<path class="st2" d="M1280,34.7H1v405h1279V34.7z"/>
						<path class="st2" d="M1142,33.7v406h22.8v-406h22.8v406h22.8v-406h22.8v406h22.8v-406h22.8v203H0v-22.6h1279v-22.6H0v-22.6
							h1279v-22.6H0v-22.4h1279v-22.5H0V78.8h1279V56.3H0V33.7h22.8v406h22.8v-406h22.8v406h22.8v-406H114v406h23v-406h22.8v406
							h159.9v-406h-22.8v406h-22.8v-406h-22.8v406h-22.8v-406h-22.8v406h-22.8v-406h159.9v406h22.8v-406h22.8v406h22.8v-406H434v406
							h22.8v-406h22.8v406h159.9v-406h-22.8v406h-22.8v-406H571v406h-22.8v-406h-22.8v406h-22.8v-406h159.9v406h22.8v-406H708v406
							h22.8v-406h22.8v406h22.8v-406h22.8v406h159.9v-406h-22.8v406h-22.8v-406h-22.8v406h-22.8v-406H845v406h-22.8v-406h159.9v406
							h22.8v-406h22.8v406h22.8v-406h22.8v406h22.8v-406h22.8v406H0v-22.6h1279v-22.6H0v-22.6h1279v-22.6H0v-22.6h1279v-22.6H0
							v-22.6h1279v-22.6H0V33.7H1142z"/>
					</g>
				</g>
			</g>
			<g>
				<g>
					<defs>
						<rect id="SVGID_00000039828797392479384700000002219885211637040281_" x="0" y="-370.5" width="1280" height="407"/>
					</defs>
					<clipPath id="SVGID_00000088854754215400206350000001336771370622786719_">
						<use xlink:href="#SVGID_00000039828797392479384700000002219885211637040281_"  style="overflow:visible;"/>
					</clipPath>
					<g style="clip-path:url(#SVGID_00000088854754215400206350000001336771370622786719_);">
						<path class="st2" d="M1280-370.5H1v405h1279V-370.5z"/>
						<path class="st2" d="M1142-371.5v406h22.8v-406h22.8v406h22.8v-406h22.8v406h22.8v-406h22.8v203H0v-22.6h1279v-22.6H0v-22.6
							h1279v-22.6H0v-22.4h1279v-22.5H0v-22.6h1279v-22.5H0v-22.6h22.8v406h22.8v-406h22.8v406h22.8v-406H114v406h23v-406h22.8v406
							h159.9v-406h-22.8v406h-22.8v-406h-22.8v406h-22.8v-406h-22.8v406h-22.8v-406h159.9v406h22.8v-406h22.8v406h22.8v-406H434v406
							h22.8v-406h22.8v406h159.9v-406h-22.8v406h-22.8v-406H571v406h-22.8v-406h-22.8v406h-22.8v-406h159.9v406h22.8v-406H708v406
							h22.8v-406h22.8v406h22.8v-406h22.8v406h159.9v-406h-22.8v406h-22.8v-406h-22.8v406h-22.8v-406H845v406h-22.8v-406h159.9v406
							h22.8v-406h22.8v406h22.8v-406h22.8v406h22.8v-406h22.8v406H0V11.9h1279v-22.6H0v-22.6h1279v-22.6H0v-22.6h1279v-22.6H0v-22.6
							h1279v-22.6H0v-225.2H1142z"/>
					</g>
				</g>
			</g>
			<g>
				
					<ellipse transform="matrix(1.455205e-02 -0.9999 0.9999 1.455205e-02 -605.7029 482.6594)" class="st5" cx="-58" cy="548.6" rx="25.6" ry="25.6"/>
				
					<ellipse transform="matrix(1.455217e-02 -0.9999 0.9999 1.455217e-02 -593.5182 478.4339)" class="st6" cx="-54" cy="540.3" rx="25.7" ry="25.7"/>
				
					<ellipse transform="matrix(1.455223e-02 -0.9999 0.9999 1.455223e-02 -581.3386 474.4387)" class="st7" cx="-50" cy="532.1" rx="26" ry="26"/>
				
					<ellipse transform="matrix(1.455228e-02 -0.9999 0.9999 1.455228e-02 -569.2766 470.556)" class="st8" cx="-45.9" cy="524.1" rx="26.2" ry="26.2"/>
				
					<ellipse transform="matrix(1.455218e-02 -0.9999 0.9999 1.455218e-02 -557.3323 466.786)" class="st9" cx="-41.9" cy="516.1" rx="26.4" ry="26.4"/>
				<circle class="st10" cx="-37.8" cy="508.2" r="26.7"/>
				<circle class="st11" cx="-33.7" cy="500.4" r="26.8"/>
				
					<ellipse transform="matrix(1.455225e-02 -0.9999 0.9999 1.455225e-02 -521.6219 455.8188)" class="st12" cx="-29.6" cy="492.5" rx="27" ry="27"/>
				<circle class="st13" cx="-25.5" cy="484.8" r="27.3"/>
				
					<ellipse transform="matrix(1.455211e-02 -0.9999 0.9999 1.455211e-02 -498.2087 448.9594)" class="st14" cx="-21.3" cy="477.2" rx="27.5" ry="27.5"/>
				
					<ellipse transform="matrix(1.455224e-02 -0.9999 0.9999 1.455224e-02 -486.6223 445.7574)" class="st15" cx="-17.2" cy="469.8" rx="27.6" ry="27.6"/>
				<circle class="st16" cx="-13" cy="462.3" r="27.8"/>
				
					<ellipse transform="matrix(1.455220e-02 -0.9999 0.9999 1.455220e-02 -463.6795 439.3483)" class="st17" cx="-8.9" cy="454.9" rx="28.1" ry="28.1"/>
				<circle class="st18" cx="-4.8" cy="447.5" r="28.3"/>
				<circle class="st19" cx="-0.6" cy="440.4" r="28.4"/>
				
					<ellipse transform="matrix(1.455223e-02 -0.9999 0.9999 1.455223e-02 -429.7436 430.5305)" class="st20" cx="3.5" cy="433.3" rx="28.6" ry="28.6"/>
				<circle class="st21" cx="7.7" cy="426.3" r="28.9"/>
				<circle class="st22" cx="11.9" cy="419.3" r="29.1"/>
				
					<ellipse transform="matrix(1.455218e-02 -0.9999 0.9999 1.455218e-02 -396.5133 422.3883)" class="st23" cx="16" cy="412.4" rx="29.3" ry="29.3"/>
				<circle class="st24" cx="20.2" cy="405.7" r="29.5"/>
				<circle class="st25" cx="24.2" cy="399" r="29.7"/>
				
					<ellipse transform="matrix(1.455219e-02 -0.9999 0.9999 1.455219e-02 -364.3366 415.0292)" class="st26" cx="28.4" cy="392.4" rx="29.9" ry="29.9"/>
				<circle class="st27" cx="32.5" cy="385.9" r="30.2"/>
				<circle class="st28" cx="36.6" cy="379.5" r="30.3"/>
				<circle class="st29" cx="40.7" cy="373.2" r="30.5"/>
				
					<ellipse transform="matrix(1.455220e-02 -0.9999 0.9999 1.455220e-02 -322.8033 406.3773)" class="st30" cx="44.8" cy="367" rx="30.7" ry="30.7"/>
				
					<ellipse transform="matrix(1.455225e-02 -0.9999 0.9999 1.455225e-02 -312.741 404.4088)" class="st31" cx="48.8" cy="360.9" rx="31" ry="31"/>
				<circle class="st32" cx="52.8" cy="354.9" r="31.1"/>
				
					<ellipse transform="matrix(1.455219e-02 -0.9999 0.9999 1.455219e-02 -292.9691 400.8097)" class="st33" cx="56.9" cy="349" rx="31.3" ry="31.3"/>
				<circle class="st34" cx="60.9" cy="343.2" r="31.5"/>
				<circle class="st35" cx="64.9" cy="337.4" r="31.8"/>
				<circle class="st36" cx="68.8" cy="331.9" r="32"/>
				<circle class="st37" cx="72.7" cy="326.4" r="32.1"/>
				<circle class="st38" cx="76.6" cy="321" r="32.4"/>
				<circle class="st39" cx="80.5" cy="315.7" r="32.6"/>
				<circle class="st40" cx="84.3" cy="310.6" r="32.8"/>
				<circle class="st41" cx="88.1" cy="305.5" r="32.9"/>
				<circle class="st42" cx="91.9" cy="300.6" r="33.2"/>
				<circle class="st43" cx="95.7" cy="295.8" r="33.4"/>
				<circle class="st44" cx="99.3" cy="291.1" r="33.6"/>
				<circle class="st45" cx="103" cy="286.4" r="33.9"/>
				<circle class="st46" cx="106.7" cy="281.9" r="34"/>
				
					<ellipse transform="matrix(0.1745 -0.9847 0.9847 0.1745 -182.3093 337.6286)" class="st47" cx="110.2" cy="277.5" rx="34.2" ry="34.2"/>
				<circle class="st48" cx="113.8" cy="273.3" r="34.4"/>
				
					<ellipse transform="matrix(0.1745 -0.9847 0.9847 0.1745 -168.2273 337.6967)" class="st49" cx="117.3" cy="269.2" rx="34.7" ry="34.7"/>
				
					<ellipse transform="matrix(0.1745 -0.9847 0.9847 0.1745 -161.4538 337.7562)" class="st50" cx="120.7" cy="265.2" rx="34.8" ry="34.8"/>
				
					<ellipse transform="matrix(0.1745 -0.9847 0.9847 0.1745 -154.7958 337.9099)" class="st51" cx="124.1" cy="261.3" rx="35" ry="35"/>
				<circle class="st52" cx="127.6" cy="257.5" r="35.3"/>
				
					<ellipse transform="matrix(0.2034 -0.9791 0.9791 0.2034 -144.2865 330.3347)" class="st53" cx="130.9" cy="253.8" rx="35.5" ry="35.5"/>
				
					<ellipse transform="matrix(0.1745 -0.9847 0.9847 0.1745 -135.7976 338.5883)" class="st54" cx="134" cy="250.3" rx="35.6" ry="35.6"/>
				
					<ellipse transform="matrix(0.2034 -0.9791 0.9791 0.2034 -132.2876 331.1191)" class="st55" cx="137.3" cy="246.9" rx="35.8" ry="35.8"/>
				<circle class="st56" cx="140.4" cy="243.7" r="36.1"/>
				
					<ellipse transform="matrix(0.1745 -0.9847 0.9847 0.1745 -118.2375 339.8608)" class="st57" cx="143.6" cy="240.4" rx="36.3" ry="36.3"/>
				<circle class="st58" cx="146.5" cy="237.5" r="36.5"/>
				<circle class="st59" cx="149.6" cy="234.6" r="36.7"/>
				
					<ellipse transform="matrix(0.1745 -0.9847 0.9847 0.1745 -102.5133 341.4745)" class="st60" cx="152.4" cy="231.9" rx="36.9" ry="36.9"/>
				<circle class="st61" cx="155.3" cy="229.3" r="37.1"/>
				
					<ellipse transform="matrix(0.1745 -0.9847 0.9847 0.1745 -92.7966 342.7895)" class="st62" cx="158" cy="226.7" rx="37.3" ry="37.3"/>
				<circle class="st63" cx="160.9" cy="224.3" r="37.5"/>
				<circle class="st64" cx="163.4" cy="222.2" r="37.7"/>
				
					<ellipse transform="matrix(0.1745 -0.9847 0.9847 0.1745 -79.6958 345.1932)" class="st65" cx="166" cy="220.1" rx="37.9" ry="37.9"/>
				<circle class="st66" cx="168.6" cy="218.2" r="38.2"/>
				<circle class="st67" cx="171.1" cy="216.4" r="38.3"/>
				<circle class="st68" cx="173.4" cy="214.7" r="38.5"/>
				
					<ellipse transform="matrix(1.455226e-02 -0.9999 0.9999 1.455226e-02 -39.9691 385.8338)" class="st69" cx="175.8" cy="213.2" rx="38.7" ry="38.7"/>
				
					<ellipse transform="matrix(1.455220e-02 -0.9999 0.9999 1.455220e-02 -36.4183 386.7175)" class="st70" cx="178" cy="211.8" rx="39" ry="39"/>
				
					<ellipse transform="matrix(0.1745 -0.9847 0.9847 0.1745 -58.6982 351.1617)" class="st71" cx="180.1" cy="210.6" rx="39.2" ry="39.2"/>
				
					<ellipse transform="matrix(1.455221e-02 -0.9999 0.9999 1.455221e-02 -30.0123 388.7)" class="st72" cx="182.2" cy="209.6" rx="39.3" ry="39.3"/>
				<circle class="st73" cx="184.2" cy="208.6" r="39.6"/>
				
					<ellipse transform="matrix(1.455226e-02 -0.9999 0.9999 1.455226e-02 -24.4146 390.78)" class="st74" cx="186" cy="207.8" rx="39.8" ry="39.8"/>
				<circle class="st75" cx="187.9" cy="207.2" r="40"/>
				
					<ellipse transform="matrix(1.455216e-02 -0.9999 0.9999 1.455216e-02 -19.7478 393.3004)" class="st76" cx="189.7" cy="206.7" rx="40.1" ry="40.1"/>
				
					<ellipse transform="matrix(1.455224e-02 -0.9999 0.9999 1.455224e-02 -17.8186 394.6093)" class="st77" cx="191.3" cy="206.3" rx="40.4" ry="40.4"/>
				<circle class="st78" cx="192.8" cy="206.1" r="40.6"/>
				
					<ellipse transform="matrix(1.455222e-02 -0.9999 0.9999 1.455222e-02 -14.6558 397.4424)" class="st79" cx="194.3" cy="206.2" rx="40.8" ry="40.8"/>
				
					<ellipse transform="matrix(1.455217e-02 -0.9999 0.9999 1.455217e-02 -13.4223 398.9665)" class="st80" cx="195.7" cy="206.3" rx="41.1" ry="41.1"/>
				<circle class="st81" cx="197" cy="206.5" r="41.2"/>
				
					<ellipse transform="matrix(1.455224e-02 -0.9999 0.9999 1.455224e-02 -11.6458 401.9996)" class="st82" cx="198.1" cy="206.9" rx="41.4" ry="41.4"/>
				
					<ellipse transform="matrix(1.455218e-02 -0.9999 0.9999 1.455218e-02 -11.0054 404.3169)" class="st83" cx="199.6" cy="207.7" rx="41.6" ry="41.6"/>
				
					<ellipse transform="matrix(1.455222e-02 -0.9999 0.9999 1.455222e-02 -10.6103 407.3198)" class="st84" cx="201.3" cy="209" rx="41.9" ry="41.9"/>
				
					<ellipse transform="matrix(1.455219e-02 -0.9999 0.9999 1.455219e-02 -10.5631 410.4303)" class="st85" cx="202.9" cy="210.6" rx="42" ry="42"/>
				<circle class="st86" cx="204.7" cy="212.3" r="42.2"/>
				
					<ellipse transform="matrix(1.455222e-02 -0.9999 0.9999 1.455222e-02 -11.0668 417.6747)" class="st87" cx="206.4" cy="214.5" rx="42.5" ry="42.5"/>
				<circle class="st88" cx="208.2" cy="216.9" r="42.7"/>
				
					<ellipse transform="matrix(1.455219e-02 -0.9999 0.9999 1.455219e-02 -12.7517 426.2753)" class="st89" cx="209.9" cy="219.6" rx="42.8" ry="42.8"/>
				
					<ellipse transform="matrix(1.455225e-02 -0.9999 0.9999 1.455225e-02 -14.0083 431.0848)" class="st90" cx="211.7" cy="222.6" rx="43" ry="43"/>
				<circle class="st91" cx="213.5" cy="225.9" r="43.3"/>
				<circle class="st92" cx="215.4" cy="229.4" r="43.5"/>
				
					<ellipse transform="matrix(1.455223e-02 -0.9999 0.9999 1.455223e-02 -19.0772 446.9822)" class="st93" cx="217.2" cy="233.2" rx="43.7" ry="43.7"/>
				
					<ellipse transform="matrix(1.455222e-02 -0.9999 0.9999 1.455222e-02 -21.2799 452.9227)" class="st94" cx="219.1" cy="237.3" rx="43.8" ry="43.8"/>
				<circle class="st95" cx="221.1" cy="241.5" r="44.1"/>
				
					<ellipse transform="matrix(1.455224e-02 -0.9999 0.9999 1.455224e-02 -26.1557 465.2541)" class="st96" cx="223" cy="245.9" rx="44.3" ry="44.3"/>
				
					<ellipse transform="matrix(1.455227e-02 -0.9999 0.9999 1.455227e-02 -28.8339 471.8752)" class="st97" cx="225" cy="250.6" rx="44.5" ry="44.5"/>
				<circle class="st98" cx="226.9" cy="255.5" r="44.7"/>
				
					<ellipse transform="matrix(1.455217e-02 -0.9999 0.9999 1.455217e-02 -34.891 485.5628)" class="st99" cx="228.9" cy="260.5" rx="44.9" ry="44.9"/>
				
					<ellipse transform="matrix(1.455223e-02 -0.9999 0.9999 1.455223e-02 -38.1573 492.747)" class="st100" cx="230.9" cy="265.7" rx="45.1" ry="45.1"/>
				<circle class="st101" cx="232.9" cy="271.2" r="45.4"/>
				
					<ellipse transform="matrix(1.455219e-02 -0.9999 0.9999 1.455219e-02 -45.2781 507.6782)" class="st102" cx="234.9" cy="276.8" rx="45.5" ry="45.5"/>
				<circle class="st103" cx="237" cy="282.5" r="45.7"/>
				
					<ellipse transform="matrix(1.455223e-02 -0.9999 0.9999 1.455223e-02 -52.8744 523.29)" class="st104" cx="239" cy="288.5" rx="45.9" ry="45.9"/>
				
					<ellipse transform="matrix(1.455221e-02 -0.9999 0.9999 1.455221e-02 -56.8514 531.3799)" class="st105" cx="241.2" cy="294.5" rx="46.2" ry="46.2"/>
				<circle class="st106" cx="243.3" cy="300.7" r="46.4"/>
				<circle class="st107" cx="245.4" cy="307" r="46.5"/>
				
					<ellipse transform="matrix(1.455220e-02 -0.9999 0.9999 1.455220e-02 -69.4884 556.3253)" class="st108" cx="247.5" cy="313.4" rx="46.7" ry="46.7"/>
				<circle class="st109" cx="249.6" cy="319.9" r="47"/>
				
					<ellipse transform="matrix(1.455219e-02 -0.9999 0.9999 1.455219e-02 -78.3886 573.6361)" class="st110" cx="251.8" cy="326.6" rx="47.2" ry="47.2"/>
				
					<ellipse transform="matrix(1.455225e-02 -0.9999 0.9999 1.455225e-02 -83.0715 582.4016)" class="st111" cx="253.9" cy="333.3" rx="47.3" ry="47.3"/>
				<circle class="st112" cx="256.2" cy="340.1" r="47.6"/>
				<circle class="st113" cx="258.4" cy="347" r="47.8"/>
				
					<ellipse transform="matrix(1.455221e-02 -0.9999 0.9999 1.455221e-02 -97.13 609.1585)" class="st114" cx="260.5" cy="353.9" rx="48" ry="48"/>
				
					<ellipse transform="matrix(1.455220e-02 -0.9999 0.9999 1.455220e-02 -101.9355 618.2668)" class="st115" cx="262.7" cy="360.8" rx="48.2" ry="48.2"/>
				
					<ellipse transform="matrix(1.455224e-02 -0.9999 0.9999 1.455224e-02 -106.741 627.3752)" class="st116" cx="264.9" cy="367.8" rx="48.4" ry="48.4"/>
				<circle class="st117" cx="267.2" cy="375" r="48.6"/>
				<circle class="st118" cx="269.5" cy="382.1" r="48.8"/>
				<circle class="st119" cx="271.7" cy="389.2" r="49.1"/>
				<circle class="st120" cx="273.9" cy="396.3" r="49.2"/>
				<circle class="st121" cx="276.2" cy="403.4" r="49.4"/>
				<circle class="st122" cx="278.4" cy="410.5" r="49.6"/>
				<circle class="st123" cx="280.8" cy="417.5" r="49.9"/>
				<circle class="st124" cx="283.1" cy="424.6" r="50"/>
				<circle class="st125" cx="285.3" cy="431.6" r="50.2"/>
				<circle class="st126" cx="287.7" cy="438.6" r="50.5"/>
				<circle class="st127" cx="290" cy="445.5" r="50.7"/>
				<circle class="st128" cx="292.2" cy="452.3" r="50.9"/>
				<circle class="st129" cx="294.6" cy="459.1" r="51"/>
				<circle class="st130" cx="296.9" cy="465.9" r="51.3"/>
				<circle class="st131" cx="299.2" cy="472.5" r="51.5"/>
				<circle class="st132" cx="301.6" cy="478.9" r="51.7"/>
				<circle class="st133" cx="303.8" cy="485.3" r="51.8"/>
				<circle class="st134" cx="306.1" cy="491.6" r="52.1"/>
				<circle class="st135" cx="308.5" cy="497.8" r="52.3"/>
				<circle class="st136" cx="310.8" cy="503.9" r="52.5"/>
				<circle class="st137" cx="313.2" cy="509.7" r="52.7"/>
				<circle class="st138" cx="315.4" cy="515.5" r="52.9"/>
				<circle class="st139" cx="317.8" cy="521" r="53.1"/>
				<circle class="st140" cx="320.1" cy="526.5" r="53.4"/>
				<circle class="st141" cx="322.4" cy="531.8" r="53.6"/>
				<circle class="st142" cx="324.7" cy="536.8" r="53.7"/>
				<circle class="st143" cx="327.1" cy="541.6" r="53.9"/>
				<circle class="st144" cx="329.4" cy="546.3" r="54.2"/>
				<circle class="st145" cx="331.6" cy="550.7" r="54.4"/>
				<circle class="st146" cx="334" cy="554.9" r="54.5"/>
				<circle class="st147" cx="336.3" cy="558.9" r="54.7"/>
				<circle class="st148" cx="338.5" cy="562.6" r="55"/>
				<circle class="st149" cx="340.8" cy="566" r="55.2"/>
				<circle class="st150" cx="343.1" cy="569.3" r="55.4"/>
				<circle class="st151" cx="345.3" cy="572.2" r="55.6"/>
				<circle class="st152" cx="347.6" cy="574.9" r="55.8"/>
				<circle class="st153" cx="349.9" cy="577.3" r="56"/>
				<circle class="st154" cx="352.2" cy="579.4" r="56.3"/>
				<circle class="st155" cx="353.8" cy="580.7" r="56.4"/>
				<circle class="st156" cx="355.3" cy="581.2" r="56.6"/>
				<circle class="st157" cx="357.2" cy="581.3" r="56.8"/>
				<circle class="st158" cx="359.2" cy="581.1" r="57.1"/>
				<circle class="st159" cx="361.7" cy="580.5" r="57.2"/>
				<circle class="st160" cx="364.4" cy="579.6" r="57.4"/>
				<circle class="st161" cx="367.4" cy="578.5" r="57.6"/>
				<circle class="st162" cx="370.6" cy="576.9" r="57.9"/>
				<circle class="st163" cx="374.1" cy="575.2" r="58.1"/>
				<circle class="st164" cx="377.8" cy="573.1" r="58.2"/>
				<circle class="st165" cx="381.8" cy="570.8" r="58.5"/>
				<circle class="st166" cx="385.9" cy="568.3" r="58.7"/>
				<circle class="st167" cx="390.2" cy="565.6" r="58.9"/>
				
					<ellipse transform="matrix(0.1745 -0.9847 0.9847 0.1745 -228.1181 853.1603)" class="st168" cx="394.8" cy="562.6" rx="59" ry="59"/>
				
					<ellipse transform="matrix(0.1745 -0.9847 0.9847 0.1745 -221.0249 855.2653)" class="st169" cx="399.6" cy="559.5" rx="59.3" ry="59.3"/>
				<circle class="st170" cx="404.5" cy="556.2" r="59.5"/>
				<circle class="st171" cx="409.5" cy="552.8" r="59.7"/>
				
					<ellipse transform="matrix(0.1745 -0.9847 0.9847 0.1745 -198.2774 861.7311)" class="st172" cx="414.8" cy="549.1" rx="59.8" ry="59.8"/>
				<circle class="st173" cx="420.1" cy="545.5" r="60.1"/>
				<circle class="st174" cx="425.6" cy="541.6" r="60.3"/>
				<circle class="st175" cx="431.2" cy="537.8" r="60.5"/>
				
					<ellipse transform="matrix(0.1745 -0.9847 0.9847 0.1745 -164.894 870.8775)" class="st176" cx="437" cy="533.8" rx="60.8" ry="60.8"/>
				<circle class="st177" cx="442.8" cy="529.7" r="60.9"/>
				<circle class="st178" cx="448.7" cy="525.7" r="61.1"/>
				
					<ellipse transform="matrix(0.7071 -0.7071 0.7071 0.7071 -235.6011 474.2375)" class="st179" cx="454.7" cy="521.5" rx="61.4" ry="61.4"/>
				
					<ellipse transform="matrix(0.7071 -0.7071 0.7071 0.7071 -230.9268 477.3476)" class="st180" cx="460.7" cy="517.4" rx="61.6" ry="61.6"/>
				<circle class="st181" cx="466.8" cy="513.3" r="61.7"/>
				
					<ellipse transform="matrix(0.7071 -0.7071 0.7071 0.7071 -221.5456 483.6503)" class="st182" cx="473" cy="509.3" rx="61.9" ry="61.9"/>
				
					<ellipse transform="matrix(0.7071 -0.7071 0.7071 0.7071 -216.8714 486.7604)" class="st183" cx="479.1" cy="505.2" rx="62.2" ry="62.2"/>
				<circle class="st184" cx="485.3" cy="501.2" r="62.4"/>
				<circle class="st185" cx="491.7" cy="497.3" r="62.6"/>
				
					<ellipse transform="matrix(1.455221e-02 -0.9999 0.9999 1.455221e-02 -2.8192 984.1234)" class="st186" cx="497.9" cy="493.5" rx="62.7" ry="62.7"/>
				<circle class="st187" cx="504.1" cy="489.8" r="63"/>
				<circle class="st188" cx="510.3" cy="486.1" r="63.2"/>
				<circle class="st189" cx="516.4" cy="482.6" r="63.4"/>
				<circle class="st190" cx="522.5" cy="479.2" r="63.6"/>
				<circle class="st191" cx="528.6" cy="476.1" r="63.8"/>
				<circle class="st192" cx="534.6" cy="473.1" r="64"/>
				
					<ellipse transform="matrix(1.455220e-02 -0.9999 0.9999 1.455220e-02 62.3918 1003.9736)" class="st193" cx="540.5" cy="470.3" rx="64.3" ry="64.3"/>
				<circle class="st194" cx="546.4" cy="467.8" r="64.4"/>
				<circle class="st195" cx="552.1" cy="465.3" r="64.6"/>
				
					<ellipse transform="matrix(1.455221e-02 -0.9999 0.9999 1.455221e-02 86.5841 1014.1757)" class="st196" cx="557.8" cy="463.2" rx="64.8" ry="64.8"/>
				
					<ellipse transform="matrix(1.455219e-02 -0.9999 0.9999 1.455219e-02 93.7582 1017.9025)" class="st197" cx="563.3" cy="461.4" rx="65.1" ry="65.1"/>
				<circle class="st198" cx="568.8" cy="459.7" r="65.3"/>
				
					<ellipse transform="matrix(1.455223e-02 -0.9999 0.9999 1.455223e-02 107.293 1025.6837)" class="st199" cx="574" cy="458.4" rx="65.4" ry="65.4"/>
				
					<ellipse transform="matrix(1.455223e-02 -0.9999 0.9999 1.455223e-02 113.3059 1029.8457)" class="st200" cx="579.1" cy="457.4" rx="65.6" ry="65.6"/>
				<circle class="st201" cx="584.1" cy="456.8" r="65.9"/>
				<circle class="st202" cx="588.9" cy="456.4" r="66.1"/>
				
					<ellipse transform="matrix(1.455220e-02 -0.9999 0.9999 1.455220e-02 128.4442 1043.3052)" class="st203" cx="593.5" cy="456.5" rx="66.2" ry="66.2"/>
				<circle class="st204" cx="598.4" cy="456.9" r="66.5"/>
				<circle class="st205" cx="603.2" cy="457.8" r="66.7"/>
				<circle class="st206" cx="607.8" cy="459" r="66.9"/>
				<circle class="st207" cx="612.1" cy="460.5" r="67"/>
				<circle class="st208" cx="616.3" cy="462.4" r="67.3"/>
				<circle class="st209" cx="620.3" cy="464.7" r="67.5"/>
				<circle class="st210" cx="624.2" cy="467.1" r="67.7"/>
				<circle class="st211" cx="628" cy="469.9" r="68"/>
				<circle class="st212" cx="631.6" cy="472.9" r="68.1"/>
				<circle class="st213" cx="635.1" cy="476.1" r="68.3"/>
				<circle class="st214" cx="638.4" cy="479.6" r="68.5"/>
				<circle class="st215" cx="641.7" cy="483.3" r="68.8"/>
				<circle class="st216" cx="645" cy="487.2" r="68.9"/>
				<circle class="st217" cx="648.1" cy="491.3" r="69.1"/>
				<circle class="st218" cx="658.3" cy="505.3" r="69.4"/>
				<circle class="st219" cx="654.7" cy="500.1" r="69.7"/>
				<circle class="st220" cx="658" cy="504.9" r="69.9"/>
				<circle class="st221" cx="661.4" cy="509.7" r="70.3"/>
				<circle class="st222" cx="664.8" cy="514.7" r="70.6"/>
				<circle class="st223" cx="668.2" cy="519.6" r="70.9"/>
				<circle class="st224" cx="671.8" cy="524.7" r="71.2"/>
				<circle class="st225" cx="675.4" cy="529.7" r="71.4"/>
				<circle class="st226" cx="679" cy="534.8" r="71.8"/>
				<circle class="st227" cx="682.8" cy="539.7" r="72.1"/>
				<circle class="st228" cx="686.7" cy="544.6" r="72.4"/>
				<circle class="st229" cx="690.8" cy="549.3" r="72.7"/>
				<circle class="st230" cx="695" cy="554" r="73.1"/>
				<circle class="st231" cx="699.5" cy="558.5" r="73.3"/>
				<circle class="st232" cx="704.1" cy="562.8" r="73.7"/>
				<circle class="st233" cx="709" cy="567" r="73.9"/>
				<circle class="st234" cx="714.1" cy="570.9" r="74.2"/>
				<circle class="st235" cx="719.4" cy="574.6" r="74.6"/>
				<circle class="st236" cx="725" cy="578" r="74.8"/>
				<circle class="st237" cx="731" cy="581.1" r="75.2"/>
				<circle class="st238" cx="737.2" cy="583.9" r="75.5"/>
				<circle class="st239" cx="743.8" cy="586.3" r="75.7"/>
				<circle class="st240" cx="750.8" cy="588.3" r="76.1"/>
				<circle class="st241" cx="758.1" cy="590.1" r="76.3"/>
				<circle class="st242" cx="765.8" cy="591.3" r="76.7"/>
				<circle class="st243" cx="773.9" cy="592.2" r="77"/>
				<circle class="st244" cx="782.4" cy="592.5" r="77.2"/>
				<circle class="st245" cx="786.1" cy="592.5" r="77.6"/>
				<circle class="st246" cx="789.8" cy="592.3" r="77.9"/>
				<circle class="st247" cx="793.5" cy="592" r="78.2"/>
				<circle class="st248" cx="797.3" cy="591.6" r="78.5"/>
				<circle class="st249" cx="801.3" cy="590.9" r="78.9"/>
				<circle class="st250" cx="805.1" cy="590.2" r="79.1"/>
				<circle class="st251" cx="809.2" cy="589.2" r="79.4"/>
				<circle class="st252" cx="813.3" cy="588.2" r="79.7"/>
				<circle class="st253" cx="817.4" cy="587" r="80"/>
				<circle class="st254" cx="821.5" cy="585.7" r="80.4"/>
				<circle class="st255" cx="825.7" cy="584.2" r="80.6"/>
				<circle class="st256" cx="830.1" cy="582.7" r="81"/>
				<circle class="st257" cx="834.4" cy="581" r="81.3"/>
				<circle class="st258" cx="838.7" cy="579.2" r="81.5"/>
				<circle class="st259" cx="843.1" cy="577.3" r="81.9"/>
				<circle class="st260" cx="847.6" cy="575.1" r="82.1"/>
				<circle class="st261" cx="852" cy="573" r="82.5"/>
				<circle class="st262" cx="856.6" cy="570.7" r="82.8"/>
				<circle class="st263" cx="861.1" cy="568.3" r="83"/>
				<circle class="st264" cx="865.8" cy="565.8" r="83.4"/>
				<circle class="st265" cx="870.4" cy="563.2" r="83.7"/>
				<circle class="st266" cx="875" cy="560.3" r="84"/>
				<circle class="st267" cx="879.8" cy="557.5" r="84.3"/>
				<circle class="st268" cx="884.5" cy="554.6" r="84.6"/>
				<circle class="st269" cx="889.3" cy="551.5" r="84.9"/>
				<circle class="st270" cx="894.1" cy="548.4" r="85.2"/>
				<circle class="st271" cx="898.9" cy="545.1" r="85.5"/>
				<circle class="st272" cx="903.8" cy="541.9" r="85.8"/>
				<circle class="st273" cx="908.8" cy="538.4" r="86.2"/>
				<circle class="st274" cx="913.7" cy="534.9" r="86.4"/>
				<circle class="st275" cx="918.6" cy="531.3" r="86.8"/>
				<circle class="st276" cx="923.5" cy="527.6" r="87.1"/>
				<circle class="st277" cx="928.6" cy="523.9" r="87.3"/>
				<circle class="st278" cx="933.5" cy="520" r="87.7"/>
				<circle class="st279" cx="938.6" cy="516" r="87.9"/>
				
					<ellipse transform="matrix(0.7071 -0.7071 0.7071 0.7071 -85.6934 817.2036)" class="st280" cx="943.6" cy="512" rx="88.3" ry="88.3"/>
				<circle class="st281" cx="948.7" cy="508.1" r="88.6"/>
				
					<ellipse transform="matrix(0.7071 -0.7071 0.7071 0.7071 -76.9348 821.9388)" class="st282" cx="953.7" cy="503.8" rx="88.8" ry="88.8"/>
				<circle class="st283" cx="958.7" cy="499.6" r="89.2"/>
				
					<ellipse transform="matrix(0.7071 -0.7071 0.7071 0.7071 -67.9785 826.691)" class="st284" cx="963.9" cy="495.4" rx="89.5" ry="89.5"/>
				
					<ellipse transform="matrix(0.7071 -0.7071 0.7071 0.7071 -63.4343 828.993)" class="st285" cx="969" cy="491.1" rx="89.8" ry="89.8"/>
				
					<ellipse transform="matrix(0.7071 -0.7071 0.7071 0.7071 -58.8075 831.2623)" class="st286" cx="974" cy="486.6" rx="90.1" ry="90.1"/>
				<circle class="st287" cx="979.2" cy="482.2" r="90.4"/>
				<circle class="st288" cx="984.2" cy="477.6" r="90.7"/>
				
					<ellipse transform="matrix(0.7071 -0.7071 0.7071 0.7071 -44.6966 838.1696)" class="st289" cx="989.4" cy="473" rx="91" ry="91"/>
				
					<ellipse transform="matrix(0.7071 -0.7071 0.7071 0.7071 -39.9874 840.4061)" class="st290" cx="994.5" cy="468.5" rx="91.3" ry="91.3"/>
				<circle class="st291" cx="999.6" cy="463.8" r="91.6"/>
				<circle class="st292" cx="1004.8" cy="459" r="92"/>
				<circle class="st293" cx="1009.9" cy="454.2" r="92.2"/>
				
					<ellipse transform="matrix(0.7071 -0.7071 0.7071 0.7071 -20.5072 849.2878)" class="st294" cx="1014.9" cy="449.4" rx="92.6" ry="92.6"/>
				
					<ellipse transform="matrix(0.7071 -0.7071 0.7071 0.7071 -15.6002 851.5412)" class="st295" cx="1020.1" cy="444.6" rx="92.8" ry="92.8"/>
				
					<ellipse transform="matrix(0.7071 -0.7071 0.7071 0.7071 -10.6434 853.6794)" class="st296" cx="1025.2" cy="439.7" rx="93.1" ry="93.1"/>
				<circle class="st297" cx="1030.3" cy="434.7" r="93.5"/>
				
					<ellipse transform="matrix(0.7071 -0.7071 0.7071 0.7071 -0.6146 858.0056)" class="st298" cx="1035.4" cy="429.7" rx="93.7" ry="93.7"/>
				<circle class="st299" cx="1040.5" cy="424.7" r="94.1"/>
				<circle class="st300" cx="1045.5" cy="419.7" r="94.4"/>
				<circle class="st301" cx="1050.6" cy="414.7" r="94.6"/>
				<circle class="st302" cx="1055.5" cy="409.5" r="95"/>
				
					<ellipse transform="matrix(0.7071 -0.7071 0.7071 0.7071 24.7139 868.3845)" class="st303" cx="1060.6" cy="404.4" rx="95.3" ry="95.3"/>
				<circle class="st304" cx="1065.7" cy="399.2" r="95.6"/>
				
					<ellipse transform="matrix(0.7071 -0.7071 0.7071 0.7071 34.9247 872.4473)" class="st305" cx="1070.6" cy="394.1" rx="95.9" ry="95.9"/>
				<circle class="st306" cx="1075.5" cy="388.9" r="96.2"/>
				
					<ellipse transform="matrix(0.7071 -0.7071 0.7071 0.7071 45.1026 876.4276)" class="st307" cx="1080.5" cy="383.8" rx="96.5" ry="96.5"/>
				<circle class="st308" cx="1085.4" cy="378.5" r="96.8"/>
				
					<ellipse transform="matrix(0.7071 -0.7071 0.7071 0.7071 55.4129 880.2598)" class="st309" cx="1090.3" cy="373.2" rx="97.1" ry="97.1"/>
				<circle class="st310" cx="1095.1" cy="368.1" r="97.4"/>
				
					<ellipse transform="matrix(0.7071 -0.7071 0.7071 0.7071 65.6078 884.0424)" class="st311" cx="1099.9" cy="362.8" rx="97.8" ry="97.8"/>
				<circle class="st312" cx="1104.8" cy="357.6" r="98"/>
				
					<ellipse transform="matrix(0.7071 -0.7071 0.7071 0.7071 75.8028 887.8249)" class="st313" cx="1109.6" cy="352.4" rx="98.4" ry="98.4"/>
				<circle class="st314" cx="1114.3" cy="347.1" r="98.6"/>
				
					<ellipse transform="matrix(0.7071 -0.7071 0.7071 0.7071 86.0146 891.4097)" class="st315" cx="1119" cy="341.9" rx="98.9" ry="98.9"/>
				<circle class="st316" cx="1123.7" cy="336.7" r="99.3"/>
				
					<ellipse transform="matrix(0.7071 -0.7071 0.7071 0.7071 96.1112 894.9446)" class="st317" cx="1128.3" cy="331.5" rx="99.5" ry="99.5"/>
				<circle class="st318" cx="1132.9" cy="326.2" r="99.9"/>
				<circle class="st319" cx="1137.5" cy="321" r="100.2"/>
				<circle class="st320" cx="1142" cy="315.9" r="100.4"/>
				<circle class="st321" cx="1146.5" cy="310.7" r="100.8"/>
				<circle class="st322" cx="1151" cy="305.6" r="101"/>
				<circle class="st323" cx="1155.4" cy="300.4" r="101.4"/>
				<circle class="st324" cx="1159.7" cy="295.3" r="101.7"/>
				<circle class="st325" cx="1164.1" cy="290.2" r="102"/>
				<circle class="st326" cx="1168.3" cy="285.2" r="102.3"/>
				<circle class="st327" cx="1172.5" cy="280.1" r="102.6"/>
				<circle class="st328" cx="1176.7" cy="275.1" r="102.9"/>
				<circle class="st329" cx="1180.7" cy="270.2" r="103.2"/>
				<circle class="st330" cx="1184.9" cy="265.2" r="103.6"/>
				<circle class="st331" cx="1188.9" cy="260.3" r="103.8"/>
				<circle class="st332" cx="1192.8" cy="255.5" r="104.2"/>
				<circle class="st333" cx="1196.7" cy="250.7" r="104.4"/>
				<circle class="st334" cx="1200.5" cy="246" r="104.7"/>
				<circle class="st335" cx="1204.2" cy="241.3" r="105.1"/>
				<circle class="st336" cx="1207.9" cy="236.6" r="105.3"/>
				<circle class="st337" cx="1211.6" cy="232" r="105.7"/>
				<circle class="st338" cx="1215.1" cy="227.4" r="106"/>
				<circle class="st339" cx="1218.7" cy="222.9" r="106.2"/>
				<circle class="st340" cx="1222.1" cy="218.4" r="106.6"/>
			</g>
			
				<radialGradient id="SVGID_00000077315282394902169110000000498453298184112785_" cx="0.524" cy="748.7594" r="1" gradientTransform="matrix(3.961733e-14 -1346.0784 1166.04 1.485458e-13 -872443.4375 1552.047)" gradientUnits="userSpaceOnUse">
				<stop  offset="0" style="stop-color:#FFFFFF;stop-opacity:0"/>
				<stop  offset="1" style="stop-color:#BBD6FF"/>
			</radialGradient>
			<rect style="fill:url(#SVGID_00000077315282394902169110000000498453298184112785_);" width="1280" height="846.8"/>
			
				<linearGradient id="SVGID_00000158010851280706017580000007321034810666423964_" gradientUnits="userSpaceOnUse" x1="640" y1="1463.7603" x2="640" y2="617" gradientTransform="matrix(1 0 0 1 0 -617)">
				<stop  offset="0" style="stop-color:#FFFFFF"/>
				<stop  offset="1" style="stop-color:#FFFFFF;stop-opacity:0"/>
			</linearGradient>
			<rect style="fill:url(#SVGID_00000158010851280706017580000007321034810666423964_);" width="1280" height="846.8"/>
		</g>
	</g>
</g>
</svg>
