<?xml version="1.0" encoding="UTF-8"?><svg id="Capa_1" xmlns="http://www.w3.org/2000/svg" viewBox="0 0 47.43 47.43"><defs><style>.cls-1{fill:#fff;}</style></defs><rect width="47.43" height="47.43"/><g><path class="cls-1" d="M36.64,18.36c-.06-1.39-.28-2.33-.6-3.16-.34-.86-.78-1.58-1.5-2.3s-1.45-1.17-2.31-1.5c-.82-.32-1.77-.54-3.15-.61-1.39-.06-1.83-.08-5.36-.08s-3.98,.02-5.36,.08c-1.39,.07-2.33,.29-3.16,.61-.86,.33-1.58,.77-2.3,1.5-.73,.72-1.17,1.44-1.5,2.3-.33,.83-.54,1.77-.61,3.16-.06,1.38-.08,1.83-.08,5.36s.02,3.97,.08,5.36c.07,1.38,.28,2.33,.61,3.15,.33,.86,.77,1.58,1.5,2.31,.72,.72,1.44,1.16,2.3,1.5,.83,.32,1.77,.54,3.16,.6,1.38,.06,1.82,.08,5.36,.08s3.97-.02,5.36-.08c1.38-.06,2.33-.28,3.15-.6,.86-.34,1.58-.78,2.31-1.5,.72-.73,1.16-1.45,1.5-2.31,.32-.82,.54-1.77,.6-3.15,.06-1.39,.08-1.83,.08-5.36s-.02-3.98-.08-5.36Zm-2.34,10.61c-.06,1.27-.27,1.96-.45,2.41-.23,.61-.52,1.04-.97,1.5-.46,.45-.89,.74-1.5,.97-.45,.18-1.14,.39-2.41,.45-1.37,.06-1.78,.08-5.25,.08s-3.89-.02-5.26-.08c-1.27-.06-1.95-.27-2.41-.45-.61-.23-1.04-.52-1.5-.97-.45-.46-.73-.89-.97-1.5-.18-.45-.39-1.14-.45-2.41-.06-1.37-.07-1.78-.07-5.25s.01-3.89,.07-5.26c.06-1.27,.27-1.95,.45-2.41,.24-.61,.52-1.04,.97-1.5,.46-.45,.89-.73,1.5-.97,.46-.18,1.14-.39,2.41-.45,1.37-.06,1.78-.07,5.26-.07s3.88,0,5.25,.07c1.27,.06,1.96,.27,2.41,.45,.61,.24,1.04,.52,1.5,.97,.45,.46,.74,.89,.97,1.5,.18,.46,.39,1.14,.45,2.41,.06,1.37,.08,1.78,.08,5.26s-.02,3.88-.08,5.25Z"/><path class="cls-1" d="M23.72,17.04c-3.69,0-6.68,2.99-6.68,6.68s2.99,6.67,6.68,6.67,6.67-2.99,6.67-6.67-2.99-6.68-6.67-6.68Zm0,11.01c-2.4,0-4.34-1.94-4.34-4.33s1.94-4.34,4.34-4.34,4.33,1.94,4.33,4.34-1.94,4.33-4.33,4.33Z"/><path class="cls-1" d="M32.21,16.77c0,.86-.7,1.56-1.56,1.56s-1.56-.7-1.56-1.56,.7-1.56,1.56-1.56,1.56,.7,1.56,1.56h0Z"/></g></svg>