<?xml version="1.0" encoding="UTF-8"?><svg id="Livello_1" xmlns="http://www.w3.org/2000/svg" xmlns:xlink="http://www.w3.org/1999/xlink" viewBox="0 0 500 500"><defs><style>.cls-1{fill:#fff;}.cls-2{fill:url(#Sfumatura_senza_nome_2);}.cls-3{fill:url(#Sfumatura_senza_nome_8);}.cls-4{fill:url(#Sfumatura_senza_nome_5);}.cls-5{fill:url(#Sfumatura_senza_nome_9);}.cls-6{fill:url(#Sfumatura_senza_nome_3);}.cls-7{fill:url(#Sfumatura_senza_nome_3-2);}.cls-8{fill:url(#Sfumatura_senza_nome_5-2);}.cls-9{fill:url(#Sfumatura_senza_nome_7);fill-opacity:.8;}.cls-10{fill:url(#Sfumatura_senza_nome_6);fill-opacity:.78;}.cls-11{fill:url(#Sfumatura_senza_nome_11-2);}.cls-12{fill:url(#Sfumatura_senza_nome_11);}</style><linearGradient id="Sfumatura_senza_nome_3" x1="140.66" y1="336.03" x2="246.83" y2="353.61" gradientTransform="translate(0 502) scale(1 -1)" gradientUnits="userSpaceOnUse"><stop offset="0" stop-color="#d571ff"/><stop offset="1" stop-color="#d571ff" stop-opacity="0"/></linearGradient><radialGradient id="Sfumatura_senza_nome_2" cx="1.16" cy="501.06" fx="1.16" fy="501.06" r=".78" gradientTransform="translate(-129471.24 50834.27) rotate(70.1) scale(237.88 -277.68) skewX(-1.82)" gradientUnits="userSpaceOnUse"><stop offset="0" stop-color="#d571ff"/><stop offset="1" stop-color="#d571ff" stop-opacity="0"/></radialGradient><linearGradient id="Sfumatura_senza_nome_3-2" x1="259.51" y1="371.51" x2="257.78" y2="313.45" xlink:href="#Sfumatura_senza_nome_3"/><linearGradient id="Sfumatura_senza_nome_5" x1="126.62" y1="230.12" x2="265.47" y2="283.3" gradientTransform="translate(0 502) scale(1 -1)" gradientUnits="userSpaceOnUse"><stop offset="0" stop-color="#1260f2"/><stop offset="1" stop-color="#1260f2" stop-opacity="0"/></linearGradient><linearGradient id="Sfumatura_senza_nome_5-2" x1="414.79" y1="322.21" x2="244.55" y2="245.49" xlink:href="#Sfumatura_senza_nome_5"/><linearGradient id="Sfumatura_senza_nome_6" x1="157.99" y1="292.68" x2="382.48" y2="250.94" gradientTransform="translate(0 502) scale(1 -1)" gradientUnits="userSpaceOnUse"><stop offset="0" stop-color="#36dfbc" stop-opacity="0"/><stop offset="1" stop-color="#36dfbc"/></linearGradient><radialGradient id="Sfumatura_senza_nome_7" cx="1.21" cy="501.12" fx="1.21" fy="501.12" r=".78" gradientTransform="translate(-116851.46 11872.09) rotate(84.6) scale(218.77 -234.64) skewX(-.49)" gradientUnits="userSpaceOnUse"><stop offset="0" stop-color="#36dfbc"/><stop offset="1" stop-color="#36dfbc" stop-opacity="0"/></radialGradient><linearGradient id="Sfumatura_senza_nome_8" x1="222.14" y1="242.61" x2="271.94" y2="337.92" gradientTransform="translate(0 502) scale(1 -1)" gradientUnits="userSpaceOnUse"><stop offset="0" stop-color="#36dfbc" stop-opacity="0"/><stop offset=".75" stop-color="#36dfbc"/></linearGradient><radialGradient id="Sfumatura_senza_nome_9" cx="1.28" cy="501.08" fx="1.28" fy="501.08" r=".78" gradientTransform="translate(78976.5 33414.02) rotate(-69.01) scale(136.69 -170.26) skewX(2.03)" gradientUnits="userSpaceOnUse"><stop offset="0" stop-color="#d571ff" stop-opacity="0"/><stop offset="1" stop-color="#d571ff"/></radialGradient><linearGradient id="Sfumatura_senza_nome_11" x1="270.72" y1="227.36" x2="278.37" y2="175.37" gradientTransform="translate(0 502) scale(1 -1)" gradientUnits="userSpaceOnUse"><stop offset="0" stop-color="#fff"/><stop offset="1" stop-color="#fff" stop-opacity="0"/></linearGradient><linearGradient id="Sfumatura_senza_nome_11-2" x1="221.45" y1="362.36" x2="221.45" y2="196.14" xlink:href="#Sfumatura_senza_nome_11"/></defs><rect class="cls-1" width="500" height="500"/><path class="cls-6" d="M132.42,103.37c-19.1-62.8,69.09-64.31,99.95,9.19,15.6,37.17,12.61,90.01,9.26,142.97-47.96-58.73-99.19-119.24-109.2-152.17Z"/><path class="cls-2" d="M255.38,425.04c157.34-28.94,223.68-170.76,164.14-261.02-27.77-42.09-71.25-34.28-164.14-28.48-92.89,5.8-185.21,22.06-185.21,148.58,0,126.52,112.92,154.22,185.21,140.92Z"/><path class="cls-7" d="M255.38,425.04c157.34-28.94,223.68-170.76,164.14-261.02-27.77-42.09-71.25-34.28-164.14-28.48-92.89,5.8-185.21,22.06-185.21,148.58,0,126.52,112.92,154.22,185.21,140.92Z"/><path class="cls-4" d="M115.73,276.46c0-84.63,25.09-163.57,37.72-200.94,5.2-15.38,24.64-19.76,37.6-10.63,22.07,13.87,66.55,47.57,111.44,79.88,46.65,33.57,113.92,70.69,83.04,180.75-23.39,83.39-137.53,79.62-137.53,79.62,0,0-132.28-2.29-132.28-128.67Z"/><path class="cls-8" d="M371,401.26c64.67-58.97,87.12-182.24,43.76-258.82-43.36-76.58-105.13-94.42-156.53-91.91-51.4,2.51-155.8,36-160.21,156.24-4.41,120.23,55.59,171.23,118.35,228.69,24.25,22.2,89.96,24.77,154.63-34.2Z"/><path class="cls-10" d="M146.32,364.75c3.7,2.28,7,4.5,9.47,6.8,32.19,30.04,81.54,26.85,133.8,12.61,55.12-15.02,144.53-42.09,159.04-113.79,8.22-40.61-21.62-95.17-61.65-139.44-36.46-40.32-80.94-72.11-121.24-77.03-10.1-1.23-22.42-1.35-35.64,.44-76.55,16.46-117.87,61.06-124.18,151.82-6.31,90.76,.81,108.29,40.39,158.58Z"/><path class="cls-9" d="M52.28,269.06c-11.99-86.82,23.34-180.42,104.14-180.42,63.79,0,99.84,50.82,148.84,84.2,60.18,41,106.32,69.27,106.32,110.79,0,75.34-107.78,115.35-210.59,72.46-75.01-31.29-136.71-.23-148.7-87.05Z"/><path class="cls-3" d="M52.28,269.06c-11.99-86.82,23.34-180.42,104.14-180.42,63.79,0,99.84,50.82,148.84,84.2,60.18,41,106.32,69.27,106.32,110.79,0,75.34-107.78,115.35-210.59,72.46-75.01-31.29-136.71-.23-148.7-87.05Z"/><path class="cls-5" d="M247.81,396.7c26.46,75.82,93.34,52.07,83.04-7.66-4.9-28.41-45.71-80.23-89.22-133.51-3.28,51.78-6.9,103.68,6.18,141.17Z"/><path class="cls-12" d="M247.81,396.7c26.46,75.82,93.34,52.07,83.04-7.66-4.9-28.41-45.71-80.23-89.22-133.51-3.28,51.78-6.9,103.68,6.18,141.17Z"/><path class="cls-11" d="M284,240.68c0,36-28,65.18-62.55,65.18s-62.55-29.18-62.55-65.18c0-13.84,4.14-26.68,11.2-37.23,7.14-10.68,11.99-12.06,3.83-21.91-10.6-12.8-19.92-28.67,32.04-37.22,48.47-7.98,72.85-10.97,59.78,35.64-2.98,10.64,.31,13.72,6.52,22.72,7.38,10.7,11.73,23.82,11.73,38.01Z"/></svg>