<?xml version="1.0" encoding="UTF-8"?><svg id="Livello_1" xmlns="http://www.w3.org/2000/svg" xmlns:xlink="http://www.w3.org/1999/xlink" viewBox="0 0 500.08 250.04"><defs><style>.cls-1{fill:#fff;}.cls-2{fill:url(#Sfumatura_senza_nome_2);}.cls-3{fill:url(#Sfumatura_senza_nome_8);}.cls-4{fill:url(#Sfumatura_senza_nome_5);}.cls-5{fill:url(#Sfumatura_senza_nome_9);}.cls-6{fill:url(#Sfumatura_senza_nome_3);}.cls-7{fill:url(#Sfumatura_senza_nome_3-2);}.cls-8{fill:url(#Sfumatura_senza_nome_5-2);}.cls-9{fill:url(#Sfumatura_senza_nome_7);fill-opacity:.8;}.cls-10{fill:url(#Sfumatura_senza_nome_6);fill-opacity:.78;}.cls-11{fill:url(#Sfumatura_senza_nome_11-2);}.cls-12{fill:url(#Sfumatura_senza_nome_11);}</style><linearGradient id="Sfumatura_senza_nome_3" x1="204.11" y1="84.31" x2="256.14" y2="75.69" gradientTransform="translate(0 2)" gradientUnits="userSpaceOnUse"><stop offset="0" stop-color="#d571ff"/><stop offset="1" stop-color="#d571ff" stop-opacity="0"/></linearGradient><radialGradient id="Sfumatura_senza_nome_2" cx=".96" cy="-1.34" fx=".96" fy="-1.34" r=".38" gradientTransform="translate(-209.63 12.13) rotate(70.1) scale(237.88 277.68) skewX(1.82)" gradientUnits="userSpaceOnUse"><stop offset="0" stop-color="#d571ff"/><stop offset="1" stop-color="#d571ff" stop-opacity="0"/></radialGradient><linearGradient id="Sfumatura_senza_nome_3-2" x1="262.35" y1="66.92" x2="261.5" y2="95.37" xlink:href="#Sfumatura_senza_nome_3"/><linearGradient id="Sfumatura_senza_nome_5" x1="197.23" y1="136.21" x2="265.27" y2="110.15" gradientTransform="translate(0 2)" gradientUnits="userSpaceOnUse"><stop offset="0" stop-color="#1260f2"/><stop offset="1" stop-color="#1260f2" stop-opacity="0"/></linearGradient><linearGradient id="Sfumatura_senza_nome_5-2" x1="338.44" y1="91.08" x2="255.02" y2="128.67" xlink:href="#Sfumatura_senza_nome_5"/><linearGradient id="Sfumatura_senza_nome_6" x1="212.6" y1="105.55" x2="322.61" y2="126" gradientTransform="translate(0 2)" gradientUnits="userSpaceOnUse"><stop offset="0" stop-color="#36dfbc" stop-opacity="0"/><stop offset="1" stop-color="#36dfbc"/></linearGradient><radialGradient id="Sfumatura_senza_nome_7" cx=".99" cy="-1.4" fx=".99" fy="-1.4" r=".38" gradientTransform="translate(-139.35 -109.37) rotate(84.6) scale(218.77 234.64) skewX(.49)" gradientUnits="userSpaceOnUse"><stop offset="0" stop-color="#36dfbc"/><stop offset="1" stop-color="#36dfbc" stop-opacity="0"/></radialGradient><linearGradient id="Sfumatura_senza_nome_8" x1="244.03" y1="130.08" x2="268.44" y2="83.38" gradientTransform="translate(0 2)" gradientUnits="userSpaceOnUse"><stop offset="0" stop-color="#36dfbc" stop-opacity="0"/><stop offset=".75" stop-color="#36dfbc"/></linearGradient><radialGradient id="Sfumatura_senza_nome_9" cx="2.76" cy="-1.49" fx="2.76" fy="-1.49" r=".38" gradientTransform="translate(360.1 663.21) rotate(-69.01) scale(136.69 170.26) skewX(-2.03)" gradientUnits="userSpaceOnUse"><stop offset="0" stop-color="#d571ff" stop-opacity="0"/><stop offset="1" stop-color="#d571ff"/></radialGradient><linearGradient id="Sfumatura_senza_nome_11" x1="267.84" y1="137.56" x2="271.59" y2="163.04" gradientTransform="translate(0 2)" gradientUnits="userSpaceOnUse"><stop offset="0" stop-color="#fff"/><stop offset="1" stop-color="#fff" stop-opacity="0"/></linearGradient><linearGradient id="Sfumatura_senza_nome_11-2" x1="243.7" y1="71.41" x2="243.7" y2="152.86" xlink:href="#Sfumatura_senza_nome_11"/></defs><rect class="cls-1" width="500.08" height="250.04"/><rect class="cls-1" x="130.01" y="4.99" width="245.02" height="245.02"/><path class="cls-6" d="M200.07,55.63c-9.36-30.77,33.86-31.51,48.98,4.5,7.64,18.21,6.18,44.11,4.54,70.06-23.5-28.78-48.61-58.43-53.51-74.57h0Z"/><path class="cls-2" d="M260.33,213.26c77.1-14.18,109.61-83.68,80.43-127.91-13.61-20.63-34.92-16.8-80.43-13.96s-90.76,10.81-90.76,72.81,55.33,75.57,90.76,69.06h0Z"/><path class="cls-7" d="M260.33,213.26c77.1-14.18,109.61-83.68,80.43-127.91-13.61-20.63-34.92-16.8-80.43-13.96s-90.76,10.81-90.76,72.81,55.33,75.57,90.76,69.06h0Z"/><path class="cls-4" d="M191.89,140.45c0-41.47,12.3-80.16,18.48-98.47,2.55-7.54,12.07-9.68,18.43-5.21,10.82,6.8,32.61,23.31,54.61,39.14,22.86,16.45,55.82,34.64,40.69,88.57-11.46,40.86-67.39,39.02-67.39,39.02,0,0-64.82-1.12-64.82-63.05h0Z"/><path class="cls-8" d="M316.98,201.61c31.69-28.9,42.69-89.3,21.44-126.83-21.25-37.53-51.52-46.27-76.71-45.04-25.19,1.23-76.35,17.64-78.51,76.56-2.16,58.92,27.24,83.91,58,112.07,11.88,10.88,44.08,12.14,75.77-16.76Z"/><path class="cls-10" d="M206.88,183.72c1.81,1.12,3.43,2.21,4.64,3.33,15.77,14.72,39.96,13.16,65.57,6.18,27.01-7.36,70.82-20.63,77.94-55.76,4.03-19.9-10.59-46.64-30.21-68.33-17.87-19.76-39.66-35.34-59.41-37.75-4.95-.6-10.99-.66-17.46,.22-37.51,8.07-57.76,29.92-60.85,74.4s.4,53.07,19.79,77.71h0Z"/><path class="cls-9" d="M160.8,136.82c-5.88-42.54,11.44-88.41,51.03-88.41,31.26,0,48.93,24.9,72.94,41.26,29.49,20.09,52.1,33.94,52.1,54.29,0,36.92-52.82,56.53-103.2,35.51-36.76-15.33-66.99-.11-72.87-42.66h0Z"/><path class="cls-3" d="M160.8,136.82c-5.88-42.54,11.44-88.41,51.03-88.41,31.26,0,48.93,24.9,72.94,41.26,29.49,20.09,52.1,33.94,52.1,54.29,0,36.92-52.82,56.53-103.2,35.51-36.76-15.33-66.99-.11-72.87-42.66h0Z"/><path class="cls-5" d="M256.62,199.37c12.97,37.15,45.74,25.52,40.69-3.75-2.4-13.92-22.4-39.32-43.72-65.42-1.61,25.37-3.38,50.81,3.03,69.18Z"/><path class="cls-12" d="M256.62,199.37c12.97,37.15,45.74,25.52,40.69-3.75-2.4-13.92-22.4-39.32-43.72-65.42-1.61,25.37-3.38,50.81,3.03,69.18Z"/><path class="cls-11" d="M274.35,122.92c0,17.64-13.72,31.94-30.65,31.94s-30.65-14.3-30.65-31.94c0-6.78,2.03-13.07,5.49-18.24,3.5-5.23,5.88-5.91,1.88-10.74-5.19-6.27-9.76-14.05,15.7-18.24,23.75-3.91,35.7-5.38,29.29,17.46-1.46,5.21,.15,6.72,3.2,11.13,3.62,5.24,5.75,11.67,5.75,18.63h0Z"/></svg>