<?xml version="1.0" encoding="utf-8"?>
<!-- Generator: Adobe Illustrator 27.0.0, SVG Export Plug-In . SVG Version: 6.00 Build 0)  -->
<svg version="1.1" id="Livello_1" xmlns="http://www.w3.org/2000/svg" xmlns:xlink="http://www.w3.org/1999/xlink" x="0px" y="0px"
	 viewBox="0 0 700 1200" style="enable-background:new 0 0 700 1200;" xml:space="preserve">
<style type="text/css">
	.st0{clip-path:url(#SVGID_00000130607853842597091260000006838885891601683898_);}
	.st1{fill:none;stroke:#CADDFA;stroke-miterlimit:10;}
	.st2{fill:#D571FF;}
	.st3{fill:#D471FF;}
	.st4{fill:#D371FF;}
	.st5{fill:#D271FF;}
	.st6{fill:#D171FF;}
	.st7{fill:#D071FF;}
	.st8{fill:#CF71FF;}
	.st9{fill:#CE71FF;}
	.st10{fill:#CD71FF;}
	.st11{fill:#CC71FF;}
	.st12{fill:#CB70FF;}
	.st13{fill:#CA70FF;}
	.st14{fill:#C970FF;}
	.st15{fill:#C870FF;}
	.st16{fill:#C770FF;}
	.st17{fill:#C670FF;}
	.st18{fill:#C570FF;}
	.st19{fill:#C470FF;}
	.st20{fill:#C370FF;}
	.st21{fill:#C270FF;}
	.st22{fill:#C170FF;}
	.st23{fill:#C070FF;}
	.st24{fill:#BF70FF;}
	.st25{fill:#BE70FF;}
	.st26{fill:#BD70FF;}
	.st27{fill:#BC70FF;}
	.st28{fill:#BB70FF;}
	.st29{fill:#BA70FF;}
	.st30{fill:#B970FF;}
	.st31{fill:#B870FF;}
	.st32{fill:#B76FFF;}
	.st33{fill:#B66FFF;}
	.st34{fill:#B56FFF;}
	.st35{fill:#B46FFF;}
	.st36{fill:#B36FFF;}
	.st37{fill:#B26FFF;}
	.st38{fill:#B16FFF;}
	.st39{fill:#B06FFF;}
	.st40{fill:#AF6FFF;}
	.st41{fill:#AE6FFF;}
	.st42{fill:#AD6FFF;}
	.st43{fill:#AC6FFF;}
	.st44{fill:#AB6FFF;}
	.st45{fill:#AA6FFF;}
	.st46{fill:#A96FFF;}
	.st47{fill:#A86FFF;}
	.st48{fill:#A76FFF;}
	.st49{fill:#A66FFF;}
	.st50{fill:#A56FFF;}
	.st51{fill:#A46EFF;}
	.st52{fill:#A36EFF;}
	.st53{fill:#A26EFF;}
	.st54{fill:#A16EFF;}
	.st55{fill:#A06EFF;}
	.st56{fill:#9F6EFF;}
	.st57{fill:#9E6EFF;}
	.st58{fill:#9D6EFF;}
	.st59{fill:#9C6EFF;}
	.st60{fill:#9B6EFF;}
	.st61{fill:#9A6EFF;}
	.st62{fill:#996EFF;}
	.st63{fill:#986EFF;}
	.st64{fill:#976EFF;}
	.st65{fill:#966EFF;}
	.st66{fill:#956EFF;}
	.st67{fill:#946EFF;}
	.st68{fill:#936EFF;}
	.st69{fill:#926EFF;}
	.st70{fill:#916DFF;}
	.st71{fill:#906DFF;}
	.st72{fill:#8F6DFF;}
	.st73{fill:#8E6DFF;}
	.st74{fill:#8D6DFF;}
	.st75{fill:#8C6DFF;}
	.st76{fill:#8B6DFF;}
	.st77{fill:#8A6DFF;}
	.st78{fill:#896DFF;}
	.st79{fill:#886DFF;}
	.st80{fill:#876DFF;}
	.st81{fill:#866DFF;}
	.st82{fill:#856DFF;}
	.st83{fill:#846DFF;}
	.st84{fill:#836DFF;}
	.st85{fill:#826DFF;}
	.st86{fill:#816DFF;}
	.st87{fill:#806DFF;}
	.st88{fill:#7F6DFF;}
	.st89{fill:#7E6DFF;}
	.st90{fill:#7D6CFF;}
	.st91{fill:#7C6CFF;}
	.st92{fill:#7B6CFF;}
	.st93{fill:#7A6CFF;}
	.st94{fill:#796CFF;}
	.st95{fill:#786CFF;}
	.st96{fill:#776CFF;}
	.st97{fill:#766CFF;}
	.st98{fill:#756CFF;}
	.st99{fill:#746CFF;}
	.st100{fill:#736CFF;}
	.st101{fill:#726CFF;}
	.st102{fill:#716CFF;}
	.st103{fill:#706CFF;}
	.st104{fill:#6F6CFF;}
	.st105{fill:#6E6CFF;}
	.st106{fill:#6D6CFF;}
	.st107{fill:#6C6CFF;}
	.st108{fill:#6B6CFF;}
	.st109{fill:#6A6BFF;}
	.st110{fill:#696BFF;}
	.st111{fill:#686BFF;}
	.st112{fill:#676BFF;}
	.st113{fill:#666BFF;}
	.st114{fill:#656BFF;}
	.st115{fill:#646BFF;}
	.st116{fill:#636BFF;}
	.st117{fill:#626BFF;}
	.st118{fill:#616BFF;}
	.st119{fill:#606BFF;}
	.st120{fill:#5F6BFF;}
	.st121{fill:#5E6BFF;}
	.st122{fill:#5D6BFF;}
	.st123{fill:#5C6BFF;}
	.st124{fill:#5B6BFF;}
	.st125{fill:#5A6BFF;}
	.st126{fill:#596BFF;}
	.st127{fill:#586BFF;}
	.st128{fill:#576AFF;}
	.st129{fill:#566AFF;}
	.st130{fill:#556AFF;}
	.st131{fill:#546AFF;}
	.st132{fill:#536AFF;}
	.st133{fill:#526AFF;}
	.st134{fill:#516AFF;}
	.st135{fill:#506AFF;}
	.st136{fill:#4F6AFF;}
	.st137{fill:#4E6AFF;}
	.st138{fill:#4D6AFF;}
	.st139{fill:#4C6AFF;}
	.st140{fill:#4B6AFF;}
	.st141{fill:#4A6AFF;}
	.st142{fill:#496AFF;}
	.st143{fill:#486AFF;}
	.st144{fill:#476AFF;}
	.st145{fill:#466AFF;}
	.st146{fill:#456AFF;}
	.st147{fill:#446AFF;}
	.st148{fill:#4369FF;}
	.st149{fill:#4269FF;}
	.st150{fill:#4169FF;}
	.st151{fill:#4069FF;}
	.st152{fill:#3F69FF;}
	.st153{fill:#3E69FF;}
	.st154{fill:#3D69FF;}
	.st155{fill:#3C69FF;}
	.st156{fill:#3B69FF;}
	.st157{fill:#3A69FF;}
	.st158{fill:#3969FF;}
	.st159{fill:#3869FF;}
	.st160{fill:#3769FF;}
	.st161{fill:#3669FF;}
	.st162{fill:#3569FF;}
	.st163{fill:#3469FF;}
	.st164{fill:#3369FF;}
	.st165{fill:#3269FF;}
	.st166{fill:#3169FF;}
	.st167{fill:#3068FF;}
	.st168{fill:#2F68FF;}
	.st169{fill:#2E68FF;}
	.st170{fill:#2D68FF;}
	.st171{fill:#2C68FF;}
	.st172{fill:#2B68FF;}
	.st173{fill:#2A68FF;}
	.st174{fill:#2968FF;}
	.st175{fill:#2868FF;}
	.st176{fill:#2768FF;}
	.st177{fill:#2668FF;}
	.st178{fill:#2568FF;}
	.st179{fill:#2468FF;}
	.st180{fill:#2368FF;}
	.st181{fill:#2268FF;}
	.st182{fill:#2168FF;}
	.st183{fill:#2068FF;}
	.st184{fill:#1F68FF;}
	.st185{fill:#1E68FF;}
	.st186{fill:#1D67FF;}
	.st187{fill:#1C67FF;}
	.st188{fill:#1B67FF;}
	.st189{fill:#1A67FF;}
	.st190{fill:#1967FF;}
	.st191{fill:#1867FF;}
	.st192{fill:#1767FF;}
	.st193{fill:#1667FF;}
	.st194{fill:#1567FF;}
	.st195{fill:#1467FF;}
	.st196{fill:#1367FF;}
	.st197{fill:#1267FF;}
	.st198{fill:#1167FF;}
	.st199{fill:#1067FF;}
	.st200{fill:#0F67FF;}
	.st201{fill:#0E67FF;}
	.st202{fill:#0D67FF;}
	.st203{fill:#0C67FF;}
	.st204{fill:#0B67FF;}
	.st205{fill:#0A67FF;}
	.st206{fill:#0966FF;}
	.st207{fill:#0866FF;}
	.st208{fill:#0766FF;}
	.st209{fill:#0666FF;}
	.st210{fill:#0566FF;}
	.st211{fill:#0466FF;}
	.st212{fill:#0366FF;}
	.st213{fill:#0266FF;}
	.st214{fill:#0166FF;}
	.st215{fill:#0066FF;}
	.st216{fill:#0067FE;}
	.st217{fill:#0168FE;}
	.st218{fill:#0169FD;}
	.st219{fill:#026AFD;}
	.st220{fill:#026BFC;}
	.st221{fill:#036CFC;}
	.st222{fill:#036DFB;}
	.st223{fill:#046EFB;}
	.st224{fill:#046FFA;}
	.st225{fill:#0470FA;}
	.st226{fill:#0571F9;}
	.st227{fill:#0572F8;}
	.st228{fill:#0673F8;}
	.st229{fill:#0674F7;}
	.st230{fill:#0775F7;}
	.st231{fill:#0776F6;}
	.st232{fill:#0877F6;}
	.st233{fill:#0878F5;}
	.st234{fill:#0879F5;}
	.st235{fill:#097AF4;}
	.st236{fill:#097BF3;}
	.st237{fill:#0A7CF3;}
	.st238{fill:#0A7DF2;}
	.st239{fill:#0B7EF2;}
	.st240{fill:#0B7FF1;}
	.st241{fill:#0C80F1;}
	.st242{fill:#0C81F0;}
	.st243{fill:#0C82F0;}
	.st244{fill:#0D83EF;}
	.st245{fill:#0D84EF;}
	.st246{fill:#0E85EE;}
	.st247{fill:#0E86ED;}
	.st248{fill:#0F87ED;}
	.st249{fill:#0F88EC;}
	.st250{fill:#0F89EC;}
	.st251{fill:#108AEB;}
	.st252{fill:#108BEB;}
	.st253{fill:#118CEA;}
	.st254{fill:#118DEA;}
	.st255{fill:#128EE9;}
	.st256{fill:#128FE8;}
	.st257{fill:#1390E8;}
	.st258{fill:#1391E7;}
	.st259{fill:#1392E7;}
	.st260{fill:#1493E6;}
	.st261{fill:#1494E6;}
	.st262{fill:#1595E5;}
	.st263{fill:#1596E5;}
	.st264{fill:#1697E4;}
	.st265{fill:#1698E4;}
	.st266{fill:#1799E3;}
	.st267{fill:#179AE2;}
	.st268{fill:#179BE2;}
	.st269{fill:#189CE1;}
	.st270{fill:#189DE1;}
	.st271{fill:#199EE0;}
	.st272{fill:#199FE0;}
	.st273{fill:#1AA0DF;}
	.st274{fill:#1AA1DF;}
	.st275{fill:#1BA2DE;}
	.st276{fill:#1BA3DE;}
	.st277{fill:#1BA3DD;}
	.st278{fill:#1CA4DC;}
	.st279{fill:#1CA5DC;}
	.st280{fill:#1DA6DB;}
	.st281{fill:#1DA7DB;}
	.st282{fill:#1EA8DA;}
	.st283{fill:#1EA9DA;}
	.st284{fill:#1FAAD9;}
	.st285{fill:#1FABD9;}
	.st286{fill:#1FACD8;}
	.st287{fill:#20ADD7;}
	.st288{fill:#20AED7;}
	.st289{fill:#21AFD6;}
	.st290{fill:#21B0D6;}
	.st291{fill:#22B1D5;}
	.st292{fill:#22B2D5;}
	.st293{fill:#23B3D4;}
	.st294{fill:#23B4D4;}
	.st295{fill:#23B5D3;}
	.st296{fill:#24B6D3;}
	.st297{fill:#24B7D2;}
	.st298{fill:#25B8D1;}
	.st299{fill:#25B9D1;}
	.st300{fill:#26BAD0;}
	.st301{fill:#26BBD0;}
	.st302{fill:#27BCCF;}
	.st303{fill:#27BDCF;}
	.st304{fill:#27BECE;}
	.st305{fill:#28BFCE;}
	.st306{fill:#28C0CD;}
	.st307{fill:#29C1CC;}
	.st308{fill:#29C2CC;}
	.st309{fill:#2AC3CB;}
	.st310{fill:#2AC4CB;}
	.st311{fill:#2AC5CA;}
	.st312{fill:#2BC6CA;}
	.st313{fill:#2BC7C9;}
	.st314{fill:#2CC8C9;}
	.st315{fill:#2CC9C8;}
	.st316{fill:#2DCAC8;}
	.st317{fill:#2DCBC7;}
	.st318{fill:#2ECCC6;}
	.st319{fill:#2ECDC6;}
	.st320{fill:#2ECEC5;}
	.st321{fill:#2FCFC5;}
	.st322{fill:#2FD0C4;}
	.st323{fill:#30D1C4;}
	.st324{fill:#30D2C3;}
	.st325{fill:#31D3C3;}
	.st326{fill:#31D4C2;}
	.st327{fill:#32D5C1;}
	.st328{fill:#32D6C1;}
	.st329{fill:#32D7C0;}
	.st330{fill:#33D8C0;}
	.st331{fill:#33D9BF;}
	.st332{fill:#34DABF;}
	.st333{fill:#34DBBE;}
	.st334{fill:#35DCBE;}
	.st335{fill:#35DDBD;}
	.st336{fill:#36DEBD;}
	.st337{fill:#36DFBC;}
	.st338{fill:url(#SVGID_00000012447113677058803030000014509117441332940980_);}
</style>
<g>
	<defs>
		<rect id="SVGID_1_" x="0" y="0" width="700" height="1200"/>
	</defs>
	<clipPath id="SVGID_00000133503860140138686610000004532652771436761227_">
		<use xlink:href="#SVGID_1_"  style="overflow:visible;"/>
	</clipPath>
	<g style="clip-path:url(#SVGID_00000133503860140138686610000004532652771436761227_);">
		<g>
			<path class="st1" d="M0.5,158.5h482v-22.9H0.5v-22.9h482V89.7H0.5V66.8h482V43.8H0.5V20.9h482v160.4H0.5v22.9h482v22.9H0.5v22.9
				h482v22.9H0.5V296h482v22.9H0.5v160.4h482v-22.9H0.5v-22.9h482v-22.9H0.5v-22.9h482v-22.9H0.5v-22.9h482v160.4H0.5v22.9h482v22.9
				H0.5V571h482V594H0.5v22.9h482v22.9H0.5v160.4h482v-22.9H0.5v-22.9h482v-22.9H0.5v-22.9h482v-22.9H0.5v-22.9h482v160.4H0.5v22.9
				h482V869H0.5v22.9h482v22.9H0.5v22.9h482v22.9H0.5v160.4h482v-22.9H0.5v-22.9h482v-22.9H0.5v-22.9h482v-22.9H0.5v-22.9h482v160.4
				H0.5v22.9h482v22.9H0.5v22.9h482v22.9H0.5v22.9h482v22.9h-22.9V-2h-22.9v1283.6h-23V-2h-22.9v1283.6h-22.9V-2h-22.9v1283.6h-23
				V-2h-22.9v1283.6h-22.9V-2H253v1283.6h-23V-2h-22.9v1283.6h-22.9V-2h-22.9v1283.6h-23V-2h-22.9v1283.6H92.3V-2H69.4v1283.6h-23
				V-2H23.4v1283.6H0.5V158.5z"/>
			<path class="st1" d="M482.7,158.5h482v-22.9h-482v-22.9h482V89.7h-482V66.8h482V43.9h-482V20.9h482v160.4h-482v22.9h482v22.9
				h-482v22.9h482v22.9h-482V296h482v22.9h-482v160.4h482v-22.9h-482v-22.9h482v-22.9h-482v-22.9h482v-22.9h-482v-22.9h482v160.4
				h-482v22.9h482v22.9h-482V571h482V594h-482v22.9h482v22.9h-482v160.4h482v-22.9h-482v-22.9h482v-22.9h-482v-22.9h482v-22.9h-482
				v-22.9h482v160.4h-482v22.9h482V869h-482v22.9h482v22.9h-482v22.9h482v22.9h-482v160.4h482v-22.9h-482v-22.9h482v-22.9h-482
				v-22.9h482v-22.9h-482v-22.9h482v160.4h-482v22.9h482v22.9h-482v22.9h482v22.9h-482v22.9h482v22.9h-23V-2h-23v1283.6h-23V-2h-23
				v1283.6h-23V-2h-23v1283.6h-23V-2h-23v1283.6h-23V-2h-22.9v1283.6h-23V-2h-23v1283.6h-23V-2h-22.9v1283.6h-23V-2h-23v1283.6h-23
				V-2h-22.9v1283.6h-23V-2h-22.9v1283.6h-22.9V158.5z"/>
			<g>
				<ellipse class="st2" cx="155.4" cy="-40" rx="22.1" ry="22.1"/>
				<ellipse class="st3" cx="161.8" cy="-35.5" rx="22.2" ry="22.2"/>
				<ellipse class="st4" cx="168.1" cy="-31" rx="22.3" ry="22.3"/>
				<ellipse class="st5" cx="174.4" cy="-26.6" rx="22.4" ry="22.4"/>
				<ellipse class="st6" cx="180.6" cy="-22" rx="22.5" ry="22.5"/>
				<ellipse class="st7" cx="186.8" cy="-17.5" rx="22.6" ry="22.6"/>
				<ellipse class="st8" cx="192.9" cy="-13" rx="22.8" ry="22.8"/>
				<ellipse class="st9" cx="199" cy="-8.5" rx="22.9" ry="22.9"/>
				<ellipse class="st10" cx="205" cy="-4" rx="23" ry="23"/>
				<ellipse class="st11" cx="211" cy="0.5" rx="23.1" ry="23.1"/>
				<ellipse class="st12" cx="216.9" cy="5" rx="23.2" ry="23.2"/>
				<ellipse class="st13" cx="222.8" cy="9.5" rx="23.3" ry="23.3"/>
				<ellipse class="st14" cx="228.6" cy="14" rx="23.4" ry="23.4"/>
				<ellipse class="st15" cx="234.4" cy="18.5" rx="23.5" ry="23.6"/>
				<ellipse class="st16" cx="240.1" cy="23" rx="23.7" ry="23.7"/>
				<ellipse class="st17" cx="245.8" cy="27.6" rx="23.8" ry="23.8"/>
				<ellipse class="st18" cx="251.4" cy="32.1" rx="23.9" ry="23.9"/>
				<ellipse class="st19" cx="256.9" cy="36.6" rx="24" ry="24"/>
				<ellipse class="st20" cx="262.4" cy="41" rx="24.1" ry="24.1"/>
				<ellipse class="st21" cx="267.8" cy="45.5" rx="24.2" ry="24.3"/>
				<ellipse class="st22" cx="273.2" cy="50" rx="24.3" ry="24.4"/>
				<ellipse class="st23" cx="278.5" cy="54.5" rx="24.5" ry="24.5"/>
				<ellipse class="st24" cx="283.8" cy="59" rx="24.6" ry="24.6"/>
				<ellipse class="st25" cx="288.9" cy="63.5" rx="24.7" ry="24.7"/>
				<ellipse class="st26" cx="294" cy="67.9" rx="24.8" ry="24.8"/>
				<ellipse class="st27" cx="299.1" cy="72.4" rx="24.9" ry="24.9"/>
				<ellipse class="st28" cx="304.1" cy="76.8" rx="25" ry="25"/>
				<ellipse class="st29" cx="309" cy="81.3" rx="25.1" ry="25.2"/>
				<ellipse class="st30" cx="313.8" cy="85.7" rx="25.2" ry="25.3"/>
				<ellipse class="st31" cx="318.6" cy="90.1" rx="25.4" ry="25.4"/>
				<ellipse class="st32" cx="323.3" cy="94.5" rx="25.5" ry="25.5"/>
				<ellipse class="st33" cx="327.9" cy="98.9" rx="25.6" ry="25.6"/>
				<ellipse class="st34" cx="332.4" cy="103.3" rx="25.7" ry="25.7"/>
				<ellipse class="st35" cx="336.9" cy="107.7" rx="25.8" ry="25.8"/>
				<ellipse class="st36" cx="341.3" cy="112.1" rx="25.9" ry="26"/>
				<ellipse class="st37" cx="345.6" cy="116.4" rx="26" ry="26.1"/>
				<ellipse class="st38" cx="349.8" cy="120.8" rx="26.2" ry="26.2"/>
				<ellipse class="st39" cx="354" cy="125.1" rx="26.3" ry="26.3"/>
				<ellipse class="st40" cx="358.1" cy="129.4" rx="26.4" ry="26.4"/>
				<ellipse class="st41" cx="362.1" cy="133.7" rx="26.5" ry="26.5"/>
				<ellipse class="st42" cx="366" cy="138" rx="26.6" ry="26.6"/>
				<ellipse class="st43" cx="369.8" cy="142.3" rx="26.7" ry="26.8"/>
				<ellipse class="st44" cx="373.6" cy="146.6" rx="26.8" ry="26.9"/>
				<ellipse class="st45" cx="377.2" cy="150.8" rx="27" ry="27"/>
				<ellipse class="st46" cx="380.8" cy="155" rx="27.1" ry="27.1"/>
				<ellipse class="st47" cx="384.3" cy="159.2" rx="27.2" ry="27.2"/>
				<ellipse class="st48" cx="387.7" cy="163.4" rx="27.3" ry="27.3"/>
				<ellipse class="st49" cx="391" cy="167.6" rx="27.4" ry="27.4"/>
				<ellipse class="st50" cx="394.2" cy="171.7" rx="27.5" ry="27.5"/>
				<ellipse class="st51" cx="397.3" cy="175.9" rx="27.6" ry="27.7"/>
				<ellipse class="st52" cx="400.4" cy="180" rx="27.8" ry="27.8"/>
				<ellipse class="st53" cx="403.3" cy="184.1" rx="27.9" ry="27.9"/>
				<ellipse class="st54" cx="406.1" cy="188.1" rx="28" ry="28"/>
				<ellipse class="st55" cx="408.9" cy="192.2" rx="28.1" ry="28.1"/>
				<ellipse class="st56" cx="411.5" cy="196.2" rx="28.2" ry="28.2"/>
				<ellipse class="st57" cx="414.1" cy="200.2" rx="28.3" ry="28.3"/>
				<ellipse class="st58" cx="416.5" cy="204.2" rx="28.4" ry="28.5"/>
				<ellipse class="st59" cx="418.9" cy="208.2" rx="28.5" ry="28.6"/>
				<ellipse class="st60" cx="421.1" cy="212.1" rx="28.7" ry="28.7"/>
				<ellipse class="st61" cx="423.3" cy="216" rx="28.8" ry="28.8"/>
				<ellipse class="st62" cx="425.3" cy="219.9" rx="28.9" ry="28.9"/>
				<ellipse class="st63" cx="427.3" cy="223.8" rx="29" ry="29"/>
				<ellipse class="st64" cx="429.1" cy="227.6" rx="29.1" ry="29.1"/>
				<ellipse class="st65" cx="430.8" cy="231.4" rx="29.2" ry="29.3"/>
				<ellipse class="st66" cx="432.4" cy="235.2" rx="29.3" ry="29.4"/>
				<ellipse class="st67" cx="433.9" cy="238.9" rx="29.4" ry="29.5"/>
				<ellipse class="st68" cx="435.3" cy="242.7" rx="29.6" ry="29.6"/>
				<ellipse class="st69" cx="436.6" cy="246.4" rx="29.7" ry="29.7"/>
				<ellipse class="st70" cx="437.8" cy="250" rx="29.8" ry="29.8"/>
				<ellipse class="st71" cx="438.8" cy="253.7" rx="29.9" ry="29.9"/>
				<ellipse class="st72" cx="439.8" cy="257.3" rx="30" ry="30"/>
				<ellipse class="st73" cx="440.6" cy="260.8" rx="30.1" ry="30.2"/>
				<ellipse class="st74" cx="441.3" cy="264.4" rx="30.2" ry="30.3"/>
				<ellipse class="st75" cx="441.9" cy="267.9" rx="30.4" ry="30.4"/>
				<ellipse class="st76" cx="442.4" cy="271.4" rx="30.5" ry="30.5"/>
				<ellipse class="st77" cx="442.8" cy="274.8" rx="30.6" ry="30.6"/>
				<ellipse class="st78" cx="443" cy="278.3" rx="30.7" ry="30.7"/>
				<ellipse class="st79" cx="443.1" cy="281.6" rx="30.8" ry="30.8"/>
				<ellipse class="st80" cx="443.1" cy="285" rx="30.9" ry="31"/>
				<ellipse class="st81" cx="443" cy="288.3" rx="31.1" ry="31.1"/>
				<ellipse class="st82" cx="442.7" cy="291.6" rx="31.2" ry="31.2"/>
				<ellipse class="st83" cx="442.3" cy="294.8" rx="31.3" ry="31.3"/>
				<ellipse class="st84" cx="441.8" cy="298.1" rx="31.4" ry="31.4"/>
				<ellipse class="st85" cx="441.2" cy="301.2" rx="31.5" ry="31.5"/>
				<ellipse class="st86" cx="440.4" cy="304.4" rx="31.6" ry="31.6"/>
				<ellipse class="st87" cx="438.8" cy="309.6" rx="31.7" ry="31.8"/>
				<ellipse class="st88" cx="436.7" cy="314.5" rx="31.8" ry="31.9"/>
				<ellipse class="st89" cx="434.2" cy="319.1" rx="32" ry="32"/>
				<ellipse class="st90" cx="431.3" cy="323.3" rx="32.1" ry="32.1"/>
				<ellipse class="st91" cx="428.1" cy="327.1" rx="32.2" ry="32.2"/>
				<ellipse class="st92" cx="424.5" cy="330.5" rx="32.3" ry="32.3"/>
				<ellipse class="st93" cx="420.6" cy="333.7" rx="32.4" ry="32.4"/>
				<ellipse class="st94" cx="416.4" cy="336.5" rx="32.5" ry="32.5"/>
				<ellipse class="st95" cx="411.9" cy="339.1" rx="32.6" ry="32.7"/>
				<ellipse class="st96" cx="407.1" cy="341.3" rx="32.7" ry="32.8"/>
				<ellipse class="st97" cx="402.1" cy="343.4" rx="32.9" ry="32.9"/>
				<ellipse class="st98" cx="396.9" cy="345.1" rx="33" ry="33"/>
				<ellipse class="st99" cx="391.4" cy="346.7" rx="33.1" ry="33.1"/>
				<ellipse class="st100" cx="385.8" cy="348.1" rx="33.2" ry="33.2"/>
				<ellipse class="st101" cx="380" cy="349.3" rx="33.3" ry="33.3"/>
				<ellipse class="st102" cx="374" cy="350.3" rx="33.4" ry="33.5"/>
				<ellipse class="st103" cx="367.9" cy="351.1" rx="33.5" ry="33.6"/>
				<ellipse class="st104" cx="361.7" cy="351.9" rx="33.7" ry="33.7"/>
				<ellipse class="st105" cx="355.4" cy="352.5" rx="33.8" ry="33.8"/>
				<ellipse class="st106" cx="349" cy="353" rx="33.9" ry="33.9"/>
				<ellipse class="st107" cx="342.6" cy="353.5" rx="34" ry="34"/>
				<ellipse class="st108" cx="336.1" cy="353.9" rx="34.1" ry="34.1"/>
				<ellipse class="st109" cx="329.6" cy="354.2" rx="34.2" ry="34.3"/>
				<ellipse class="st110" cx="323.1" cy="354.5" rx="34.3" ry="34.4"/>
				<ellipse class="st111" cx="316.6" cy="354.9" rx="34.5" ry="34.5"/>
				<ellipse class="st112" cx="310.1" cy="355.2" rx="34.6" ry="34.6"/>
				<ellipse class="st113" cx="303.7" cy="355.5" rx="34.7" ry="34.7"/>
				<ellipse class="st114" cx="297.4" cy="355.9" rx="34.8" ry="34.8"/>
				<ellipse class="st115" cx="291.1" cy="356.4" rx="34.9" ry="34.9"/>
				<ellipse class="st116" cx="285" cy="357" rx="35" ry="35"/>
				<ellipse class="st117" cx="279" cy="357.6" rx="35.1" ry="35.2"/>
				<ellipse class="st118" cx="273.2" cy="358.4" rx="35.2" ry="35.3"/>
				<ellipse class="st119" cx="267.5" cy="359.2" rx="35.4" ry="35.4"/>
				<ellipse class="st120" cx="262" cy="360.3" rx="35.5" ry="35.5"/>
				<ellipse class="st121" cx="256.7" cy="361.5" rx="35.6" ry="35.6"/>
				<ellipse class="st122" cx="251.6" cy="362.9" rx="35.7" ry="35.7"/>
				<ellipse class="st123" cx="246.8" cy="364.5" rx="35.8" ry="35.9"/>
				<ellipse class="st124" cx="242.2" cy="366.3" rx="35.9" ry="36"/>
				<ellipse class="st125" cx="237.9" cy="368.4" rx="36" ry="36.1"/>
				<ellipse class="st126" cx="233.9" cy="370.7" rx="36.2" ry="36.2"/>
				<ellipse class="st127" cx="230.3" cy="373.3" rx="36.3" ry="36.3"/>
				<ellipse class="st128" cx="226.9" cy="376.2" rx="36.4" ry="36.4"/>
				<ellipse class="st129" cx="223.9" cy="379.4" rx="36.5" ry="36.5"/>
				<ellipse class="st130" cx="221.3" cy="383" rx="36.6" ry="36.7"/>
				<ellipse class="st131" cx="219.1" cy="386.8" rx="36.7" ry="36.8"/>
				<ellipse class="st132" cx="217.3" cy="391.1" rx="36.8" ry="36.9"/>
				<ellipse class="st133" cx="216" cy="395.7" rx="37" ry="37"/>
				<ellipse class="st134" cx="215.2" cy="399.7" rx="37.1" ry="37.1"/>
				<ellipse class="st135" cx="214.8" cy="403.4" rx="37.2" ry="37.2"/>
				<ellipse class="st136" cx="214.7" cy="407.3" rx="37.3" ry="37.3"/>
				<ellipse class="st137" cx="214.9" cy="411.3" rx="37.4" ry="37.4"/>
				<ellipse class="st138" cx="215.4" cy="415.4" rx="37.5" ry="37.6"/>
				<ellipse class="st139" cx="216.1" cy="419.7" rx="37.6" ry="37.7"/>
				<ellipse class="st140" cx="217.1" cy="424.1" rx="37.8" ry="37.8"/>
				<ellipse class="st141" cx="218.3" cy="428.5" rx="37.9" ry="37.9"/>
				<ellipse class="st142" cx="219.7" cy="433.1" rx="38" ry="38"/>
				<ellipse class="st143" cx="221.4" cy="437.7" rx="38.1" ry="38.1"/>
				<ellipse class="st144" cx="223.3" cy="442.5" rx="38.2" ry="38.2"/>
				<ellipse class="st145" cx="225.4" cy="447.3" rx="38.3" ry="38.4"/>
				<ellipse class="st146" cx="227.6" cy="452.3" rx="38.4" ry="38.5"/>
				<ellipse class="st147" cx="230.1" cy="457.2" rx="38.5" ry="38.6"/>
				<ellipse class="st148" cx="232.7" cy="462.3" rx="38.7" ry="38.7"/>
				<ellipse class="st149" cx="235.5" cy="467.5" rx="38.8" ry="38.8"/>
				<ellipse class="st150" cx="238.5" cy="472.7" rx="38.9" ry="38.9"/>
				<ellipse class="st151" cx="241.6" cy="477.9" rx="39" ry="39"/>
				<ellipse class="st152" cx="244.9" cy="483.2" rx="39.1" ry="39.2"/>
				<ellipse class="st153" cx="248.2" cy="488.6" rx="39.2" ry="39.3"/>
				<ellipse class="st154" cx="251.7" cy="494" rx="39.3" ry="39.4"/>
				<ellipse class="st155" cx="255.3" cy="499.5" rx="39.5" ry="39.5"/>
				<ellipse class="st156" cx="259" cy="505" rx="39.6" ry="39.6"/>
				<ellipse class="st157" cx="262.8" cy="510.5" rx="39.7" ry="39.7"/>
				<ellipse class="st158" cx="266.7" cy="516" rx="39.8" ry="39.8"/>
				<ellipse class="st159" cx="270.6" cy="521.6" rx="39.9" ry="39.9"/>
				<ellipse class="st160" cx="274.6" cy="527.2" rx="40" ry="40.1"/>
				<ellipse class="st161" cx="278.7" cy="532.8" rx="40.1" ry="40.2"/>
				<ellipse class="st162" cx="282.8" cy="538.4" rx="40.2" ry="40.3"/>
				<ellipse class="st163" cx="286.9" cy="544" rx="40.4" ry="40.4"/>
				<ellipse class="st164" cx="291.1" cy="549.6" rx="40.5" ry="40.5"/>
				<ellipse class="st165" cx="295.2" cy="555.2" rx="40.6" ry="40.6"/>
				<ellipse class="st166" cx="299.4" cy="560.8" rx="40.7" ry="40.7"/>
				<ellipse class="st167" cx="303.6" cy="566.4" rx="40.8" ry="40.9"/>
				<ellipse class="st168" cx="307.7" cy="572" rx="40.9" ry="41"/>
				<ellipse class="st169" cx="311.9" cy="577.5" rx="41" ry="41.1"/>
				<ellipse class="st170" cx="316" cy="583.1" rx="41.2" ry="41.2"/>
				<ellipse class="st171" cx="320" cy="588.5" rx="41.3" ry="41.3"/>
				<ellipse class="st172" cx="324" cy="594" rx="41.4" ry="41.4"/>
				<ellipse class="st173" cx="327.9" cy="599.4" rx="41.5" ry="41.5"/>
				<ellipse class="st174" cx="331.8" cy="604.8" rx="41.6" ry="41.7"/>
				<ellipse class="st175" cx="335.6" cy="610.1" rx="41.7" ry="41.8"/>
				<ellipse class="st176" cx="339.3" cy="615.3" rx="41.9" ry="41.9"/>
				<ellipse class="st177" cx="342.9" cy="620.5" rx="42" ry="42"/>
				<ellipse class="st178" cx="346.4" cy="625.6" rx="42.1" ry="42.1"/>
				<ellipse class="st179" cx="349.7" cy="630.7" rx="42.2" ry="42.2"/>
				<ellipse class="st180" cx="353" cy="635.7" rx="42.3" ry="42.3"/>
				<ellipse class="st181" cx="356.1" cy="640.6" rx="42.4" ry="42.4"/>
				<ellipse class="st182" cx="359" cy="645.4" rx="42.5" ry="42.6"/>
				<ellipse class="st183" cx="361.8" cy="650.2" rx="42.6" ry="42.7"/>
				<ellipse class="st184" cx="364.5" cy="654.8" rx="42.8" ry="42.8"/>
				<ellipse class="st185" cx="366.9" cy="659.3" rx="42.9" ry="42.9"/>
				<ellipse class="st186" cx="369.2" cy="663.8" rx="43" ry="43"/>
				<ellipse class="st187" cx="371.3" cy="668.1" rx="43.1" ry="43.1"/>
				<ellipse class="st188" cx="373.1" cy="672.4" rx="43.2" ry="43.2"/>
				<ellipse class="st189" cx="374.8" cy="676.5" rx="43.3" ry="43.4"/>
				<ellipse class="st190" cx="376.2" cy="680.5" rx="43.4" ry="43.5"/>
				<ellipse class="st191" cx="377.4" cy="684.3" rx="43.5" ry="43.6"/>
				<ellipse class="st192" cx="378.4" cy="688.1" rx="43.7" ry="43.7"/>
				<ellipse class="st193" cx="379.1" cy="691.7" rx="43.8" ry="43.8"/>
				<ellipse class="st194" cx="379.6" cy="695.2" rx="43.9" ry="43.9"/>
				<ellipse class="st195" cx="379.7" cy="698.5" rx="44" ry="44"/>
				<ellipse class="st196" cx="379.6" cy="701.7" rx="44.1" ry="44.2"/>
				<ellipse class="st197" cx="379.2" cy="704.7" rx="44.2" ry="44.3"/>
				<ellipse class="st198" cx="378.5" cy="707.7" rx="44.4" ry="44.4"/>
				<ellipse class="st199" cx="377.2" cy="711.1" rx="44.5" ry="44.5"/>
				<ellipse class="st200" cx="375.5" cy="714.1" rx="44.6" ry="44.6"/>
				<ellipse class="st201" cx="373.4" cy="716.9" rx="44.7" ry="44.7"/>
				<ellipse class="st202" cx="371" cy="719.4" rx="44.8" ry="44.8"/>
				<ellipse class="st203" cx="368.1" cy="721.6" rx="44.9" ry="44.9"/>
				<ellipse class="st204" cx="365" cy="723.7" rx="45" ry="45.1"/>
				<ellipse class="st205" cx="361.5" cy="725.5" rx="45.1" ry="45.2"/>
				<ellipse class="st206" cx="357.7" cy="727.1" rx="45.3" ry="45.3"/>
				<ellipse class="st207" cx="353.6" cy="728.5" rx="45.4" ry="45.4"/>
				<ellipse class="st208" cx="349.3" cy="729.8" rx="45.5" ry="45.5"/>
				<ellipse class="st209" cx="344.6" cy="730.9" rx="45.6" ry="45.6"/>
				<ellipse class="st210" cx="339.8" cy="731.8" rx="45.7" ry="45.7"/>
				<ellipse class="st211" cx="334.7" cy="732.7" rx="45.8" ry="45.9"/>
				<ellipse class="st212" cx="329.5" cy="733.4" rx="45.9" ry="46"/>
				<ellipse class="st213" cx="324" cy="734.1" rx="46" ry="46.1"/>
				<ellipse class="st214" cx="318.4" cy="734.6" rx="46.2" ry="46.2"/>
				<ellipse class="st215" cx="293.6" cy="736.5" rx="46.3" ry="46.3"/>
				<ellipse class="st216" cx="306.1" cy="735.7" rx="46.7" ry="46.8"/>
				<ellipse class="st217" cx="299.3" cy="736.1" rx="47.2" ry="47.2"/>
				<ellipse class="st218" cx="292.4" cy="736.6" rx="47.7" ry="47.7"/>
				<ellipse class="st219" cx="285.5" cy="737.1" rx="48.1" ry="48.2"/>
				<ellipse class="st220" cx="278.4" cy="737.6" rx="48.6" ry="48.6"/>
				<ellipse class="st221" cx="271.4" cy="738.2" rx="49.1" ry="49.1"/>
				<ellipse class="st222" cx="264.3" cy="738.8" rx="49.5" ry="49.6"/>
				<ellipse class="st223" cx="257.2" cy="739.6" rx="50" ry="50"/>
				<ellipse class="st224" cx="250.2" cy="740.4" rx="50.5" ry="50.5"/>
				<ellipse class="st225" cx="243.2" cy="741.5" rx="50.9" ry="51"/>
				<ellipse class="st226" cx="236.3" cy="742.6" rx="51.4" ry="51.4"/>
				<ellipse class="st227" cx="229.5" cy="744" rx="51.9" ry="51.9"/>
				<ellipse class="st228" cx="222.9" cy="745.5" rx="52.3" ry="52.4"/>
				<ellipse class="st229" cx="216.4" cy="747.3" rx="52.8" ry="52.8"/>
				<ellipse class="st230" cx="210.1" cy="749.4" rx="53.2" ry="53.3"/>
				<ellipse class="st231" cx="204" cy="751.7" rx="53.7" ry="53.8"/>
				<ellipse class="st232" cx="198.2" cy="754.3" rx="54.2" ry="54.2"/>
				<ellipse class="st233" cx="192.6" cy="757.3" rx="54.6" ry="54.7"/>
				<ellipse class="st234" cx="187.3" cy="760.5" rx="55.1" ry="55.2"/>
				<ellipse class="st235" cx="182.3" cy="764.2" rx="55.6" ry="55.6"/>
				<ellipse class="st236" cx="177.7" cy="768.2" rx="56" ry="56.1"/>
				<ellipse class="st237" cx="173.4" cy="772.6" rx="56.5" ry="56.5"/>
				<ellipse class="st238" cx="169.4" cy="777.5" rx="57" ry="57"/>
				<ellipse class="st239" cx="165.9" cy="782.8" rx="57.4" ry="57.5"/>
				<ellipse class="st240" cx="162.9" cy="788.6" rx="57.9" ry="57.9"/>
				<ellipse class="st241" cx="160.3" cy="794.9" rx="58.4" ry="58.4"/>
				<ellipse class="st242" cx="158.2" cy="801.7" rx="58.8" ry="58.9"/>
				<ellipse class="st243" cx="156.6" cy="809" rx="59.3" ry="59.3"/>
				<ellipse class="st244" cx="155.5" cy="816.9" rx="59.8" ry="59.8"/>
				<ellipse class="st245" cx="155" cy="825.4" rx="60.2" ry="60.3"/>
				<ellipse class="st246" cx="154.9" cy="831.1" rx="60.7" ry="60.7"/>
				<ellipse class="st247" cx="155.1" cy="834.9" rx="61.1" ry="61.2"/>
				<ellipse class="st248" cx="155.4" cy="838.7" rx="61.6" ry="61.7"/>
				<ellipse class="st249" cx="155.7" cy="842.5" rx="62.1" ry="62.1"/>
				<ellipse class="st250" cx="156.2" cy="846.3" rx="62.5" ry="62.6"/>
				<ellipse class="st251" cx="156.9" cy="850.2" rx="63" ry="63.1"/>
				<ellipse class="st252" cx="157.6" cy="854" rx="63.5" ry="63.5"/>
				<ellipse class="st253" cx="158.5" cy="857.9" rx="63.9" ry="64"/>
				<ellipse class="st254" cx="159.5" cy="861.8" rx="64.4" ry="64.5"/>
				<ellipse class="st255" cx="160.6" cy="865.7" rx="64.9" ry="64.9"/>
				<ellipse class="st256" cx="161.8" cy="869.7" rx="65.3" ry="65.4"/>
				<ellipse class="st257" cx="163.1" cy="873.6" rx="65.8" ry="65.9"/>
				<ellipse class="st258" cx="164.6" cy="877.6" rx="66.3" ry="66.3"/>
				<ellipse class="st259" cx="166.1" cy="881.6" rx="66.7" ry="66.8"/>
				<ellipse class="st260" cx="167.8" cy="885.6" rx="67.2" ry="67.2"/>
				<ellipse class="st261" cx="169.6" cy="889.6" rx="67.7" ry="67.7"/>
				<ellipse class="st262" cx="171.5" cy="893.7" rx="68.1" ry="68.2"/>
				<ellipse class="st263" cx="173.5" cy="897.7" rx="68.6" ry="68.6"/>
				<ellipse class="st264" cx="175.6" cy="901.8" rx="69" ry="69.1"/>
				<ellipse class="st265" cx="177.8" cy="905.8" rx="69.5" ry="69.6"/>
				<ellipse class="st266" cx="180.2" cy="909.9" rx="70" ry="70"/>
				<ellipse class="st267" cx="182.6" cy="914" rx="70.4" ry="70.5"/>
				<ellipse class="st268" cx="185.2" cy="918.1" rx="70.9" ry="71"/>
				<ellipse class="st269" cx="187.8" cy="922.2" rx="71.4" ry="71.4"/>
				<ellipse class="st270" cx="190.5" cy="926.4" rx="71.8" ry="71.9"/>
				<ellipse class="st271" cx="193.4" cy="930.5" rx="72.3" ry="72.4"/>
				<ellipse class="st272" cx="196.3" cy="934.7" rx="72.8" ry="72.8"/>
				<ellipse class="st273" cx="199.4" cy="938.8" rx="73.2" ry="73.3"/>
				<ellipse class="st274" cx="202.6" cy="943" rx="73.7" ry="73.8"/>
				<ellipse class="st275" cx="205.8" cy="947.1" rx="74.2" ry="74.2"/>
				<ellipse class="st276" cx="209.1" cy="951.3" rx="74.6" ry="74.7"/>
				<ellipse class="st277" cx="212.6" cy="955.5" rx="75.1" ry="75.2"/>
				<ellipse class="st278" cx="216.1" cy="959.7" rx="75.6" ry="75.6"/>
				<ellipse class="st279" cx="219.8" cy="963.9" rx="76" ry="76.1"/>
				<ellipse class="st280" cx="223.5" cy="968.1" rx="76.5" ry="76.5"/>
				<ellipse class="st281" cx="227.3" cy="972.3" rx="77" ry="77"/>
				<ellipse class="st282" cx="231.2" cy="976.5" rx="77.4" ry="77.5"/>
				<ellipse class="st283" cx="235.2" cy="980.7" rx="77.9" ry="77.9"/>
				<ellipse class="st284" cx="239.3" cy="984.9" rx="78.3" ry="78.4"/>
				<ellipse class="st285" cx="243.5" cy="989.2" rx="78.8" ry="78.9"/>
				<ellipse class="st286" cx="247.8" cy="993.4" rx="79.3" ry="79.3"/>
				<ellipse class="st287" cx="252.1" cy="997.6" rx="79.7" ry="79.8"/>
				<ellipse class="st288" cx="256.6" cy="1001.8" rx="80.2" ry="80.3"/>
				<ellipse class="st289" cx="261.1" cy="1006.1" rx="80.7" ry="80.7"/>
				<ellipse class="st290" cx="265.7" cy="1010.3" rx="81.1" ry="81.2"/>
				<ellipse class="st291" cx="270.4" cy="1014.5" rx="81.6" ry="81.7"/>
				<ellipse class="st292" cx="275.2" cy="1018.7" rx="82.1" ry="82.1"/>
				<ellipse class="st293" cx="280.1" cy="1023" rx="82.5" ry="82.6"/>
				<ellipse class="st294" cx="285" cy="1027.2" rx="83" ry="83.1"/>
				<ellipse class="st295" cx="290.1" cy="1031.4" rx="83.5" ry="83.5"/>
				<ellipse class="st296" cx="295.2" cy="1035.6" rx="83.9" ry="84"/>
				<ellipse class="st297" cx="300.3" cy="1039.8" rx="84.4" ry="84.5"/>
				<ellipse class="st298" cx="305.6" cy="1044.1" rx="84.9" ry="84.9"/>
				<ellipse class="st299" cx="310.9" cy="1048.3" rx="85.3" ry="85.4"/>
				<ellipse class="st300" cx="316.3" cy="1052.5" rx="85.8" ry="85.9"/>
				<ellipse class="st301" cx="321.8" cy="1056.7" rx="86.2" ry="86.3"/>
				<ellipse class="st302" cx="327.4" cy="1060.9" rx="86.7" ry="86.8"/>
				<ellipse class="st303" cx="333" cy="1065" rx="87.2" ry="87.2"/>
				<ellipse class="st304" cx="338.7" cy="1069.2" rx="87.6" ry="87.7"/>
				<ellipse class="st305" cx="344.5" cy="1073.4" rx="88.1" ry="88.2"/>
				<ellipse class="st306" cx="350.3" cy="1077.6" rx="88.6" ry="88.6"/>
				<ellipse class="st307" cx="356.2" cy="1081.7" rx="89" ry="89.1"/>
				<ellipse class="st308" cx="362.2" cy="1085.9" rx="89.5" ry="89.6"/>
				<ellipse class="st309" cx="368.3" cy="1090" rx="90" ry="90"/>
				<ellipse class="st310" cx="374.4" cy="1094.1" rx="90.4" ry="90.5"/>
				<ellipse class="st311" cx="380.5" cy="1098.2" rx="90.9" ry="91"/>
				<ellipse class="st312" cx="386.8" cy="1102.3" rx="91.3" ry="91.4"/>
				<ellipse class="st313" cx="393.1" cy="1106.4" rx="91.8" ry="91.9"/>
				<ellipse class="st314" cx="399.5" cy="1110.5" rx="92.3" ry="92.4"/>
				<ellipse class="st315" cx="405.9" cy="1114.6" rx="92.7" ry="92.8"/>
				<ellipse class="st316" cx="412.4" cy="1118.7" rx="93.2" ry="93.3"/>
				<ellipse class="st317" cx="418.9" cy="1122.7" rx="93.7" ry="93.8"/>
				<ellipse class="st318" cx="425.5" cy="1126.7" rx="94.1" ry="94.2"/>
				<ellipse class="st319" cx="432.2" cy="1130.8" rx="94.6" ry="94.7"/>
				<ellipse class="st320" cx="438.9" cy="1134.8" rx="95.1" ry="95.2"/>
				<ellipse class="st321" cx="445.7" cy="1138.7" rx="95.5" ry="95.6"/>
				<ellipse class="st322" cx="452.5" cy="1142.7" rx="96" ry="96.1"/>
				<ellipse class="st323" cx="459.4" cy="1146.7" rx="96.5" ry="96.5"/>
				<ellipse class="st324" cx="466.3" cy="1150.6" rx="96.9" ry="97"/>
				<ellipse class="st325" cx="473.3" cy="1154.5" rx="97.4" ry="97.5"/>
				<ellipse class="st326" cx="480.4" cy="1158.4" rx="97.9" ry="97.9"/>
				<ellipse class="st327" cx="487.4" cy="1162.3" rx="98.3" ry="98.4"/>
				<ellipse class="st328" cx="494.6" cy="1166.2" rx="98.8" ry="98.9"/>
				<ellipse class="st329" cx="501.8" cy="1170.1" rx="99.2" ry="99.3"/>
				<ellipse class="st330" cx="509" cy="1173.9" rx="99.7" ry="99.8"/>
				<ellipse class="st331" cx="516.3" cy="1177.7" rx="100.2" ry="100.3"/>
				<ellipse class="st332" cx="523.6" cy="1181.5" rx="100.7" ry="100.7"/>
				<ellipse class="st333" cx="531" cy="1185.3" rx="101.1" ry="101.2"/>
				<ellipse class="st334" cx="538.4" cy="1189" rx="101.6" ry="101.7"/>
				<ellipse class="st335" cx="545.8" cy="1192.7" rx="102" ry="102.1"/>
				<ellipse class="st336" cx="553.3" cy="1196.4" rx="102.5" ry="102.6"/>
				<ellipse class="st337" cx="560.9" cy="1200.1" rx="103" ry="103.1"/>
			</g>
			
				<linearGradient id="SVGID_00000065794366210132157060000006129223201602922880_" gradientUnits="userSpaceOnUse" x1="459.6672" y1="1913.1711" x2="459.6672" y2="507.7773" gradientTransform="matrix(1 0 0 1 -109.4173 -507.7772)">
				<stop  offset="0" style="stop-color:#FFFFFF"/>
				<stop  offset="1" style="stop-color:#FFFFFF;stop-opacity:0.7"/>
			</linearGradient>
			
				<rect x="0.5" y="0" style="fill:url(#SVGID_00000065794366210132157060000006129223201602922880_);" width="699.5" height="1200"/>
		</g>
	</g>
</g>
</svg>
