<?xml version="1.0" encoding="UTF-8"?><svg id="Livello_1" xmlns="http://www.w3.org/2000/svg" xmlns:xlink="http://www.w3.org/1999/xlink" viewBox="0 0 1280 482"><defs><style>.cls-1,.cls-2{fill:none;}.cls-3{clip-path:url(#clippath);}.cls-4{fill:url(#Sfumatura_senza_nome);}.cls-5{fill:#6a6bff;}.cls-6{fill:#026bfc;}.cls-7{fill:#026afd;}.cls-8{fill:#0266ff;}.cls-9{fill:#0470fa;}.cls-10{fill:#046efb;}.cls-11{fill:#046ffa;}.cls-12{fill:#0466ff;}.cls-13{fill:#0169fd;}.cls-14{fill:#0067fe;}.cls-15{fill:#06f;}.cls-16{fill:#0366ff;}.cls-17{fill:#036dfb;}.cls-18{fill:#036cfc;}.cls-19{fill:#696bff;}.cls-20{fill:#686bff;}.cls-21{fill:#676bff;}.cls-22{fill:#926eff;}.cls-23{fill:#6b6cff;}.cls-24{fill:#746cff;}.cls-25{fill:#816dff;}.cls-26{fill:#826dff;}.cls-27{fill:#7f6dff;}.cls-28{fill:#736cff;}.cls-29{fill:#656bff;}.cls-30{fill:#996eff;}.cls-31{fill:#976eff;}.cls-32{fill:#9a6eff;}.cls-33{fill:#7e6dff;}.cls-34{fill:#986eff;}.cls-35{fill:#6c6cff;}.cls-36{fill:#806dff;}.cls-37{fill:#7d6cff;}.cls-38{fill:#0168fe;}.cls-39{fill:#0166ff;}.cls-40{fill:#8b6dff;}.cls-41{fill:#a26eff;}.cls-42{fill:#a06eff;}.cls-43{fill:#a16eff;}.cls-44{fill:#9f6eff;}.cls-45{fill:#856dff;}.cls-46{fill:#946eff;}.cls-47{fill:#866dff;}.cls-48{fill:#c270ff;}.cls-49{fill:#b56fff;}.cls-50{fill:#b66fff;}.cls-51{fill:#b870ff;}.cls-52{fill:#b970ff;}.cls-53{fill:#9e6eff;}.cls-54{fill:#9d6eff;}.cls-55{fill:#8c6dff;}.cls-56{fill:#ba70ff;}.cls-57{fill:#8d6dff;}.cls-58{fill:#906dff;}.cls-59{fill:#c370ff;}.cls-60{fill:#b46fff;}.cls-61{fill:#916dff;}.cls-62{fill:#b76fff;}.cls-63{fill:#666bff;}.cls-64{fill:#30d1c4;}.cls-65{fill:#3269ff;}.cls-66{fill:#bb70ff;}.cls-67{fill:#30d2c3;}.cls-68{fill:#2fcfc5;}.cls-69{fill:#2fd0c4;}.cls-70{fill:#3068ff;}.cls-71{fill:#8e6dff;}.cls-72{fill:#3369ff;}.cls-73{fill:#31d4c2;}.cls-74{fill:#31d3c3;}.cls-75{fill:#2eccc6;}.cls-76{fill:#2ecdc6;}.cls-77{fill:#8f6dff;}.cls-78{fill:#936eff;}.cls-79{fill:#ce71ff;}.cls-80{fill:#cf71ff;}.cls-81{fill:#d071ff;}.cls-82{fill:#b26fff;}.cls-83{fill:#ac6fff;}.cls-84{fill:#a96fff;}.cls-85{fill:#a56fff;}.cls-86{fill:#aa6fff;}.cls-87{fill:#b16fff;}.cls-88{fill:#ae6fff;}.cls-89{fill:#b36fff;}.cls-90{fill:#a66fff;}.cls-91{fill:#af6fff;}.cls-92{fill:#bc70ff;}.cls-93{fill:#bd70ff;}.cls-94{fill:#a76fff;}.cls-95{fill:#bf70ff;}.cls-96{fill:#be70ff;}.cls-97{fill:#c070ff;}.cls-98{fill:#ab6fff;}.cls-99{fill:#c170ff;}.cls-100{fill:#cd71ff;}.cls-101{fill:#c470ff;}.cls-102{fill:#cb70ff;}.cls-103{fill:#c670ff;}.cls-104{fill:#ca70ff;}.cls-105{fill:#d171ff;}.cls-106{fill:#cc71ff;}.cls-107{fill:#d371ff;}.cls-108{fill:#d271ff;}.cls-109{fill:#c570ff;}.cls-110{fill:#c770ff;}.cls-111{fill:#d471ff;}.cls-112{fill:#b06fff;}.cls-113{fill:#ad6fff;}.cls-114{fill:#c870ff;}.cls-115{fill:#d571ff;}.cls-116{fill:#c970ff;}.cls-117{fill:#a86fff;}.cls-118{fill:#23b5d3;}.cls-119{fill:#23b4d4;}.cls-120{fill:#1267ff;}.cls-121{fill:#1391e7;}.cls-122{fill:#1390e8;}.cls-123{fill:#1392e7;}.cls-124{fill:#1167ff;}.cls-125{fill:#118cea;}.cls-126{fill:#128fe8;}.cls-127{fill:#128ee9;}.cls-128{fill:#1067ff;}.cls-129{fill:#108aeb;}.cls-130{fill:#118dea;}.cls-131{fill:#1595e5;}.cls-132{fill:#0f67ff;}.cls-133{fill:#1596e5;}.cls-134{fill:#1667ff;}.cls-135{fill:#1494e6;}.cls-136{fill:#1567ff;}.cls-137{fill:#2468ff;}.cls-138{fill:#2368ff;}.cls-139{fill:#23b3d4;}.cls-140{fill:#1da6db;}.cls-141{fill:#1da7db;}.cls-142{fill:#1e68ff;}.cls-143{fill:#1ca5dc;}.cls-144{fill:#1ca4dc;}.cls-145{fill:#1d67ff;}.cls-146{fill:#21afd6;}.cls-147{fill:#21b0d6;}.cls-148{fill:#2168ff;}.cls-149{fill:#22b1d5;}.cls-150{fill:#22b2d5;}.cls-151{fill:#20aed7;}.cls-152{fill:#20add7;}.cls-153{fill:#2068ff;}.cls-154{fill:#1facd8;}.cls-155{fill:#1faad9;}.cls-156{fill:#1fabd9;}.cls-157{fill:#1ea9da;}.cls-158{fill:#1f68ff;}.cls-159{fill:#1ea8da;}.cls-160{fill:#0877f6;}.cls-161{fill:#0879f5;}.cls-162{fill:#0a7df2;}.cls-163{fill:#0a7cf3;}.cls-164{fill:#0878f5;}.cls-165{fill:#0866ff;}.cls-166{fill:#0776f6;}.cls-167{fill:#0775f7;}.cls-168{fill:#097bf3;}.cls-169{fill:#0766ff;}.cls-170{fill:#2268ff;}.cls-171{fill:#4169ff;}.cls-172{fill:#4269ff;}.cls-173{fill:#3f69ff;}.cls-174{fill:#108beb;}.cls-175{fill:#0674f7;}.cls-176{fill:#1467ff;}.cls-177{fill:#0571f9;}.cls-178{fill:#0572f8;}.cls-179{fill:#0566ff;}.cls-180{fill:#1367ff;}.cls-181{fill:#0673f8;}.cls-182{fill:#0666ff;}.cls-183{fill:#1a67ff;}.cls-184{fill:#1493e6;}.cls-185{fill:#0a67ff;}.cls-186{fill:#0b7ff1;}.cls-187{fill:#0b7ef2;}.cls-188{fill:#097af4;}.cls-189{fill:#0966ff;}.cls-190{fill:#0e67ff;}.cls-191{fill:#0f89ec;}.cls-192{fill:#0f88ec;}.cls-193{fill:#0f87ed;}.cls-194{fill:#0d67ff;}.cls-195{fill:#0e86ed;}.cls-196{fill:#0e85ee;}.cls-197{fill:#1ba3de;}.cls-198{fill:#1ba3dd;}.cls-199{fill:#1ba2de;}.cls-200{fill:#0d83ef;}.cls-201{fill:#0d84ef;}.cls-202{fill:#1c67ff;}.cls-203{fill:#1aa0df;}.cls-204{fill:#1b67ff;}.cls-205{fill:#1aa1df;}.cls-206{fill:#4069ff;}.cls-207{fill:#3669ff;}.cls-208{fill:#33d8c0;}.cls-209{fill:#33d9bf;}.cls-210{fill:#35ddbd;}.cls-211{fill:#35dcbe;}.cls-212{fill:#3769ff;}.cls-213{fill:#34dbbe;}.cls-214{fill:#4369ff;}.cls-215{fill:#3569ff;}.cls-216{fill:#34dabf;}.cls-217{fill:#446aff;}.cls-218{fill:#179ae2;}.cls-219{fill:#1799e3;}.cls-220{fill:#1867ff;}.cls-221{fill:#179be2;}.cls-222{fill:#1698e4;}.cls-223{fill:#1767ff;}.cls-224{fill:#3e69ff;}.cls-225{fill:#1697e4;}.cls-226{fill:#0c67ff;}.cls-227{fill:#3d69ff;}.cls-228{fill:#0b67ff;}.cls-229{fill:#0c82f0;}.cls-230{fill:#0c80f1;}.cls-231{fill:#0c81f0;}.cls-232{fill:#199fe0;}.cls-233{fill:#199ee0;}.cls-234{fill:#1967ff;}.cls-235{fill:#189ce1;}.cls-236{fill:#189de1;}.cls-237{fill:#956eff;}.cls-238{fill:#a46eff;}.cls-239{fill:#9c6eff;}.cls-240{fill:#6e6cff;}.cls-241{fill:#6f6cff;}.cls-242{fill:#726cff;}.cls-243{fill:#a36eff;}.cls-244{fill:#966eff;}.cls-245{fill:#466aff;}.cls-246{fill:#536aff;}.cls-247{fill:#876dff;}.cls-248{fill:#8a6dff;}.cls-249{fill:#896dff;}.cls-250{fill:#6d6cff;}.cls-251{fill:#886dff;}.cls-252{fill:#9b6eff;}.cls-253{fill:#706cff;}.cls-254{fill:#556aff;}.cls-255{fill:#646bff;}.cls-256{fill:#636bff;}.cls-257{fill:#626bff;}.cls-258{fill:#5a6bff;}.cls-259{fill:#2868ff;}.cls-260{fill:#586bff;}.cls-261{fill:#2a68ff;}.cls-262{fill:#28c0cd;}.cls-263{fill:#28bfce;}.cls-264{fill:#2b68ff;}.cls-265{fill:#29c2cc;}.cls-266{fill:#29c1cc;}.cls-267{fill:#566aff;}.cls-268{fill:#2bc6ca;}.cls-269{fill:#2bc7c9;}.cls-270{fill:#5c6bff;}.cls-271{fill:#4a6aff;}.cls-272{fill:#27bdcf;}.cls-273{fill:#2968ff;}.cls-274{fill:#27bece;}.cls-275{fill:#27bccf;}.cls-276{fill:#486aff;}.cls-277{fill:#476aff;}.cls-278{fill:#2c68ff;}.cls-279{fill:#2ac3cb;}.cls-280{fill:#2ac4cb;}.cls-281{fill:#2ac5ca;}.cls-282{fill:#24b7d2;}.cls-283{fill:#32d6c1;}.cls-284{fill:#32d7c0;}.cls-285{fill:#32d5c1;}.cls-286{fill:#24b6d3;}.cls-287{fill:#5b6bff;}.cls-288{fill:#3969ff;}.cls-289{fill:#2f68ff;}.cls-290{fill:#2dcbc7;}.cls-291{fill:#2dcac8;}.cls-292{fill:#36dfbc;}.cls-293{fill:#36debd;}.cls-294{fill:#3869ff;}.cls-295{fill:#3169ff;}.cls-296{fill:#2568ff;}.cls-297{fill:#2ecec5;}.cls-298{fill:#3a69ff;}.cls-299{fill:#3b69ff;}.cls-300{fill:#3469ff;}.cls-301{fill:#25b9d1;}.cls-302{fill:#25b8d1;}.cls-303{fill:#596bff;}.cls-304{fill:#2e68ff;}.cls-305{fill:#576aff;}.cls-306{fill:#2d68ff;}.cls-307{fill:#3c69ff;}.cls-308{fill:#846dff;}.cls-309{fill:#2cc9c8;}.cls-310{fill:#2cc8c9;}.cls-311{fill:#4c6aff;}.cls-312{fill:#616bff;}.cls-313{fill:#496aff;}.cls-314{fill:#5f6bff;}.cls-315{fill:#5e6bff;}.cls-316{fill:#546aff;}.cls-317{fill:#456aff;}.cls-318{fill:#756cff;}.cls-319{fill:#776cff;}.cls-320{fill:#606bff;}.cls-321{fill:#796cff;}.cls-322{fill:#7a6cff;}.cls-323{fill:#4b6aff;}.cls-324{fill:#5d6bff;}.cls-325{fill:#716cff;}.cls-326{fill:#526aff;}.cls-327{fill:#786cff;}.cls-328{fill:#506aff;}.cls-329{fill:#4f6aff;}.cls-330{fill:#766cff;}.cls-331{fill:#836dff;}.cls-332{fill:#4d6aff;}.cls-333{fill:#7c6cff;}.cls-334{fill:#2668ff;}.cls-335{fill:#2768ff;}.cls-336{fill:#26bbd0;}.cls-337{fill:#26bad0;}.cls-338{fill:#516aff;}.cls-339{fill:#7b6cff;}.cls-340{fill:#4e6aff;}.cls-2{stroke:#caddfa;stroke-miterlimit:10;}</style><clipPath id="clippath"><rect class="cls-1" width="1280" height="482"/></clipPath><linearGradient id="Sfumatura_senza_nome" x1="640" y1="-80.5" x2="640" y2="484" gradientTransform="translate(0 484) scale(1 -1)" gradientUnits="userSpaceOnUse"><stop offset="0" stop-color="#fff"/><stop offset="1" stop-color="#fff" stop-opacity=".7"/></linearGradient></defs><g class="cls-3"><g><path class="cls-2" d="M1119.5,.5V482.5h22.86V.5h22.85V482.5h22.86V.5h22.86V482.5h22.86V.5h22.85V482.5h-160V.5h-22.85V482.5h-22.86V.5h-22.86V482.5h-22.86V.5h-22.85V482.5h-22.86V.5h-160V482.5h22.86V.5h22.85V482.5h22.86V.5h22.86V482.5h22.86V.5h22.85V482.5h-160V.5h-22.85V482.5h-22.86V.5h-22.86V482.5h-22.86V.5h-22.85V482.5h-22.86V.5h-160V482.5h22.86V.5h22.85V482.5h22.86V.5h22.86V482.5h22.86V.5h22.85V482.5h-160V.5h-22.85V482.5h-22.86V.5h-22.86V482.5h-22.86V.5h-22.85V482.5h-22.86V.5H159.5V482.5h22.86V.5h22.85V482.5h22.86V.5h22.86V482.5h22.86V.5h22.85V482.5H136.64V.5h-22.85V482.5h-22.86V.5h-22.86V482.5h-22.86V.5H22.36V482.5H-.5v-22.95H1279.5v-22.95H-.5v-22.96H1279.5v-22.95H-.5v-22.95H1279.5v-22.95H-.5v-22.96H1279.5v-22.95H-.5v-22.95H1279.5v-22.95H-.5v-22.96H1279.5v-22.95H-.5v-22.95H1279.5v-22.95H-.5v-22.96H1279.5v-22.95H-.5v-22.95H1279.5v-22.95H-.5v-22.96H1279.5V23.45H-.5V.5H1119.5Z"/><rect class="cls-1" y="1" width="1280" height="481"/><g><circle class="cls-115" cx="0" cy="482" r="22.07"/><circle class="cls-111" cx="4.49" cy="475.65" r="22.18"/><circle class="cls-107" cx="8.98" cy="469.34" r="22.29"/><circle class="cls-108" cx="13.47" cy="463.07" r="22.41"/><circle class="cls-105" cx="17.97" cy="456.85" r="22.52"/><circle class="cls-81" cx="22.47" cy="450.67" r="22.63"/><circle class="cls-80" cx="26.97" cy="444.54" r="22.75"/><circle class="cls-79" cx="31.48" cy="438.46" r="22.86"/><circle class="cls-100" cx="35.98" cy="432.43" r="22.97"/><circle class="cls-106" cx="40.49" cy="426.44" r="23.09"/><circle class="cls-102" cx="45" cy="420.51" r="23.2"/><circle class="cls-104" cx="49.51" cy="414.63" r="23.32"/><circle class="cls-116" cx="54.01" cy="408.8" r="23.43"/><circle class="cls-114" cx="58.52" cy="403.03" r="23.54"/><circle class="cls-110" cx="63.02" cy="397.31" r="23.66"/><circle class="cls-103" cx="67.53" cy="391.65" r="23.77"/><circle class="cls-109" cx="72.03" cy="386.04" r="23.88"/><circle class="cls-101" cx="76.52" cy="380.5" r="24"/><circle class="cls-59" cx="81.01" cy="375.01" r="24.11"/><circle class="cls-48" cx="85.5" cy="369.58" r="24.23"/><circle class="cls-99" cx="89.99" cy="364.22" r="24.34"/><circle class="cls-97" cx="94.47" cy="358.91" r="24.45"/><circle class="cls-95" cx="98.94" cy="353.67" r="24.57"/><circle class="cls-96" cx="103.41" cy="348.5" r="24.68"/><circle class="cls-93" cx="107.87" cy="343.39" r="24.79"/><circle class="cls-92" cx="112.32" cy="338.34" r="24.91"/><circle class="cls-66" cx="116.76" cy="333.37" r="25.02"/><circle class="cls-56" cx="121.2" cy="328.46" r="25.13"/><circle class="cls-52" cx="125.63" cy="323.63" r="25.25"/><circle class="cls-51" cx="130.05" cy="318.86" r="25.36"/><circle class="cls-62" cx="134.46" cy="314.17" r="25.48"/><circle class="cls-50" cx="138.86" cy="309.55" r="25.59"/><circle class="cls-49" cx="143.25" cy="305" r="25.7"/><circle class="cls-60" cx="147.62" cy="300.53" r="25.82"/><circle class="cls-89" cx="151.99" cy="296.14" r="25.93"/><circle class="cls-82" cx="156.34" cy="291.82" r="26.04"/><circle class="cls-87" cx="160.68" cy="287.58" r="26.16"/><circle class="cls-112" cx="165.01" cy="283.42" r="26.27"/><circle class="cls-91" cx="169.32" cy="279.34" r="26.39"/><circle class="cls-88" cx="173.62" cy="275.35" r="26.5"/><circle class="cls-113" cx="177.91" cy="271.43" r="26.61"/><circle class="cls-83" cx="182.17" cy="267.6" r="26.73"/><circle class="cls-98" cx="186.43" cy="263.85" r="26.84"/><circle class="cls-86" cx="190.67" cy="260.19" r="26.95"/><circle class="cls-84" cx="194.89" cy="256.62" r="27.07"/><circle class="cls-117" cx="199.09" cy="253.13" r="27.18"/><circle class="cls-94" cx="203.27" cy="249.74" r="27.29"/><circle class="cls-90" cx="207.44" cy="246.43" r="27.41"/><circle class="cls-85" cx="211.59" cy="243.21" r="27.52"/><circle class="cls-238" cx="215.72" cy="240.09" r="27.64"/><circle class="cls-243" cx="219.82" cy="237.06" r="27.75"/><circle class="cls-41" cx="223.91" cy="234.12" r="27.86"/><circle class="cls-43" cx="227.98" cy="231.28" r="27.98"/><circle class="cls-42" cx="232.03" cy="228.54" r="28.09"/><circle class="cls-44" cx="236.05" cy="225.89" r="28.2"/><circle class="cls-53" cx="240.05" cy="223.34" r="28.32"/><circle class="cls-54" cx="244.03" cy="220.89" r="28.43"/><circle class="cls-239" cx="247.99" cy="218.54" r="28.54"/><circle class="cls-252" cx="251.92" cy="216.29" r="28.66"/><circle class="cls-32" cx="255.83" cy="214.15" r="28.77"/><circle class="cls-30" cx="259.71" cy="212.11" r="28.89"/><circle class="cls-34" cx="263.57" cy="210.17" r="29"/><circle class="cls-31" cx="267.4" cy="208.34" r="29.11"/><circle class="cls-244" cx="271.2" cy="206.62" r="29.23"/><circle class="cls-237" cx="274.98" cy="205" r="29.34"/><circle class="cls-46" cx="278.73" cy="203.5" r="29.45"/><circle class="cls-78" cx="282.45" cy="202.1" r="29.57"/><circle class="cls-22" cx="286.15" cy="200.81" r="29.68"/><circle class="cls-61" cx="289.81" cy="199.64" r="29.8"/><circle class="cls-58" cx="293.45" cy="198.58" r="29.91"/><circle class="cls-77" cx="297.05" cy="197.64" r="30.02"/><circle class="cls-71" cx="300.63" cy="196.81" r="30.14"/><circle class="cls-57" cx="304.17" cy="196.09" r="30.25"/><circle class="cls-55" cx="307.68" cy="195.5" r="30.36"/><circle class="cls-40" cx="311.16" cy="195.02" r="30.48"/><circle class="cls-248" cx="314.61" cy="194.66" r="30.59"/><circle class="cls-249" cx="318.03" cy="194.42" r="30.7"/><circle class="cls-251" cx="321.41" cy="194.31" r="30.82"/><circle class="cls-247" cx="324.76" cy="194.31" r="30.93"/><circle class="cls-47" cx="328.07" cy="194.45" r="31.05"/><circle class="cls-45" cx="331.35" cy="194.7" r="31.16"/><circle class="cls-308" cx="334.59" cy="195.08" r="31.27"/><circle class="cls-331" cx="337.8" cy="195.59" r="31.39"/><circle class="cls-26" cx="340.97" cy="196.23" r="31.5"/><circle class="cls-25" cx="344.1" cy="196.99" r="31.61"/><circle class="cls-36" cx="349.32" cy="198.64" r="31.73"/><circle class="cls-27" cx="354.26" cy="200.74" r="31.84"/><circle class="cls-33" cx="358.81" cy="203.24" r="31.96"/><circle class="cls-37" cx="362.98" cy="206.12" r="32.07"/><circle class="cls-333" cx="366.78" cy="209.36" r="32.18"/><circle class="cls-339" cx="370.25" cy="212.94" r="32.3"/><circle class="cls-322" cx="373.39" cy="216.84" r="32.41"/><circle class="cls-321" cx="376.23" cy="221.05" r="32.52"/><circle class="cls-327" cx="378.77" cy="225.54" r="32.64"/><circle class="cls-319" cx="381.05" cy="230.3" r="32.75"/><circle class="cls-330" cx="383.07" cy="235.31" r="32.86"/><circle class="cls-318" cx="384.85" cy="240.55" r="32.98"/><circle class="cls-24" cx="386.42" cy="245.99" r="33.09"/><circle class="cls-28" cx="387.78" cy="251.63" r="33.21"/><circle class="cls-242" cx="388.97" cy="257.44" r="33.32"/><circle class="cls-325" cx="389.98" cy="263.4" r="33.43"/><circle class="cls-253" cx="390.85" cy="269.5" r="33.55"/><circle class="cls-241" cx="391.58" cy="275.71" r="33.66"/><circle class="cls-240" cx="392.21" cy="282.02" r="33.77"/><circle class="cls-250" cx="392.73" cy="288.41" r="33.89"/><circle class="cls-35" cx="393.19" cy="294.85" r="34"/><circle class="cls-23" cx="393.58" cy="301.34" r="34.12"/><circle class="cls-5" cx="393.92" cy="307.85" r="34.23"/><circle class="cls-19" cx="394.25" cy="314.36" r="34.34"/><circle class="cls-20" cx="394.56" cy="320.85" r="34.46"/><circle class="cls-21" cx="394.89" cy="327.31" r="34.57"/><circle class="cls-63" cx="395.24" cy="333.72" r="34.68"/><circle class="cls-29" cx="395.64" cy="340.05" r="34.8"/><circle class="cls-255" cx="396.11" cy="346.29" r="34.91"/><circle class="cls-256" cx="396.65" cy="352.42" r="35.02"/><circle class="cls-257" cx="397.29" cy="358.42" r="35.14"/><circle class="cls-312" cx="398.05" cy="364.27" r="35.25"/><circle class="cls-320" cx="398.94" cy="369.96" r="35.37"/><circle class="cls-314" cx="399.99" cy="375.46" r="35.48"/><circle class="cls-315" cx="401.2" cy="380.75" r="35.59"/><circle class="cls-324" cx="402.6" cy="385.83" r="35.71"/><circle class="cls-270" cx="404.21" cy="390.66" r="35.82"/><circle class="cls-287" cx="406.03" cy="395.22" r="35.93"/><circle class="cls-258" cx="408.1" cy="399.51" r="36.05"/><circle class="cls-303" cx="410.42" cy="403.5" r="36.16"/><circle class="cls-260" cx="413.02" cy="407.17" r="36.28"/><circle class="cls-305" cx="415.91" cy="410.51" r="36.39"/><circle class="cls-267" cx="419.11" cy="413.48" r="36.5"/><circle class="cls-254" cx="422.64" cy="416.09" r="36.62"/><circle class="cls-316" cx="426.51" cy="418.3" r="36.73"/><circle class="cls-246" cx="430.75" cy="420.1" r="36.84"/><circle class="cls-326" cx="435.37" cy="421.47" r="36.96"/><circle class="cls-338" cx="439.32" cy="422.22" r="37.07"/><circle class="cls-328" cx="443.08" cy="422.6" r="37.18"/><circle class="cls-329" cx="446.96" cy="422.7" r="37.3"/><circle class="cls-340" cx="450.97" cy="422.51" r="37.41"/><circle class="cls-332" cx="455.1" cy="422.05" r="37.53"/><circle class="cls-311" cx="459.35" cy="421.33" r="37.64"/><circle class="cls-323" cx="463.7" cy="420.36" r="37.75"/><circle class="cls-271" cx="468.16" cy="419.15" r="37.87"/><circle class="cls-313" cx="472.72" cy="417.71" r="37.98"/><circle class="cls-276" cx="477.37" cy="416.04" r="38.09"/><circle class="cls-277" cx="482.12" cy="414.16" r="38.21"/><circle class="cls-245" cx="486.95" cy="412.07" r="38.32"/><circle class="cls-317" cx="491.87" cy="409.79" r="38.44"/><circle class="cls-217" cx="496.86" cy="407.33" r="38.55"/><circle class="cls-214" cx="501.93" cy="404.69" r="38.66"/><circle class="cls-172" cx="507.06" cy="401.89" r="38.78"/><circle class="cls-171" cx="512.26" cy="398.93" r="38.89"/><circle class="cls-206" cx="517.52" cy="395.82" r="39"/><circle class="cls-173" cx="522.83" cy="392.57" r="39.12"/><circle class="cls-224" cx="528.19" cy="389.2" r="39.23"/><circle class="cls-227" cx="533.6" cy="385.71" r="39.34"/><circle class="cls-307" cx="539.05" cy="382.1" r="39.46"/><circle class="cls-299" cx="544.53" cy="378.4" r="39.57"/><circle class="cls-298" cx="550.05" cy="374.61" r="39.69"/><circle class="cls-288" cx="555.59" cy="370.74" r="39.8"/><circle class="cls-294" cx="561.16" cy="366.8" r="39.91"/><circle class="cls-212" cx="566.74" cy="362.8" r="40.03"/><circle class="cls-207" cx="572.34" cy="358.74" r="40.14"/><circle class="cls-215" cx="577.95" cy="354.64" r="40.25"/><circle class="cls-300" cx="583.56" cy="350.51" r="40.37"/><circle class="cls-72" cx="589.17" cy="346.36" r="40.48"/><circle class="cls-65" cx="594.77" cy="342.19" r="40.6"/><circle class="cls-295" cx="600.37" cy="338.02" r="40.71"/><circle class="cls-70" cx="605.95" cy="333.85" r="40.82"/><circle class="cls-289" cx="611.52" cy="329.7" r="40.94"/><circle class="cls-304" cx="617.06" cy="325.57" r="41.05"/><circle class="cls-306" cx="622.57" cy="321.47" r="41.16"/><circle class="cls-278" cx="628.05" cy="317.42" r="41.28"/><circle class="cls-264" cx="633.49" cy="313.42" r="41.39"/><circle class="cls-261" cx="638.89" cy="309.48" r="41.5"/><circle class="cls-273" cx="644.25" cy="305.61" r="41.62"/><circle class="cls-259" cx="649.55" cy="301.82" r="41.73"/><circle class="cls-335" cx="654.8" cy="298.13" r="41.85"/><circle class="cls-334" cx="659.99" cy="294.53" r="41.96"/><circle class="cls-296" cx="665.11" cy="291.04" r="42.07"/><circle class="cls-137" cx="670.17" cy="287.68" r="42.19"/><circle class="cls-138" cx="675.15" cy="284.44" r="42.3"/><circle class="cls-170" cx="680.05" cy="281.33" r="42.41"/><circle class="cls-148" cx="684.87" cy="278.38" r="42.53"/><circle class="cls-153" cx="689.61" cy="275.58" r="42.64"/><circle class="cls-158" cx="694.25" cy="272.95" r="42.75"/><circle class="cls-142" cx="698.79" cy="270.49" r="42.87"/><circle class="cls-145" cx="703.23" cy="268.22" r="42.98"/><circle class="cls-202" cx="707.57" cy="266.15" r="43.1"/><circle class="cls-204" cx="711.8" cy="264.28" r="43.21"/><circle class="cls-183" cx="715.91" cy="262.62" r="43.32"/><circle class="cls-234" cx="719.9" cy="261.19" r="43.44"/><circle class="cls-220" cx="723.77" cy="259.98" r="43.55"/><circle class="cls-223" cx="727.51" cy="259.03" r="43.66"/><circle class="cls-134" cx="731.12" cy="258.32" r="43.78"/><circle class="cls-136" cx="734.59" cy="257.87" r="43.89"/><circle class="cls-176" cx="737.91" cy="257.7" r="44.01"/><circle class="cls-180" cx="741.09" cy="257.8" r="44.12"/><circle class="cls-120" cx="744.12" cy="258.2" r="44.23"/><circle class="cls-124" cx="747.13" cy="258.93" r="44.35"/><circle class="cls-128" cx="750.47" cy="260.22" r="44.46"/><circle class="cls-132" cx="753.51" cy="261.91" r="44.57"/><circle class="cls-190" cx="756.27" cy="264" r="44.69"/><circle class="cls-194" cx="758.78" cy="266.47" r="44.8"/><circle class="cls-226" cx="761.03" cy="269.29" r="44.91"/><circle class="cls-228" cx="763.06" cy="272.46" r="45.03"/><circle class="cls-185" cx="764.87" cy="275.95" r="45.14"/><circle class="cls-189" cx="766.48" cy="279.74" r="45.26"/><circle class="cls-165" cx="767.9" cy="283.82" r="45.37"/><circle class="cls-169" cx="769.16" cy="288.17" r="45.48"/><circle class="cls-182" cx="770.26" cy="292.78" r="45.6"/><circle class="cls-179" cx="771.23" cy="297.62" r="45.71"/><circle class="cls-12" cx="772.07" cy="302.68" r="45.82"/><circle class="cls-16" cx="772.81" cy="307.94" r="45.94"/><circle class="cls-8" cx="773.45" cy="313.38" r="46.05"/><circle class="cls-39" cx="774.02" cy="318.99" r="46.17"/><circle class="cls-15" cx="775.93" cy="343.86" r="46.28"/><circle class="cls-14" cx="775.05" cy="331.37" r="46.74"/><circle class="cls-38" cx="775.53" cy="338.13" r="47.21"/><circle class="cls-13" cx="776.01" cy="345" r="47.67"/><circle class="cls-7" cx="776.49" cy="351.97" r="48.14"/><circle class="cls-6" cx="777" cy="358.99" r="48.6"/><circle class="cls-18" cx="777.57" cy="366.06" r="49.07"/><circle class="cls-17" cx="778.22" cy="373.14" r="49.53"/><circle class="cls-10" cx="778.96" cy="380.21" r="50"/><circle class="cls-11" cx="779.82" cy="387.25" r="50.46"/><circle class="cls-9" cx="780.83" cy="394.22" r="50.93"/><circle class="cls-177" cx="781.99" cy="401.11" r="51.39"/><circle class="cls-178" cx="783.35" cy="407.89" r="51.86"/><circle class="cls-181" cx="784.91" cy="414.53" r="52.32"/><circle class="cls-175" cx="786.7" cy="421.01" r="52.78"/><circle class="cls-167" cx="788.75" cy="427.3" r="53.25"/><circle class="cls-166" cx="791.07" cy="433.39" r="53.71"/><circle class="cls-160" cx="793.69" cy="439.24" r="54.18"/><circle class="cls-164" cx="796.62" cy="444.82" r="54.64"/><circle class="cls-161" cx="799.9" cy="450.13" r="55.11"/><circle class="cls-188" cx="803.53" cy="455.12" r="55.57"/><circle class="cls-168" cx="807.56" cy="459.77" r="56.04"/><circle class="cls-163" cx="811.98" cy="464.07" r="56.5"/><circle class="cls-162" cx="816.84" cy="467.98" r="56.97"/><circle class="cls-187" cx="822.15" cy="471.48" r="57.43"/><circle class="cls-186" cx="827.93" cy="474.54" r="57.9"/><circle class="cls-230" cx="834.21" cy="477.15" r="58.36"/><circle class="cls-231" cx="841" cy="479.27" r="58.83"/><circle class="cls-229" cx="848.33" cy="480.87" r="59.29"/><circle class="cls-200" cx="856.23" cy="481.95" r="59.75"/><circle class="cls-201" cx="864.7" cy="482.46" r="60.22"/><circle class="cls-196" cx="870.4" cy="482.48" r="60.68"/><circle class="cls-195" cx="874.17" cy="482.34" r="61.15"/><circle class="cls-193" cx="877.95" cy="482.07" r="61.61"/><circle class="cls-192" cx="881.76" cy="481.69" r="62.08"/><circle class="cls-191" cx="885.59" cy="481.18" r="62.54"/><circle class="cls-129" cx="889.44" cy="480.55" r="63.01"/><circle class="cls-174" cx="893.3" cy="479.8" r="63.47"/><circle class="cls-125" cx="897.19" cy="478.93" r="63.94"/><circle class="cls-130" cx="901.09" cy="477.95" r="64.4"/><circle class="cls-127" cx="905.01" cy="476.84" r="64.87"/><circle class="cls-126" cx="908.95" cy="475.63" r="65.33"/><circle class="cls-122" cx="912.9" cy="474.29" r="65.8"/><circle class="cls-121" cx="916.87" cy="472.84" r="66.26"/><circle class="cls-123" cx="920.86" cy="471.28" r="66.72"/><circle class="cls-184" cx="924.86" cy="469.61" r="67.19"/><circle class="cls-135" cx="928.88" cy="467.82" r="67.65"/><circle class="cls-131" cx="932.91" cy="465.92" r="68.12"/><circle class="cls-133" cx="936.95" cy="463.92" r="68.58"/><circle class="cls-225" cx="941.01" cy="461.8" r="69.05"/><circle class="cls-222" cx="945.07" cy="459.58" r="69.51"/><circle class="cls-219" cx="949.16" cy="457.25" r="69.98"/><circle class="cls-218" cx="953.25" cy="454.81" r="70.44"/><circle class="cls-221" cx="957.35" cy="452.27" r="70.91"/><circle class="cls-235" cx="961.47" cy="449.63" r="71.37"/><circle class="cls-236" cx="965.59" cy="446.88" r="71.84"/><circle class="cls-233" cx="969.72" cy="444.03" r="72.3"/><circle class="cls-232" cx="973.87" cy="441.08" r="72.77"/><circle class="cls-203" cx="978.02" cy="438.02" r="73.23"/><circle class="cls-205" cx="982.18" cy="434.87" r="73.69"/><circle class="cls-199" cx="986.35" cy="431.62" r="74.16"/><circle class="cls-197" cx="990.52" cy="428.28" r="74.62"/><circle class="cls-198" cx="994.7" cy="424.83" r="75.09"/><circle class="cls-144" cx="998.89" cy="421.29" r="75.55"/><circle class="cls-143" cx="1003.09" cy="417.66" r="76.02"/><circle class="cls-140" cx="1007.28" cy="413.93" r="76.48"/><circle class="cls-141" cx="1011.49" cy="410.11" r="76.95"/><circle class="cls-159" cx="1015.69" cy="406.19" r="77.41"/><circle class="cls-157" cx="1019.91" cy="402.19" r="77.88"/><circle class="cls-155" cx="1024.12" cy="398.09" r="78.34"/><circle class="cls-156" cx="1028.34" cy="393.91" r="78.81"/><circle class="cls-154" cx="1032.56" cy="389.64" r="79.27"/><circle class="cls-152" cx="1036.78" cy="385.28" r="79.74"/><circle class="cls-151" cx="1041" cy="380.83" r="80.2"/><circle class="cls-146" cx="1045.22" cy="376.3" r="80.66"/><circle class="cls-147" cx="1049.45" cy="371.69" r="81.13"/><circle class="cls-149" cx="1053.67" cy="366.99" r="81.59"/><circle class="cls-150" cx="1057.89" cy="362.2" r="82.06"/><circle class="cls-139" cx="1062.11" cy="357.34" r="82.52"/><circle class="cls-119" cx="1066.33" cy="352.4" r="82.99"/><circle class="cls-118" cx="1070.55" cy="347.37" r="83.45"/><circle class="cls-286" cx="1074.76" cy="342.27" r="83.92"/><circle class="cls-282" cx="1078.97" cy="337.09" r="84.38"/><circle class="cls-302" cx="1083.18" cy="331.83" r="84.85"/><circle class="cls-301" cx="1087.39" cy="326.49" r="85.31"/><circle class="cls-337" cx="1091.58" cy="321.08" r="85.78"/><circle class="cls-336" cx="1095.78" cy="315.6" r="86.24"/><circle class="cls-275" cx="1099.96" cy="310.04" r="86.71"/><circle class="cls-272" cx="1104.15" cy="304.41" r="87.17"/><circle class="cls-274" cx="1108.32" cy="298.71" r="87.63"/><circle class="cls-263" cx="1112.49" cy="292.94" r="88.1"/><circle class="cls-262" cx="1116.65" cy="287.1" r="88.56"/><circle class="cls-266" cx="1120.8" cy="281.19" r="89.03"/><circle class="cls-265" cx="1124.94" cy="275.21" r="89.49"/><circle class="cls-279" cx="1129.08" cy="269.16" r="89.96"/><circle class="cls-280" cx="1133.2" cy="263.05" r="90.42"/><circle class="cls-281" cx="1137.31" cy="256.88" r="90.89"/><circle class="cls-268" cx="1141.42" cy="250.64" r="91.35"/><circle class="cls-269" cx="1145.51" cy="244.33" r="91.82"/><circle class="cls-310" cx="1149.59" cy="237.97" r="92.28"/><circle class="cls-309" cx="1153.66" cy="231.54" r="92.75"/><circle class="cls-291" cx="1157.72" cy="225.05" r="93.21"/><circle class="cls-290" cx="1161.76" cy="218.51" r="93.68"/><circle class="cls-75" cx="1165.79" cy="211.9" r="94.14"/><circle class="cls-76" cx="1169.8" cy="205.24" r="94.6"/><circle class="cls-297" cx="1173.8" cy="198.52" r="95.07"/><circle class="cls-68" cx="1177.79" cy="191.75" r="95.53"/><circle class="cls-69" cx="1181.76" cy="184.92" r="96"/><circle class="cls-64" cx="1185.71" cy="178.03" r="96.46"/><circle class="cls-67" cx="1189.65" cy="171.1" r="96.93"/><circle class="cls-74" cx="1193.57" cy="164.11" r="97.39"/><circle class="cls-73" cx="1197.47" cy="157.07" r="97.86"/><circle class="cls-285" cx="1201.36" cy="149.98" r="98.32"/><circle class="cls-283" cx="1205.22" cy="142.85" r="98.79"/><circle class="cls-284" cx="1209.07" cy="135.66" r="99.25"/><circle class="cls-208" cx="1212.9" cy="128.43" r="99.72"/><circle class="cls-209" cx="1216.71" cy="121.15" r="100.18"/><circle class="cls-216" cx="1220.49" cy="113.82" r="100.65"/><circle class="cls-213" cx="1224.26" cy="106.45" r="101.11"/><circle class="cls-211" cx="1228" cy="99.04" r="101.57"/><circle class="cls-210" cx="1231.72" cy="91.58" r="102.04"/><circle class="cls-293" cx="1235.42" cy="84.08" r="102.5"/><circle class="cls-292" cx="1239.1" cy="76.55" r="102.97"/></g><rect class="cls-4" width="1280" height="482"/></g></g></svg>